%TF.GenerationSoftware,KiCad,Pcbnew,8.0.6+dfsg-1*%
%TF.CreationDate,2024-12-08T15:12:26-08:00*%
%TF.ProjectId,dc_q84 v3,64635f71-3834-4207-9633-2e6b69636164,rev?*%
%TF.SameCoordinates,Original*%
%TF.FileFunction,Paste,Top*%
%TF.FilePolarity,Positive*%
%FSLAX46Y46*%
G04 Gerber Fmt 4.6, Leading zero omitted, Abs format (unit mm)*
G04 Created by KiCad (PCBNEW 8.0.6+dfsg-1) date 2024-12-08 15:12:26*
%MOMM*%
%LPD*%
G01*
G04 APERTURE LIST*
G04 Aperture macros list*
%AMRoundRect*
0 Rectangle with rounded corners*
0 $1 Rounding radius*
0 $2 $3 $4 $5 $6 $7 $8 $9 X,Y pos of 4 corners*
0 Add a 4 corners polygon primitive as box body*
4,1,4,$2,$3,$4,$5,$6,$7,$8,$9,$2,$3,0*
0 Add four circle primitives for the rounded corners*
1,1,$1+$1,$2,$3*
1,1,$1+$1,$4,$5*
1,1,$1+$1,$6,$7*
1,1,$1+$1,$8,$9*
0 Add four rect primitives between the rounded corners*
20,1,$1+$1,$2,$3,$4,$5,0*
20,1,$1+$1,$4,$5,$6,$7,0*
20,1,$1+$1,$6,$7,$8,$9,0*
20,1,$1+$1,$8,$9,$2,$3,0*%
G04 Aperture macros list end*
%ADD10R,1.475000X0.600000*%
%ADD11R,0.600000X1.475000*%
%ADD12R,1.168400X1.600200*%
%ADD13R,1.500000X1.300000*%
%ADD14R,1.200000X1.200000*%
%ADD15RoundRect,0.072500X0.217500X-0.532500X0.217500X0.532500X-0.217500X0.532500X-0.217500X-0.532500X0*%
%ADD16R,1.600200X1.168400*%
%ADD17R,1.800000X1.600000*%
G04 APERTURE END LIST*
D10*
%TO.C,IC4*%
X143408100Y-104013600D03*
X143408100Y-104813600D03*
X143408100Y-105613600D03*
X143408100Y-106413600D03*
X143408100Y-107213600D03*
X143408100Y-108013600D03*
X143408100Y-108813600D03*
X143408100Y-109613600D03*
X143408100Y-110413600D03*
X143408100Y-111213600D03*
X143408100Y-112013600D03*
D11*
X145146100Y-113751600D03*
X145946100Y-113751600D03*
X146746100Y-113751600D03*
X147546100Y-113751600D03*
X148346100Y-113751600D03*
X149146100Y-113751600D03*
X149946100Y-113751600D03*
X150746100Y-113751600D03*
X151546100Y-113751600D03*
X152346100Y-113751600D03*
X153146100Y-113751600D03*
D10*
X154884100Y-112013600D03*
X154884100Y-111213600D03*
X154884100Y-110413600D03*
X154884100Y-109613600D03*
X154884100Y-108813600D03*
X154884100Y-108013600D03*
X154884100Y-107213600D03*
X154884100Y-106413600D03*
X154884100Y-105613600D03*
X154884100Y-104813600D03*
X154884100Y-104013600D03*
D11*
X153146100Y-102275600D03*
X152346100Y-102275600D03*
X151546100Y-102275600D03*
X150746100Y-102275600D03*
X149946100Y-102275600D03*
X149146100Y-102275600D03*
X148346100Y-102275600D03*
X147546100Y-102275600D03*
X146746100Y-102275600D03*
X145946100Y-102275600D03*
X145146100Y-102275600D03*
%TD*%
D12*
%TO.C,B+0*%
X173784100Y-101663600D03*
X175308100Y-101663600D03*
%TD*%
%TO.C,A-1*%
X173784100Y-94043600D03*
X175308100Y-94043600D03*
%TD*%
D13*
%TO.C,R7*%
X160576100Y-107063600D03*
X160576100Y-108963600D03*
%TD*%
D12*
%TO.C,RESET0*%
X121714100Y-77533600D03*
X123238100Y-77533600D03*
%TD*%
D13*
%TO.C,R9*%
X165656100Y-107063600D03*
X165656100Y-108963600D03*
%TD*%
D14*
%TO.C,LED1*%
X160576100Y-102713600D03*
X160576100Y-100613600D03*
%TD*%
D15*
%TO.C,U1*%
X136845400Y-126121400D03*
X137795400Y-126121400D03*
X138745400Y-126121400D03*
X138745400Y-123611400D03*
X137795400Y-123611400D03*
X136845400Y-123611400D03*
%TD*%
D16*
%TO.C,CAN_PWR0*%
X160576100Y-82105600D03*
X160576100Y-80581600D03*
%TD*%
D13*
%TO.C,C2*%
X142796100Y-123573600D03*
X142796100Y-125473600D03*
%TD*%
D12*
%TO.C,A-NORM0*%
X173784100Y-105473600D03*
X175308100Y-105473600D03*
%TD*%
%TO.C,B+_NORM0*%
X173784100Y-90233600D03*
X175308100Y-90233600D03*
%TD*%
D13*
%TO.C,R8*%
X163116100Y-107063600D03*
X163116100Y-108963600D03*
%TD*%
D14*
%TO.C,LED3*%
X165656100Y-102713600D03*
X165656100Y-100613600D03*
%TD*%
D17*
%TO.C,OS1_10MHZ0*%
X149146100Y-126623600D03*
X154226100Y-126623600D03*
X154226100Y-122423600D03*
X149146100Y-122423600D03*
%TD*%
D14*
%TO.C,LED2*%
X163116100Y-102713600D03*
X163116100Y-100613600D03*
%TD*%
M02*
