%TF.GenerationSoftware,KiCad,Pcbnew,8.0.6+dfsg-1*%
%TF.CreationDate,2024-12-08T15:12:26-08:00*%
%TF.ProjectId,dc_q84 v3,64635f71-3834-4207-9633-2e6b69636164,rev?*%
%TF.SameCoordinates,Original*%
%TF.FileFunction,Paste,Bot*%
%TF.FilePolarity,Positive*%
%FSLAX46Y46*%
G04 Gerber Fmt 4.6, Leading zero omitted, Abs format (unit mm)*
G04 Created by KiCad (PCBNEW 8.0.6+dfsg-1) date 2024-12-08 15:12:26*
%MOMM*%
%LPD*%
G01*
G04 APERTURE LIST*
%ADD10R,1.500000X1.300000*%
%ADD11R,0.650000X1.528000*%
%ADD12R,1.300000X1.500000*%
%ADD13R,1.600000X1.803000*%
%ADD14R,1.525000X0.650000*%
%ADD15R,2.400000X2.400000*%
G04 APERTURE END LIST*
D10*
%TO.C,C4*%
X137716100Y-112143600D03*
X137716100Y-114043600D03*
%TD*%
%TO.C,R6*%
X123746100Y-84203600D03*
X123746100Y-86103600D03*
%TD*%
D11*
%TO.C,U2*%
X165021100Y-91674600D03*
X163751100Y-91674600D03*
X162481100Y-91674600D03*
X161211100Y-91674600D03*
X161211100Y-86252600D03*
X162481100Y-86252600D03*
X163751100Y-86252600D03*
X165021100Y-86252600D03*
%TD*%
D12*
%TO.C,C18*%
X142476100Y-94043600D03*
X140576100Y-94043600D03*
%TD*%
%TO.C,C1*%
X126606100Y-81343600D03*
X128506100Y-81343600D03*
%TD*%
%TO.C,R2*%
X134856100Y-83883600D03*
X132956100Y-83883600D03*
%TD*%
%TO.C,R11*%
X143746100Y-77533600D03*
X141846100Y-77533600D03*
%TD*%
D13*
%TO.C,R12*%
X154074100Y-129603600D03*
X156918100Y-129603600D03*
%TD*%
D12*
%TO.C,C14*%
X166606100Y-119443600D03*
X164706100Y-119443600D03*
%TD*%
%TO.C,C12*%
X162796100Y-113093600D03*
X160896100Y-113093600D03*
%TD*%
%TO.C,R10*%
X169146100Y-85153600D03*
X167246100Y-85153600D03*
%TD*%
%TO.C,R5*%
X134856100Y-81343600D03*
X132956100Y-81343600D03*
%TD*%
%TO.C,C15*%
X166606100Y-123253600D03*
X164706100Y-123253600D03*
%TD*%
D10*
%TO.C,C16*%
X132636100Y-112143600D03*
X132636100Y-114043600D03*
%TD*%
D14*
%TO.C,IC3*%
X144238100Y-81978600D03*
X144238100Y-83248600D03*
X144238100Y-84518600D03*
X144238100Y-85788600D03*
X144238100Y-87058600D03*
X144238100Y-88328600D03*
X144238100Y-89598600D03*
X144238100Y-90868600D03*
X138814100Y-90868600D03*
X138814100Y-89598600D03*
X138814100Y-88328600D03*
X138814100Y-87058600D03*
X138814100Y-85788600D03*
X138814100Y-84518600D03*
X138814100Y-83248600D03*
X138814100Y-81978600D03*
%TD*%
D10*
%TO.C,C9*%
X154226100Y-101983600D03*
X154226100Y-103883600D03*
%TD*%
D12*
%TO.C,C19*%
X142476100Y-96583600D03*
X140576100Y-96583600D03*
%TD*%
%TO.C,C7*%
X164066100Y-94043600D03*
X162166100Y-94043600D03*
%TD*%
D10*
%TO.C,C11*%
X135176100Y-118493600D03*
X135176100Y-120393600D03*
%TD*%
%TO.C,C5*%
X160576100Y-101983600D03*
X160576100Y-103883600D03*
%TD*%
%TO.C,C10*%
X150416100Y-101983600D03*
X150416100Y-103883600D03*
%TD*%
%TO.C,C6*%
X164386100Y-101983600D03*
X164386100Y-103883600D03*
%TD*%
D12*
%TO.C,R1*%
X128506100Y-83883600D03*
X126606100Y-83883600D03*
%TD*%
D15*
%TO.C,ZENER0*%
X148216100Y-109283600D03*
X152616100Y-109283600D03*
%TD*%
D10*
%TO.C,C17*%
X128826100Y-112143600D03*
X128826100Y-114043600D03*
%TD*%
D12*
%TO.C,C8*%
X164066100Y-97853600D03*
X162166100Y-97853600D03*
%TD*%
%TO.C,C13*%
X162796100Y-110553600D03*
X160896100Y-110553600D03*
%TD*%
D10*
%TO.C,C3*%
X144066100Y-107063600D03*
X144066100Y-108963600D03*
%TD*%
M02*
