%TF.GenerationSoftware,KiCad,Pcbnew,8.0.6+dfsg-1*%
%TF.CreationDate,2024-12-08T15:12:25-08:00*%
%TF.ProjectId,dc_q84 v3,64635f71-3834-4207-9633-2e6b69636164,rev?*%
%TF.SameCoordinates,Original*%
%TF.FileFunction,Copper,L3,Inr*%
%TF.FilePolarity,Positive*%
%FSLAX46Y46*%
G04 Gerber Fmt 4.6, Leading zero omitted, Abs format (unit mm)*
G04 Created by KiCad (PCBNEW 8.0.6+dfsg-1) date 2024-12-08 15:12:25*
%MOMM*%
%LPD*%
G01*
G04 APERTURE LIST*
G04 Aperture macros list*
%AMOutline5P*
0 Free polygon, 5 corners , with rotation*
0 The origin of the aperture is its center*
0 number of corners: always 5*
0 $1 to $10 corner X, Y*
0 $11 Rotation angle, in degrees counterclockwise*
0 create outline with 5 corners*
4,1,5,$1,$2,$3,$4,$5,$6,$7,$8,$9,$10,$1,$2,$11*%
%AMOutline6P*
0 Free polygon, 6 corners , with rotation*
0 The origin of the aperture is its center*
0 number of corners: always 6*
0 $1 to $12 corner X, Y*
0 $13 Rotation angle, in degrees counterclockwise*
0 create outline with 6 corners*
4,1,6,$1,$2,$3,$4,$5,$6,$7,$8,$9,$10,$11,$12,$1,$2,$13*%
%AMOutline7P*
0 Free polygon, 7 corners , with rotation*
0 The origin of the aperture is its center*
0 number of corners: always 7*
0 $1 to $14 corner X, Y*
0 $15 Rotation angle, in degrees counterclockwise*
0 create outline with 7 corners*
4,1,7,$1,$2,$3,$4,$5,$6,$7,$8,$9,$10,$11,$12,$13,$14,$1,$2,$15*%
%AMOutline8P*
0 Free polygon, 8 corners , with rotation*
0 The origin of the aperture is its center*
0 number of corners: always 8*
0 $1 to $16 corner X, Y*
0 $17 Rotation angle, in degrees counterclockwise*
0 create outline with 8 corners*
4,1,8,$1,$2,$3,$4,$5,$6,$7,$8,$9,$10,$11,$12,$13,$14,$15,$16,$1,$2,$17*%
G04 Aperture macros list end*
%TA.AperFunction,ComponentPad*%
%ADD10O,3.048000X1.524000*%
%TD*%
%TA.AperFunction,ComponentPad*%
%ADD11O,1.524000X3.048000*%
%TD*%
%TA.AperFunction,ComponentPad*%
%ADD12Outline8P,-1.079500X0.447144X-0.447144X1.079500X0.447144X1.079500X1.079500X0.447144X1.079500X-0.447144X0.447144X-1.079500X-0.447144X-1.079500X-1.079500X-0.447144X0.000000*%
%TD*%
%TA.AperFunction,ComponentPad*%
%ADD13C,1.422400*%
%TD*%
%TA.AperFunction,ComponentPad*%
%ADD14C,2.184400*%
%TD*%
%TA.AperFunction,ComponentPad*%
%ADD15O,3.016000X1.508000*%
%TD*%
%TA.AperFunction,ComponentPad*%
%ADD16O,1.508000X3.016000*%
%TD*%
%TA.AperFunction,ViaPad*%
%ADD17C,0.756400*%
%TD*%
%TA.AperFunction,Conductor*%
%ADD18C,0.152400*%
%TD*%
G04 APERTURE END LIST*
D10*
%TO.N,AN1*%
%TO.C,ANALOG0*%
X119936100Y-127063600D03*
%TO.N,AN2*%
X119936100Y-124523600D03*
%TO.N,VREF*%
X119936100Y-121983600D03*
%TO.N,AN4*%
X119936100Y-119443600D03*
%TO.N,AN5*%
X119936100Y-116903600D03*
%TO.N,MB_RX*%
X119936100Y-114363600D03*
%TO.N,MB_TX*%
X119936100Y-111823600D03*
%TO.N,VDD*%
X119936100Y-109283600D03*
%TO.N,VSS*%
X119936100Y-106743600D03*
%TO.N,AN0*%
X119936100Y-104203600D03*
%TD*%
D11*
%TO.N,CS*%
%TO.C,DISPLAY0*%
X128826100Y-130043869D03*
%TO.N,N/C*%
X131366100Y-130043869D03*
%TO.N,SCK1*%
X133906100Y-130043869D03*
%TO.N,SDO1*%
X136446100Y-130043869D03*
%TO.N,VSS*%
X138986100Y-130043869D03*
%TO.N,VDD*%
X141526100Y-130043869D03*
%TD*%
%TO.N,CAN_N*%
%TO.C,CANBUS0*%
X163116100Y-77533600D03*
%TO.N,VSS*%
X165656100Y-77533600D03*
%TO.N,CAN_P*%
X168196100Y-77533600D03*
%TO.N,CAN_VCC*%
X170736100Y-77533600D03*
%TD*%
D10*
%TO.N,VSS*%
%TO.C,EXT_IO0*%
X151686100Y-95313600D03*
%TO.N,RD5*%
X151686100Y-92773600D03*
%TO.N,RD7*%
X151686100Y-90233600D03*
%TO.N,RB5*%
X151686100Y-87693600D03*
%TO.N,PGC*%
X151686100Y-85153600D03*
%TO.N,PGD*%
X151686100Y-82613600D03*
%TD*%
%TO.N,DB0*%
%TO.C,DIGITAL0*%
X127556100Y-109283600D03*
%TO.N,DB1*%
X127556100Y-106743600D03*
%TO.N,CS*%
X127556100Y-104203600D03*
%TO.N,SCK1*%
X127556100Y-101663600D03*
%TO.N,SDI1*%
X127556100Y-99123600D03*
%TO.N,SDO1*%
X127556100Y-96583600D03*
%TO.N,UC_TX*%
X127556100Y-94043600D03*
%TO.N,VDD*%
X127556100Y-91503600D03*
%TO.N,VSS*%
X127556100Y-88963600D03*
%TO.N,UC_RX*%
X127556100Y-86423600D03*
%TD*%
D11*
%TO.N,VSS*%
%TO.C,R_RESET0*%
X150416100Y-77533600D03*
%TO.N,R_RESET*%
X152956100Y-77533600D03*
%TD*%
D12*
%TO.N,DERE*%
%TO.C,TP1*%
X123746100Y-130873600D03*
%TD*%
D10*
%TO.N,MCLR_SIG*%
%TO.C,ICSP0*%
X119936100Y-85153600D03*
%TO.N,VDD*%
X119936100Y-87693600D03*
%TO.N,VSS*%
X119936100Y-90233600D03*
%TO.N,PGD*%
X119936100Y-92773600D03*
%TO.N,PGC*%
X119936100Y-95313600D03*
%TO.N,N/C*%
X119936100Y-97853600D03*
%TD*%
D12*
%TO.N,CPU_CLK*%
%TO.C,TP2*%
X154226100Y-118173600D03*
%TD*%
D11*
%TO.N,VSS*%
%TO.C,MODBUS0*%
X127556100Y-77533600D03*
%TO.N,MB_B*%
X130096100Y-77533600D03*
%TO.N,MB_A*%
X132636100Y-77533600D03*
%TO.N,VSS*%
X135176100Y-77533600D03*
%TO.N,VDD*%
X137716100Y-77533600D03*
%TD*%
D13*
%TO.N,N/C*%
%TO.C,MATE0*%
X172246100Y-115873600D03*
%TO.N,V+*%
X169706100Y-116893600D03*
%TO.N,N/C*%
X172246100Y-117913600D03*
X169706100Y-118933600D03*
%TO.N,N$3*%
X172246100Y-119953600D03*
%TO.N,VSS*%
X169706100Y-120973600D03*
%TO.N,N$1*%
X172246100Y-121993600D03*
%TO.N,N/C*%
X169706100Y-123013600D03*
D14*
%TO.N,VSS*%
X169706100Y-111318600D03*
X169706100Y-127568600D03*
%TD*%
D15*
%TO.N,VREF*%
%TO.C,VREF_PWR0*%
X128826100Y-123253600D03*
%TO.N,VSS*%
X128826100Y-120713600D03*
%TD*%
D10*
%TO.N,N$2*%
%TO.C,IC2*%
X160576100Y-121983600D03*
%TO.N,VSS*%
X160576100Y-119443600D03*
%TO.N,VDD*%
X160576100Y-116903600D03*
%TD*%
D11*
%TO.N,VSS*%
%TO.C,TTL_SERIAL0*%
X166926100Y-130873600D03*
%TO.N,PC_TX2*%
X169466100Y-130873600D03*
%TO.N,PC_RX2*%
X172006100Y-130873600D03*
%TO.N,VDD*%
X174546100Y-130873600D03*
%TD*%
D16*
%TO.N,V+*%
%TO.C,UNK24VDC_PWR0*%
X160576100Y-129603600D03*
%TO.N,VSS*%
X163116100Y-129603600D03*
%TD*%
D10*
%TO.N,RELAY*%
%TO.C,MISC_IO0*%
X133906100Y-109283600D03*
%TO.N,MISC*%
X133906100Y-106743600D03*
%TO.N,RE2*%
X133906100Y-104203600D03*
%TO.N,DLED*%
X133906100Y-101663600D03*
%TO.N,RD5*%
X133906100Y-99123600D03*
%TO.N,RB5*%
X133906100Y-96583600D03*
%TO.N,RD7*%
X133906100Y-94043600D03*
%TO.N,MCLR_SIG*%
X133906100Y-91503600D03*
%TO.N,VSS*%
X133906100Y-88963600D03*
%TO.N,CLOCKO*%
X133906100Y-86423600D03*
%TD*%
D17*
%TO.N,VDD*%
X152346500Y-106235600D03*
X145564700Y-82918400D03*
X142135700Y-108674000D03*
%TO.N,VSS*%
X158036100Y-105473600D03*
X137639900Y-80022800D03*
X140256100Y-108013600D03*
X153565700Y-106616600D03*
X138986100Y-108013600D03*
X158036100Y-108013600D03*
%TO.N,VREF*%
X131239100Y-120561200D03*
%TO.N,MCLR_SIG*%
X129562700Y-85280600D03*
X148231700Y-99987200D03*
X149984300Y-109740800D03*
%TO.N,R_RESET*%
X125371700Y-82004000D03*
X134820500Y-80022800D03*
%TO.N,AN0*%
X152956100Y-111798200D03*
%TO.N,AN1*%
X151355900Y-112407800D03*
%TO.N,AN2*%
X152270300Y-112407800D03*
%TO.N,DB0*%
X140535500Y-102654200D03*
%TO.N,CS*%
X133601300Y-118808600D03*
X139087700Y-101206400D03*
%TO.N,CANRX*%
X150898700Y-105092600D03*
X160804700Y-92976800D03*
%TO.N,CANTX*%
X165224300Y-92976800D03*
X147012500Y-112407800D03*
%TO.N,CAN_P*%
X165910100Y-85128200D03*
%TO.N,CAN_VCC*%
X162481100Y-90309800D03*
%TO.N,AN4*%
X154022900Y-113322200D03*
%TO.N,AN5*%
X151279700Y-111188600D03*
%TO.N,SCK1*%
X149755700Y-100596800D03*
%TO.N,SDO1*%
X124076300Y-97853600D03*
X130019900Y-95567600D03*
%TO.N,CLOCKO*%
X156156500Y-105549800D03*
%TO.N,MISC*%
X143507300Y-115989200D03*
%TO.N,RE2*%
X140230700Y-111950600D03*
X156156500Y-104254400D03*
%TO.N,MB_RX*%
X161871500Y-101282600D03*
%TO.N,MB_TX*%
X145564700Y-86195000D03*
%TO.N,RD7*%
X137487500Y-90919400D03*
X136115900Y-102425600D03*
%TO.N,RB5*%
X131848700Y-98691800D03*
%TO.N,DERE*%
X147622100Y-90843200D03*
X144726500Y-105778400D03*
%TO.N,RLED*%
X156766100Y-110960000D03*
X145031300Y-111341000D03*
%TO.N,DLED*%
X136573100Y-101054000D03*
X156766100Y-112788800D03*
%TO.N,MB_A*%
X133906100Y-85128200D03*
%TO.N,MB_B*%
X149755700Y-85814000D03*
X175282700Y-98234600D03*
X175282700Y-92672000D03*
X129715100Y-83147000D03*
%TO.N,PC_RX2*%
X149374700Y-105016400D03*
%TO.N,PGC*%
X148307900Y-111036200D03*
%TO.N,MB_RX*%
X145564700Y-89928800D03*
%TO.N,PC_TX2*%
X149298500Y-106235600D03*
%TO.N,PGD*%
X149374700Y-111264800D03*
%TO.N,VSS*%
X132636100Y-115633600D03*
X128826100Y-115633600D03*
%TD*%
D18*
%TO.N,AN0*%
X126057500Y-110350400D02*
X151355900Y-110350400D01*
X152803700Y-111798200D02*
X152956100Y-111798200D01*
X151355900Y-110350400D02*
X152803700Y-111798200D01*
X119961500Y-104254400D02*
X126057500Y-110350400D01*
X119961500Y-104254400D02*
X119936100Y-104203600D01*
%TO.N,AN1*%
X119961500Y-127038200D02*
X119936100Y-127063600D01*
X150060500Y-112407800D02*
X151355900Y-112407800D01*
X119961500Y-127038200D02*
X135430100Y-127038200D01*
X135430100Y-127038200D02*
X150060500Y-112407800D01*
%TO.N,AN2*%
X119936100Y-124523600D02*
X137487500Y-124523600D01*
X137487500Y-124523600D02*
X150212900Y-111798200D01*
X150212900Y-111798200D02*
X151660700Y-111798200D01*
X151660700Y-111798200D02*
X152270300Y-112407800D01*
%TO.N,CANRX*%
X160804700Y-101816000D02*
X156461300Y-106159400D01*
X160804700Y-92976800D02*
X160804700Y-101816000D01*
X154708700Y-105092600D02*
X150898700Y-105092600D01*
X155775500Y-106159400D02*
X154708700Y-105092600D01*
X156461300Y-106159400D02*
X155775500Y-106159400D01*
%TO.N,AN5*%
X150365300Y-111188600D02*
X151279700Y-111188600D01*
X119936100Y-116903600D02*
X144650300Y-116903600D01*
X144650300Y-116903600D02*
X150365300Y-111188600D01*
%TO.N,SCK1*%
X136877900Y-100444400D02*
X137030300Y-100596800D01*
X137030300Y-100596800D02*
X149755700Y-100596800D01*
X128800700Y-100444400D02*
X136877900Y-100444400D01*
X127581500Y-101663600D02*
X127556100Y-101663600D01*
X127581500Y-101663600D02*
X128800700Y-100444400D01*
%TO.N,CLOCKO*%
X133906100Y-86423600D02*
X136496900Y-86423600D01*
X136496900Y-86423600D02*
X155623100Y-105549800D01*
X155623100Y-105549800D02*
X156156500Y-105549800D01*
%TO.N,DLED*%
X145488500Y-105626000D02*
X149603300Y-105626000D01*
X136573100Y-101054000D02*
X137335100Y-101816000D01*
X141678500Y-101816000D02*
X145488500Y-105626000D01*
X149603300Y-105626000D02*
X156766100Y-112788800D01*
X137335100Y-101816000D02*
X141678500Y-101816000D01*
%TO.N,PC_RX2*%
X149908100Y-105016400D02*
X149374700Y-105016400D01*
%TO.N,PC_TX2*%
X169415300Y-130848200D02*
X169466100Y-130873600D01*
%TO.N,PC_RX2*%
X160804700Y-115913000D02*
X149908100Y-105016400D01*
%TO.N,PC_TX2*%
X169415300Y-130848200D02*
X169415300Y-129400400D01*
X149298500Y-107226200D02*
X149298500Y-106235600D01*
X160957100Y-120942200D02*
X160652300Y-120942200D01*
%TO.N,PC_RX2*%
X161033300Y-115913000D02*
X160804700Y-115913000D01*
X172006100Y-130873600D02*
X172006100Y-126885800D01*
%TO.N,PC_TX2*%
X160652300Y-120942200D02*
X159585500Y-119875400D01*
X169415300Y-129400400D02*
X160957100Y-120942200D01*
X159585500Y-117513200D02*
X149298500Y-107226200D01*
X159585500Y-119875400D02*
X159585500Y-117513200D01*
%TO.N,PC_RX2*%
X172006100Y-126885800D02*
X161033300Y-115913000D01*
%TD*%
M02*
