%TF.GenerationSoftware,KiCad,Pcbnew,8.0.6+dfsg-1*%
%TF.CreationDate,2024-12-08T15:12:26-08:00*%
%TF.ProjectId,dc_q84 v3,64635f71-3834-4207-9633-2e6b69636164,rev?*%
%TF.SameCoordinates,Original*%
%TF.FileFunction,Legend,Top*%
%TF.FilePolarity,Positive*%
%FSLAX46Y46*%
G04 Gerber Fmt 4.6, Leading zero omitted, Abs format (unit mm)*
G04 Created by KiCad (PCBNEW 8.0.6+dfsg-1) date 2024-12-08 15:12:26*
%MOMM*%
%LPD*%
G01*
G04 APERTURE LIST*
%ADD10C,0.093472*%
%ADD11C,0.114300*%
%ADD12C,0.127000*%
%ADD13C,0.091440*%
%ADD14C,0.200000*%
%ADD15C,0.400000*%
%ADD16C,0.152400*%
%ADD17C,0.000000*%
%ADD18C,0.254000*%
G04 APERTURE END LIST*
D10*
X146727584Y-111093024D02*
X146727584Y-109916496D01*
X147960137Y-110980973D02*
X147904112Y-111036999D01*
X147904112Y-111036999D02*
X147736036Y-111093024D01*
X147736036Y-111093024D02*
X147623986Y-111093024D01*
X147623986Y-111093024D02*
X147455911Y-111036999D01*
X147455911Y-111036999D02*
X147343860Y-110924948D01*
X147343860Y-110924948D02*
X147287835Y-110812898D01*
X147287835Y-110812898D02*
X147231810Y-110588797D01*
X147231810Y-110588797D02*
X147231810Y-110420722D01*
X147231810Y-110420722D02*
X147287835Y-110196621D01*
X147287835Y-110196621D02*
X147343860Y-110084571D01*
X147343860Y-110084571D02*
X147455911Y-109972521D01*
X147455911Y-109972521D02*
X147623986Y-109916496D01*
X147623986Y-109916496D02*
X147736036Y-109916496D01*
X147736036Y-109916496D02*
X147904112Y-109972521D01*
X147904112Y-109972521D02*
X147960137Y-110028546D01*
X148968590Y-110308672D02*
X148968590Y-111093024D01*
X148688464Y-109860471D02*
X148408338Y-110700848D01*
X148408338Y-110700848D02*
X149136665Y-110700848D01*
D11*
X117807520Y-128038269D02*
X117807520Y-127487936D01*
X118137720Y-128148336D02*
X116982020Y-127763103D01*
X116982020Y-127763103D02*
X118137720Y-127377869D01*
X118137720Y-126992636D02*
X116982020Y-126992636D01*
X116982020Y-126992636D02*
X118137720Y-126332236D01*
X118137720Y-126332236D02*
X116982020Y-126332236D01*
X117807520Y-125836936D02*
X117807520Y-125286603D01*
X118137720Y-125947003D02*
X116982020Y-125561770D01*
X116982020Y-125561770D02*
X118137720Y-125176536D01*
X118137720Y-124240970D02*
X118137720Y-124791303D01*
X118137720Y-124791303D02*
X116982020Y-124791303D01*
X116982020Y-123635603D02*
X116982020Y-123415469D01*
X116982020Y-123415469D02*
X117037053Y-123305403D01*
X117037053Y-123305403D02*
X117147120Y-123195336D01*
X117147120Y-123195336D02*
X117367253Y-123140303D01*
X117367253Y-123140303D02*
X117752487Y-123140303D01*
X117752487Y-123140303D02*
X117972620Y-123195336D01*
X117972620Y-123195336D02*
X118082687Y-123305403D01*
X118082687Y-123305403D02*
X118137720Y-123415469D01*
X118137720Y-123415469D02*
X118137720Y-123635603D01*
X118137720Y-123635603D02*
X118082687Y-123745669D01*
X118082687Y-123745669D02*
X117972620Y-123855736D01*
X117972620Y-123855736D02*
X117752487Y-123910769D01*
X117752487Y-123910769D02*
X117367253Y-123910769D01*
X117367253Y-123910769D02*
X117147120Y-123855736D01*
X117147120Y-123855736D02*
X117037053Y-123745669D01*
X117037053Y-123745669D02*
X116982020Y-123635603D01*
X117037053Y-122039636D02*
X116982020Y-122149703D01*
X116982020Y-122149703D02*
X116982020Y-122314803D01*
X116982020Y-122314803D02*
X117037053Y-122479903D01*
X117037053Y-122479903D02*
X117147120Y-122589970D01*
X117147120Y-122589970D02*
X117257187Y-122645003D01*
X117257187Y-122645003D02*
X117477320Y-122700036D01*
X117477320Y-122700036D02*
X117642420Y-122700036D01*
X117642420Y-122700036D02*
X117862553Y-122645003D01*
X117862553Y-122645003D02*
X117972620Y-122589970D01*
X117972620Y-122589970D02*
X118082687Y-122479903D01*
X118082687Y-122479903D02*
X118137720Y-122314803D01*
X118137720Y-122314803D02*
X118137720Y-122204736D01*
X118137720Y-122204736D02*
X118082687Y-122039636D01*
X118082687Y-122039636D02*
X118027653Y-121984603D01*
X118027653Y-121984603D02*
X117642420Y-121984603D01*
X117642420Y-121984603D02*
X117642420Y-122204736D01*
X116982020Y-121269170D02*
X116982020Y-121159103D01*
X116982020Y-121159103D02*
X117037053Y-121049036D01*
X117037053Y-121049036D02*
X117092087Y-120994003D01*
X117092087Y-120994003D02*
X117202153Y-120938970D01*
X117202153Y-120938970D02*
X117422287Y-120883936D01*
X117422287Y-120883936D02*
X117697453Y-120883936D01*
X117697453Y-120883936D02*
X117917587Y-120938970D01*
X117917587Y-120938970D02*
X118027653Y-120994003D01*
X118027653Y-120994003D02*
X118082687Y-121049036D01*
X118082687Y-121049036D02*
X118137720Y-121159103D01*
X118137720Y-121159103D02*
X118137720Y-121269170D01*
X118137720Y-121269170D02*
X118082687Y-121379236D01*
X118082687Y-121379236D02*
X118027653Y-121434270D01*
X118027653Y-121434270D02*
X117917587Y-121489303D01*
X117917587Y-121489303D02*
X117697453Y-121544336D01*
X117697453Y-121544336D02*
X117422287Y-121544336D01*
X117422287Y-121544336D02*
X117202153Y-121489303D01*
X117202153Y-121489303D02*
X117092087Y-121434270D01*
X117092087Y-121434270D02*
X117037053Y-121379236D01*
X117037053Y-121379236D02*
X116982020Y-121269170D01*
D12*
X122710614Y-126617190D02*
X122710614Y-127270333D01*
X122710614Y-126943762D02*
X121567614Y-126943762D01*
X121567614Y-126943762D02*
X121730900Y-127052619D01*
X121730900Y-127052619D02*
X121839757Y-127161476D01*
X121839757Y-127161476D02*
X121894186Y-127270333D01*
X118138614Y-103884190D02*
X118138614Y-104537333D01*
X118138614Y-104210762D02*
X116995614Y-104210762D01*
X116995614Y-104210762D02*
X117158900Y-104319619D01*
X117158900Y-104319619D02*
X117267757Y-104428476D01*
X117267757Y-104428476D02*
X117322186Y-104537333D01*
X116995614Y-103176619D02*
X116995614Y-103067762D01*
X116995614Y-103067762D02*
X117050043Y-102958905D01*
X117050043Y-102958905D02*
X117104471Y-102904477D01*
X117104471Y-102904477D02*
X117213328Y-102850048D01*
X117213328Y-102850048D02*
X117431043Y-102795619D01*
X117431043Y-102795619D02*
X117703186Y-102795619D01*
X117703186Y-102795619D02*
X117920900Y-102850048D01*
X117920900Y-102850048D02*
X118029757Y-102904477D01*
X118029757Y-102904477D02*
X118084186Y-102958905D01*
X118084186Y-102958905D02*
X118138614Y-103067762D01*
X118138614Y-103067762D02*
X118138614Y-103176619D01*
X118138614Y-103176619D02*
X118084186Y-103285477D01*
X118084186Y-103285477D02*
X118029757Y-103339905D01*
X118029757Y-103339905D02*
X117920900Y-103394334D01*
X117920900Y-103394334D02*
X117703186Y-103448762D01*
X117703186Y-103448762D02*
X117431043Y-103448762D01*
X117431043Y-103448762D02*
X117213328Y-103394334D01*
X117213328Y-103394334D02*
X117104471Y-103339905D01*
X117104471Y-103339905D02*
X117050043Y-103285477D01*
X117050043Y-103285477D02*
X116995614Y-103176619D01*
D11*
X127906463Y-128245489D02*
X127906463Y-127089789D01*
X127906463Y-127089789D02*
X128181630Y-127089789D01*
X128181630Y-127089789D02*
X128346730Y-127144822D01*
X128346730Y-127144822D02*
X128456797Y-127254889D01*
X128456797Y-127254889D02*
X128511830Y-127364956D01*
X128511830Y-127364956D02*
X128566863Y-127585089D01*
X128566863Y-127585089D02*
X128566863Y-127750189D01*
X128566863Y-127750189D02*
X128511830Y-127970322D01*
X128511830Y-127970322D02*
X128456797Y-128080389D01*
X128456797Y-128080389D02*
X128346730Y-128190456D01*
X128346730Y-128190456D02*
X128181630Y-128245489D01*
X128181630Y-128245489D02*
X127906463Y-128245489D01*
X129062163Y-128245489D02*
X129062163Y-127089789D01*
X129557463Y-128190456D02*
X129722563Y-128245489D01*
X129722563Y-128245489D02*
X129997730Y-128245489D01*
X129997730Y-128245489D02*
X130107796Y-128190456D01*
X130107796Y-128190456D02*
X130162830Y-128135422D01*
X130162830Y-128135422D02*
X130217863Y-128025356D01*
X130217863Y-128025356D02*
X130217863Y-127915289D01*
X130217863Y-127915289D02*
X130162830Y-127805222D01*
X130162830Y-127805222D02*
X130107796Y-127750189D01*
X130107796Y-127750189D02*
X129997730Y-127695156D01*
X129997730Y-127695156D02*
X129777596Y-127640122D01*
X129777596Y-127640122D02*
X129667530Y-127585089D01*
X129667530Y-127585089D02*
X129612496Y-127530056D01*
X129612496Y-127530056D02*
X129557463Y-127419989D01*
X129557463Y-127419989D02*
X129557463Y-127309922D01*
X129557463Y-127309922D02*
X129612496Y-127199856D01*
X129612496Y-127199856D02*
X129667530Y-127144822D01*
X129667530Y-127144822D02*
X129777596Y-127089789D01*
X129777596Y-127089789D02*
X130052763Y-127089789D01*
X130052763Y-127089789D02*
X130217863Y-127144822D01*
X130713163Y-128245489D02*
X130713163Y-127089789D01*
X130713163Y-127089789D02*
X131153430Y-127089789D01*
X131153430Y-127089789D02*
X131263497Y-127144822D01*
X131263497Y-127144822D02*
X131318530Y-127199856D01*
X131318530Y-127199856D02*
X131373563Y-127309922D01*
X131373563Y-127309922D02*
X131373563Y-127475022D01*
X131373563Y-127475022D02*
X131318530Y-127585089D01*
X131318530Y-127585089D02*
X131263497Y-127640122D01*
X131263497Y-127640122D02*
X131153430Y-127695156D01*
X131153430Y-127695156D02*
X130713163Y-127695156D01*
X132419197Y-128245489D02*
X131868863Y-128245489D01*
X131868863Y-128245489D02*
X131868863Y-127089789D01*
X132749397Y-127915289D02*
X133299730Y-127915289D01*
X132639330Y-128245489D02*
X133024564Y-127089789D01*
X133024564Y-127089789D02*
X133409797Y-128245489D01*
X134015164Y-127695156D02*
X134015164Y-128245489D01*
X133629930Y-127089789D02*
X134015164Y-127695156D01*
X134015164Y-127695156D02*
X134400397Y-127089789D01*
X135005764Y-127089789D02*
X135115830Y-127089789D01*
X135115830Y-127089789D02*
X135225897Y-127144822D01*
X135225897Y-127144822D02*
X135280930Y-127199856D01*
X135280930Y-127199856D02*
X135335964Y-127309922D01*
X135335964Y-127309922D02*
X135390997Y-127530056D01*
X135390997Y-127530056D02*
X135390997Y-127805222D01*
X135390997Y-127805222D02*
X135335964Y-128025356D01*
X135335964Y-128025356D02*
X135280930Y-128135422D01*
X135280930Y-128135422D02*
X135225897Y-128190456D01*
X135225897Y-128190456D02*
X135115830Y-128245489D01*
X135115830Y-128245489D02*
X135005764Y-128245489D01*
X135005764Y-128245489D02*
X134895697Y-128190456D01*
X134895697Y-128190456D02*
X134840664Y-128135422D01*
X134840664Y-128135422D02*
X134785630Y-128025356D01*
X134785630Y-128025356D02*
X134730597Y-127805222D01*
X134730597Y-127805222D02*
X134730597Y-127530056D01*
X134730597Y-127530056D02*
X134785630Y-127309922D01*
X134785630Y-127309922D02*
X134840664Y-127199856D01*
X134840664Y-127199856D02*
X134895697Y-127144822D01*
X134895697Y-127144822D02*
X135005764Y-127089789D01*
D12*
X129145509Y-132818383D02*
X128492366Y-132818383D01*
X128818937Y-132818383D02*
X128818937Y-131675383D01*
X128818937Y-131675383D02*
X128710080Y-131838669D01*
X128710080Y-131838669D02*
X128601223Y-131947526D01*
X128601223Y-131947526D02*
X128492366Y-132001955D01*
X141736652Y-127103383D02*
X141518937Y-127103383D01*
X141518937Y-127103383D02*
X141410080Y-127157812D01*
X141410080Y-127157812D02*
X141355652Y-127212240D01*
X141355652Y-127212240D02*
X141246794Y-127375526D01*
X141246794Y-127375526D02*
X141192366Y-127593240D01*
X141192366Y-127593240D02*
X141192366Y-128028669D01*
X141192366Y-128028669D02*
X141246794Y-128137526D01*
X141246794Y-128137526D02*
X141301223Y-128191955D01*
X141301223Y-128191955D02*
X141410080Y-128246383D01*
X141410080Y-128246383D02*
X141627794Y-128246383D01*
X141627794Y-128246383D02*
X141736652Y-128191955D01*
X141736652Y-128191955D02*
X141791080Y-128137526D01*
X141791080Y-128137526D02*
X141845509Y-128028669D01*
X141845509Y-128028669D02*
X141845509Y-127756526D01*
X141845509Y-127756526D02*
X141791080Y-127647669D01*
X141791080Y-127647669D02*
X141736652Y-127593240D01*
X141736652Y-127593240D02*
X141627794Y-127538812D01*
X141627794Y-127538812D02*
X141410080Y-127538812D01*
X141410080Y-127538812D02*
X141301223Y-127593240D01*
X141301223Y-127593240D02*
X141246794Y-127647669D01*
X141246794Y-127647669D02*
X141192366Y-127756526D01*
D11*
X173630697Y-99767853D02*
X173795797Y-99822887D01*
X173795797Y-99822887D02*
X173850830Y-99877920D01*
X173850830Y-99877920D02*
X173905863Y-99987987D01*
X173905863Y-99987987D02*
X173905863Y-100153087D01*
X173905863Y-100153087D02*
X173850830Y-100263153D01*
X173850830Y-100263153D02*
X173795797Y-100318187D01*
X173795797Y-100318187D02*
X173685730Y-100373220D01*
X173685730Y-100373220D02*
X173245463Y-100373220D01*
X173245463Y-100373220D02*
X173245463Y-99217520D01*
X173245463Y-99217520D02*
X173630697Y-99217520D01*
X173630697Y-99217520D02*
X173740763Y-99272553D01*
X173740763Y-99272553D02*
X173795797Y-99327587D01*
X173795797Y-99327587D02*
X173850830Y-99437653D01*
X173850830Y-99437653D02*
X173850830Y-99547720D01*
X173850830Y-99547720D02*
X173795797Y-99657787D01*
X173795797Y-99657787D02*
X173740763Y-99712820D01*
X173740763Y-99712820D02*
X173630697Y-99767853D01*
X173630697Y-99767853D02*
X173245463Y-99767853D01*
X174401163Y-99932953D02*
X175281697Y-99932953D01*
X174841430Y-100373220D02*
X174841430Y-99492687D01*
X176052164Y-99217520D02*
X176162230Y-99217520D01*
X176162230Y-99217520D02*
X176272297Y-99272553D01*
X176272297Y-99272553D02*
X176327330Y-99327587D01*
X176327330Y-99327587D02*
X176382364Y-99437653D01*
X176382364Y-99437653D02*
X176437397Y-99657787D01*
X176437397Y-99657787D02*
X176437397Y-99932953D01*
X176437397Y-99932953D02*
X176382364Y-100153087D01*
X176382364Y-100153087D02*
X176327330Y-100263153D01*
X176327330Y-100263153D02*
X176272297Y-100318187D01*
X176272297Y-100318187D02*
X176162230Y-100373220D01*
X176162230Y-100373220D02*
X176052164Y-100373220D01*
X176052164Y-100373220D02*
X175942097Y-100318187D01*
X175942097Y-100318187D02*
X175887064Y-100263153D01*
X175887064Y-100263153D02*
X175832030Y-100153087D01*
X175832030Y-100153087D02*
X175776997Y-99932953D01*
X175776997Y-99932953D02*
X175776997Y-99657787D01*
X175776997Y-99657787D02*
X175832030Y-99437653D01*
X175832030Y-99437653D02*
X175887064Y-99327587D01*
X175887064Y-99327587D02*
X175942097Y-99272553D01*
X175942097Y-99272553D02*
X176052164Y-99217520D01*
X165396863Y-80705153D02*
X165341830Y-80760187D01*
X165341830Y-80760187D02*
X165176730Y-80815220D01*
X165176730Y-80815220D02*
X165066663Y-80815220D01*
X165066663Y-80815220D02*
X164901563Y-80760187D01*
X164901563Y-80760187D02*
X164791497Y-80650120D01*
X164791497Y-80650120D02*
X164736463Y-80540053D01*
X164736463Y-80540053D02*
X164681430Y-80319920D01*
X164681430Y-80319920D02*
X164681430Y-80154820D01*
X164681430Y-80154820D02*
X164736463Y-79934687D01*
X164736463Y-79934687D02*
X164791497Y-79824620D01*
X164791497Y-79824620D02*
X164901563Y-79714553D01*
X164901563Y-79714553D02*
X165066663Y-79659520D01*
X165066663Y-79659520D02*
X165176730Y-79659520D01*
X165176730Y-79659520D02*
X165341830Y-79714553D01*
X165341830Y-79714553D02*
X165396863Y-79769587D01*
X165837130Y-80485020D02*
X166387463Y-80485020D01*
X165727063Y-80815220D02*
X166112297Y-79659520D01*
X166112297Y-79659520D02*
X166497530Y-80815220D01*
X166882763Y-80815220D02*
X166882763Y-79659520D01*
X166882763Y-79659520D02*
X167543163Y-80815220D01*
X167543163Y-80815220D02*
X167543163Y-79659520D01*
X168478730Y-80209853D02*
X168643830Y-80264887D01*
X168643830Y-80264887D02*
X168698863Y-80319920D01*
X168698863Y-80319920D02*
X168753896Y-80429987D01*
X168753896Y-80429987D02*
X168753896Y-80595087D01*
X168753896Y-80595087D02*
X168698863Y-80705153D01*
X168698863Y-80705153D02*
X168643830Y-80760187D01*
X168643830Y-80760187D02*
X168533763Y-80815220D01*
X168533763Y-80815220D02*
X168093496Y-80815220D01*
X168093496Y-80815220D02*
X168093496Y-79659520D01*
X168093496Y-79659520D02*
X168478730Y-79659520D01*
X168478730Y-79659520D02*
X168588796Y-79714553D01*
X168588796Y-79714553D02*
X168643830Y-79769587D01*
X168643830Y-79769587D02*
X168698863Y-79879653D01*
X168698863Y-79879653D02*
X168698863Y-79989720D01*
X168698863Y-79989720D02*
X168643830Y-80099787D01*
X168643830Y-80099787D02*
X168588796Y-80154820D01*
X168588796Y-80154820D02*
X168478730Y-80209853D01*
X168478730Y-80209853D02*
X168093496Y-80209853D01*
X169249196Y-79659520D02*
X169249196Y-80595087D01*
X169249196Y-80595087D02*
X169304230Y-80705153D01*
X169304230Y-80705153D02*
X169359263Y-80760187D01*
X169359263Y-80760187D02*
X169469330Y-80815220D01*
X169469330Y-80815220D02*
X169689463Y-80815220D01*
X169689463Y-80815220D02*
X169799530Y-80760187D01*
X169799530Y-80760187D02*
X169854563Y-80705153D01*
X169854563Y-80705153D02*
X169909596Y-80595087D01*
X169909596Y-80595087D02*
X169909596Y-79659520D01*
X170404896Y-80760187D02*
X170569996Y-80815220D01*
X170569996Y-80815220D02*
X170845163Y-80815220D01*
X170845163Y-80815220D02*
X170955229Y-80760187D01*
X170955229Y-80760187D02*
X171010263Y-80705153D01*
X171010263Y-80705153D02*
X171065296Y-80595087D01*
X171065296Y-80595087D02*
X171065296Y-80485020D01*
X171065296Y-80485020D02*
X171010263Y-80374953D01*
X171010263Y-80374953D02*
X170955229Y-80319920D01*
X170955229Y-80319920D02*
X170845163Y-80264887D01*
X170845163Y-80264887D02*
X170625029Y-80209853D01*
X170625029Y-80209853D02*
X170514963Y-80154820D01*
X170514963Y-80154820D02*
X170459929Y-80099787D01*
X170459929Y-80099787D02*
X170404896Y-79989720D01*
X170404896Y-79989720D02*
X170404896Y-79879653D01*
X170404896Y-79879653D02*
X170459929Y-79769587D01*
X170459929Y-79769587D02*
X170514963Y-79714553D01*
X170514963Y-79714553D02*
X170625029Y-79659520D01*
X170625029Y-79659520D02*
X170900196Y-79659520D01*
X170900196Y-79659520D02*
X171065296Y-79714553D01*
X171780730Y-79659520D02*
X171890796Y-79659520D01*
X171890796Y-79659520D02*
X172000863Y-79714553D01*
X172000863Y-79714553D02*
X172055896Y-79769587D01*
X172055896Y-79769587D02*
X172110930Y-79879653D01*
X172110930Y-79879653D02*
X172165963Y-80099787D01*
X172165963Y-80099787D02*
X172165963Y-80374953D01*
X172165963Y-80374953D02*
X172110930Y-80595087D01*
X172110930Y-80595087D02*
X172055896Y-80705153D01*
X172055896Y-80705153D02*
X172000863Y-80760187D01*
X172000863Y-80760187D02*
X171890796Y-80815220D01*
X171890796Y-80815220D02*
X171780730Y-80815220D01*
X171780730Y-80815220D02*
X171670663Y-80760187D01*
X171670663Y-80760187D02*
X171615630Y-80705153D01*
X171615630Y-80705153D02*
X171560596Y-80595087D01*
X171560596Y-80595087D02*
X171505563Y-80374953D01*
X171505563Y-80374953D02*
X171505563Y-80099787D01*
X171505563Y-80099787D02*
X171560596Y-79879653D01*
X171560596Y-79879653D02*
X171615630Y-79769587D01*
X171615630Y-79769587D02*
X171670663Y-79714553D01*
X171670663Y-79714553D02*
X171780730Y-79659520D01*
D12*
X173105652Y-77260114D02*
X173105652Y-78022114D01*
X172833509Y-76824686D02*
X172561366Y-77641114D01*
X172561366Y-77641114D02*
X173268937Y-77641114D01*
X161657509Y-78022114D02*
X161004366Y-78022114D01*
X161330937Y-78022114D02*
X161330937Y-76879114D01*
X161330937Y-76879114D02*
X161222080Y-77042400D01*
X161222080Y-77042400D02*
X161113223Y-77151257D01*
X161113223Y-77151257D02*
X161004366Y-77205686D01*
D11*
X148012353Y-91153236D02*
X148012353Y-90768003D01*
X148617720Y-90602903D02*
X148617720Y-91153236D01*
X148617720Y-91153236D02*
X147462020Y-91153236D01*
X147462020Y-91153236D02*
X147462020Y-90602903D01*
X147462020Y-90217670D02*
X148617720Y-89447203D01*
X147462020Y-89447203D02*
X148617720Y-90217670D01*
X147462020Y-89172036D02*
X147462020Y-88511636D01*
X148617720Y-88841836D02*
X147462020Y-88841836D01*
X148727787Y-88401570D02*
X148727787Y-87521036D01*
X148617720Y-87245870D02*
X147462020Y-87245870D01*
X147462020Y-86475404D02*
X147462020Y-86255270D01*
X147462020Y-86255270D02*
X147517053Y-86145204D01*
X147517053Y-86145204D02*
X147627120Y-86035137D01*
X147627120Y-86035137D02*
X147847253Y-85980104D01*
X147847253Y-85980104D02*
X148232487Y-85980104D01*
X148232487Y-85980104D02*
X148452620Y-86035137D01*
X148452620Y-86035137D02*
X148562687Y-86145204D01*
X148562687Y-86145204D02*
X148617720Y-86255270D01*
X148617720Y-86255270D02*
X148617720Y-86475404D01*
X148617720Y-86475404D02*
X148562687Y-86585470D01*
X148562687Y-86585470D02*
X148452620Y-86695537D01*
X148452620Y-86695537D02*
X148232487Y-86750570D01*
X148232487Y-86750570D02*
X147847253Y-86750570D01*
X147847253Y-86750570D02*
X147627120Y-86695537D01*
X147627120Y-86695537D02*
X147517053Y-86585470D01*
X147517053Y-86585470D02*
X147462020Y-86475404D01*
X147462020Y-85264671D02*
X147462020Y-85154604D01*
X147462020Y-85154604D02*
X147517053Y-85044537D01*
X147517053Y-85044537D02*
X147572087Y-84989504D01*
X147572087Y-84989504D02*
X147682153Y-84934471D01*
X147682153Y-84934471D02*
X147902287Y-84879437D01*
X147902287Y-84879437D02*
X148177453Y-84879437D01*
X148177453Y-84879437D02*
X148397587Y-84934471D01*
X148397587Y-84934471D02*
X148507653Y-84989504D01*
X148507653Y-84989504D02*
X148562687Y-85044537D01*
X148562687Y-85044537D02*
X148617720Y-85154604D01*
X148617720Y-85154604D02*
X148617720Y-85264671D01*
X148617720Y-85264671D02*
X148562687Y-85374737D01*
X148562687Y-85374737D02*
X148507653Y-85429771D01*
X148507653Y-85429771D02*
X148397587Y-85484804D01*
X148397587Y-85484804D02*
X148177453Y-85539837D01*
X148177453Y-85539837D02*
X147902287Y-85539837D01*
X147902287Y-85539837D02*
X147682153Y-85484804D01*
X147682153Y-85484804D02*
X147572087Y-85429771D01*
X147572087Y-85429771D02*
X147517053Y-85374737D01*
X147517053Y-85374737D02*
X147462020Y-85264671D01*
D12*
X154460614Y-94994190D02*
X154460614Y-95647333D01*
X154460614Y-95320762D02*
X153317614Y-95320762D01*
X153317614Y-95320762D02*
X153480900Y-95429619D01*
X153480900Y-95429619D02*
X153589757Y-95538476D01*
X153589757Y-95538476D02*
X153644186Y-95647333D01*
X148745614Y-82403048D02*
X148745614Y-82620762D01*
X148745614Y-82620762D02*
X148800043Y-82729619D01*
X148800043Y-82729619D02*
X148854471Y-82784048D01*
X148854471Y-82784048D02*
X149017757Y-82892905D01*
X149017757Y-82892905D02*
X149235471Y-82947333D01*
X149235471Y-82947333D02*
X149670900Y-82947333D01*
X149670900Y-82947333D02*
X149779757Y-82892905D01*
X149779757Y-82892905D02*
X149834186Y-82838476D01*
X149834186Y-82838476D02*
X149888614Y-82729619D01*
X149888614Y-82729619D02*
X149888614Y-82511905D01*
X149888614Y-82511905D02*
X149834186Y-82403048D01*
X149834186Y-82403048D02*
X149779757Y-82348619D01*
X149779757Y-82348619D02*
X149670900Y-82294190D01*
X149670900Y-82294190D02*
X149398757Y-82294190D01*
X149398757Y-82294190D02*
X149289900Y-82348619D01*
X149289900Y-82348619D02*
X149235471Y-82403048D01*
X149235471Y-82403048D02*
X149181043Y-82511905D01*
X149181043Y-82511905D02*
X149181043Y-82729619D01*
X149181043Y-82729619D02*
X149235471Y-82838476D01*
X149235471Y-82838476D02*
X149289900Y-82892905D01*
X149289900Y-82892905D02*
X149398757Y-82947333D01*
D11*
X173190430Y-92423020D02*
X173740763Y-92423020D01*
X173080363Y-92753220D02*
X173465597Y-91597520D01*
X173465597Y-91597520D02*
X173850830Y-92753220D01*
X174236063Y-92312953D02*
X175116597Y-92312953D01*
X176272297Y-92753220D02*
X175611897Y-92753220D01*
X175942097Y-92753220D02*
X175942097Y-91597520D01*
X175942097Y-91597520D02*
X175832030Y-91762620D01*
X175832030Y-91762620D02*
X175721964Y-91872687D01*
X175721964Y-91872687D02*
X175611897Y-91927720D01*
D10*
X163073792Y-108784697D02*
X162513540Y-109176873D01*
X163073792Y-109456999D02*
X161897264Y-109456999D01*
X161897264Y-109456999D02*
X161897264Y-109008798D01*
X161897264Y-109008798D02*
X161953289Y-108896747D01*
X161953289Y-108896747D02*
X162009314Y-108840722D01*
X162009314Y-108840722D02*
X162121364Y-108784697D01*
X162121364Y-108784697D02*
X162289440Y-108784697D01*
X162289440Y-108784697D02*
X162401490Y-108840722D01*
X162401490Y-108840722D02*
X162457515Y-108896747D01*
X162457515Y-108896747D02*
X162513540Y-109008798D01*
X162513540Y-109008798D02*
X162513540Y-109456999D01*
X161897264Y-108392521D02*
X161897264Y-107608169D01*
X161897264Y-107608169D02*
X163073792Y-108112395D01*
D11*
X120565863Y-76243220D02*
X120180630Y-75692887D01*
X119905463Y-76243220D02*
X119905463Y-75087520D01*
X119905463Y-75087520D02*
X120345730Y-75087520D01*
X120345730Y-75087520D02*
X120455797Y-75142553D01*
X120455797Y-75142553D02*
X120510830Y-75197587D01*
X120510830Y-75197587D02*
X120565863Y-75307653D01*
X120565863Y-75307653D02*
X120565863Y-75472753D01*
X120565863Y-75472753D02*
X120510830Y-75582820D01*
X120510830Y-75582820D02*
X120455797Y-75637853D01*
X120455797Y-75637853D02*
X120345730Y-75692887D01*
X120345730Y-75692887D02*
X119905463Y-75692887D01*
X121061163Y-75637853D02*
X121446397Y-75637853D01*
X121611497Y-76243220D02*
X121061163Y-76243220D01*
X121061163Y-76243220D02*
X121061163Y-75087520D01*
X121061163Y-75087520D02*
X121611497Y-75087520D01*
X122051763Y-76188187D02*
X122216863Y-76243220D01*
X122216863Y-76243220D02*
X122492030Y-76243220D01*
X122492030Y-76243220D02*
X122602096Y-76188187D01*
X122602096Y-76188187D02*
X122657130Y-76133153D01*
X122657130Y-76133153D02*
X122712163Y-76023087D01*
X122712163Y-76023087D02*
X122712163Y-75913020D01*
X122712163Y-75913020D02*
X122657130Y-75802953D01*
X122657130Y-75802953D02*
X122602096Y-75747920D01*
X122602096Y-75747920D02*
X122492030Y-75692887D01*
X122492030Y-75692887D02*
X122271896Y-75637853D01*
X122271896Y-75637853D02*
X122161830Y-75582820D01*
X122161830Y-75582820D02*
X122106796Y-75527787D01*
X122106796Y-75527787D02*
X122051763Y-75417720D01*
X122051763Y-75417720D02*
X122051763Y-75307653D01*
X122051763Y-75307653D02*
X122106796Y-75197587D01*
X122106796Y-75197587D02*
X122161830Y-75142553D01*
X122161830Y-75142553D02*
X122271896Y-75087520D01*
X122271896Y-75087520D02*
X122547063Y-75087520D01*
X122547063Y-75087520D02*
X122712163Y-75142553D01*
X123207463Y-75637853D02*
X123592697Y-75637853D01*
X123757797Y-76243220D02*
X123207463Y-76243220D01*
X123207463Y-76243220D02*
X123207463Y-75087520D01*
X123207463Y-75087520D02*
X123757797Y-75087520D01*
X124087996Y-75087520D02*
X124748396Y-75087520D01*
X124418196Y-76243220D02*
X124418196Y-75087520D01*
X125353763Y-75087520D02*
X125463829Y-75087520D01*
X125463829Y-75087520D02*
X125573896Y-75142553D01*
X125573896Y-75142553D02*
X125628929Y-75197587D01*
X125628929Y-75197587D02*
X125683963Y-75307653D01*
X125683963Y-75307653D02*
X125738996Y-75527787D01*
X125738996Y-75527787D02*
X125738996Y-75802953D01*
X125738996Y-75802953D02*
X125683963Y-76023087D01*
X125683963Y-76023087D02*
X125628929Y-76133153D01*
X125628929Y-76133153D02*
X125573896Y-76188187D01*
X125573896Y-76188187D02*
X125463829Y-76243220D01*
X125463829Y-76243220D02*
X125353763Y-76243220D01*
X125353763Y-76243220D02*
X125243696Y-76188187D01*
X125243696Y-76188187D02*
X125188663Y-76133153D01*
X125188663Y-76133153D02*
X125133629Y-76023087D01*
X125133629Y-76023087D02*
X125078596Y-75802953D01*
X125078596Y-75802953D02*
X125078596Y-75527787D01*
X125078596Y-75527787D02*
X125133629Y-75307653D01*
X125133629Y-75307653D02*
X125188663Y-75197587D01*
X125188663Y-75197587D02*
X125243696Y-75142553D01*
X125243696Y-75142553D02*
X125353763Y-75087520D01*
D10*
X168153792Y-108784697D02*
X167593540Y-109176873D01*
X168153792Y-109456999D02*
X166977264Y-109456999D01*
X166977264Y-109456999D02*
X166977264Y-109008798D01*
X166977264Y-109008798D02*
X167033289Y-108896747D01*
X167033289Y-108896747D02*
X167089314Y-108840722D01*
X167089314Y-108840722D02*
X167201364Y-108784697D01*
X167201364Y-108784697D02*
X167369440Y-108784697D01*
X167369440Y-108784697D02*
X167481490Y-108840722D01*
X167481490Y-108840722D02*
X167537515Y-108896747D01*
X167537515Y-108896747D02*
X167593540Y-109008798D01*
X167593540Y-109008798D02*
X167593540Y-109456999D01*
X168153792Y-108224446D02*
X168153792Y-108000345D01*
X168153792Y-108000345D02*
X168097767Y-107888295D01*
X168097767Y-107888295D02*
X168041741Y-107832270D01*
X168041741Y-107832270D02*
X167873666Y-107720219D01*
X167873666Y-107720219D02*
X167649565Y-107664194D01*
X167649565Y-107664194D02*
X167201364Y-107664194D01*
X167201364Y-107664194D02*
X167089314Y-107720219D01*
X167089314Y-107720219D02*
X167033289Y-107776245D01*
X167033289Y-107776245D02*
X166977264Y-107888295D01*
X166977264Y-107888295D02*
X166977264Y-108112395D01*
X166977264Y-108112395D02*
X167033289Y-108224446D01*
X167033289Y-108224446D02*
X167089314Y-108280471D01*
X167089314Y-108280471D02*
X167201364Y-108336496D01*
X167201364Y-108336496D02*
X167481490Y-108336496D01*
X167481490Y-108336496D02*
X167593540Y-108280471D01*
X167593540Y-108280471D02*
X167649565Y-108224446D01*
X167649565Y-108224446D02*
X167705591Y-108112395D01*
X167705591Y-108112395D02*
X167705591Y-107888295D01*
X167705591Y-107888295D02*
X167649565Y-107776245D01*
X167649565Y-107776245D02*
X167593540Y-107720219D01*
X167593540Y-107720219D02*
X167481490Y-107664194D01*
D11*
X125757720Y-110203236D02*
X124602020Y-110203236D01*
X124602020Y-110203236D02*
X124602020Y-109928069D01*
X124602020Y-109928069D02*
X124657053Y-109762969D01*
X124657053Y-109762969D02*
X124767120Y-109652903D01*
X124767120Y-109652903D02*
X124877187Y-109597869D01*
X124877187Y-109597869D02*
X125097320Y-109542836D01*
X125097320Y-109542836D02*
X125262420Y-109542836D01*
X125262420Y-109542836D02*
X125482553Y-109597869D01*
X125482553Y-109597869D02*
X125592620Y-109652903D01*
X125592620Y-109652903D02*
X125702687Y-109762969D01*
X125702687Y-109762969D02*
X125757720Y-109928069D01*
X125757720Y-109928069D02*
X125757720Y-110203236D01*
X125757720Y-109047536D02*
X124602020Y-109047536D01*
X124657053Y-107891836D02*
X124602020Y-108001903D01*
X124602020Y-108001903D02*
X124602020Y-108167003D01*
X124602020Y-108167003D02*
X124657053Y-108332103D01*
X124657053Y-108332103D02*
X124767120Y-108442170D01*
X124767120Y-108442170D02*
X124877187Y-108497203D01*
X124877187Y-108497203D02*
X125097320Y-108552236D01*
X125097320Y-108552236D02*
X125262420Y-108552236D01*
X125262420Y-108552236D02*
X125482553Y-108497203D01*
X125482553Y-108497203D02*
X125592620Y-108442170D01*
X125592620Y-108442170D02*
X125702687Y-108332103D01*
X125702687Y-108332103D02*
X125757720Y-108167003D01*
X125757720Y-108167003D02*
X125757720Y-108056936D01*
X125757720Y-108056936D02*
X125702687Y-107891836D01*
X125702687Y-107891836D02*
X125647653Y-107836803D01*
X125647653Y-107836803D02*
X125262420Y-107836803D01*
X125262420Y-107836803D02*
X125262420Y-108056936D01*
X125757720Y-107341503D02*
X124602020Y-107341503D01*
X124602020Y-106956270D02*
X124602020Y-106295870D01*
X125757720Y-106626070D02*
X124602020Y-106626070D01*
X125427520Y-105965670D02*
X125427520Y-105415337D01*
X125757720Y-106075737D02*
X124602020Y-105690504D01*
X124602020Y-105690504D02*
X125757720Y-105305270D01*
X125757720Y-104369704D02*
X125757720Y-104920037D01*
X125757720Y-104920037D02*
X124602020Y-104920037D01*
X124602020Y-103764337D02*
X124602020Y-103654270D01*
X124602020Y-103654270D02*
X124657053Y-103544203D01*
X124657053Y-103544203D02*
X124712087Y-103489170D01*
X124712087Y-103489170D02*
X124822153Y-103434137D01*
X124822153Y-103434137D02*
X125042287Y-103379103D01*
X125042287Y-103379103D02*
X125317453Y-103379103D01*
X125317453Y-103379103D02*
X125537587Y-103434137D01*
X125537587Y-103434137D02*
X125647653Y-103489170D01*
X125647653Y-103489170D02*
X125702687Y-103544203D01*
X125702687Y-103544203D02*
X125757720Y-103654270D01*
X125757720Y-103654270D02*
X125757720Y-103764337D01*
X125757720Y-103764337D02*
X125702687Y-103874403D01*
X125702687Y-103874403D02*
X125647653Y-103929437D01*
X125647653Y-103929437D02*
X125537587Y-103984470D01*
X125537587Y-103984470D02*
X125317453Y-104039503D01*
X125317453Y-104039503D02*
X125042287Y-104039503D01*
X125042287Y-104039503D02*
X124822153Y-103984470D01*
X124822153Y-103984470D02*
X124712087Y-103929437D01*
X124712087Y-103929437D02*
X124657053Y-103874403D01*
X124657053Y-103874403D02*
X124602020Y-103764337D01*
D12*
X130330614Y-108837190D02*
X130330614Y-109490333D01*
X130330614Y-109163762D02*
X129187614Y-109163762D01*
X129187614Y-109163762D02*
X129350900Y-109272619D01*
X129350900Y-109272619D02*
X129459757Y-109381476D01*
X129459757Y-109381476D02*
X129514186Y-109490333D01*
X125758614Y-86104190D02*
X125758614Y-86757333D01*
X125758614Y-86430762D02*
X124615614Y-86430762D01*
X124615614Y-86430762D02*
X124778900Y-86539619D01*
X124778900Y-86539619D02*
X124887757Y-86648476D01*
X124887757Y-86648476D02*
X124942186Y-86757333D01*
X124615614Y-85396619D02*
X124615614Y-85287762D01*
X124615614Y-85287762D02*
X124670043Y-85178905D01*
X124670043Y-85178905D02*
X124724471Y-85124477D01*
X124724471Y-85124477D02*
X124833328Y-85070048D01*
X124833328Y-85070048D02*
X125051043Y-85015619D01*
X125051043Y-85015619D02*
X125323186Y-85015619D01*
X125323186Y-85015619D02*
X125540900Y-85070048D01*
X125540900Y-85070048D02*
X125649757Y-85124477D01*
X125649757Y-85124477D02*
X125704186Y-85178905D01*
X125704186Y-85178905D02*
X125758614Y-85287762D01*
X125758614Y-85287762D02*
X125758614Y-85396619D01*
X125758614Y-85396619D02*
X125704186Y-85505477D01*
X125704186Y-85505477D02*
X125649757Y-85559905D01*
X125649757Y-85559905D02*
X125540900Y-85614334D01*
X125540900Y-85614334D02*
X125323186Y-85668762D01*
X125323186Y-85668762D02*
X125051043Y-85668762D01*
X125051043Y-85668762D02*
X124833328Y-85614334D01*
X124833328Y-85614334D02*
X124724471Y-85559905D01*
X124724471Y-85559905D02*
X124670043Y-85505477D01*
X124670043Y-85505477D02*
X124615614Y-85396619D01*
D11*
X150080663Y-75557420D02*
X149695430Y-75007087D01*
X149420263Y-75557420D02*
X149420263Y-74401720D01*
X149420263Y-74401720D02*
X149860530Y-74401720D01*
X149860530Y-74401720D02*
X149970597Y-74456753D01*
X149970597Y-74456753D02*
X150025630Y-74511787D01*
X150025630Y-74511787D02*
X150080663Y-74621853D01*
X150080663Y-74621853D02*
X150080663Y-74786953D01*
X150080663Y-74786953D02*
X150025630Y-74897020D01*
X150025630Y-74897020D02*
X149970597Y-74952053D01*
X149970597Y-74952053D02*
X149860530Y-75007087D01*
X149860530Y-75007087D02*
X149420263Y-75007087D01*
X150300797Y-75667487D02*
X151181330Y-75667487D01*
X152116896Y-75557420D02*
X151731663Y-75007087D01*
X151456496Y-75557420D02*
X151456496Y-74401720D01*
X151456496Y-74401720D02*
X151896763Y-74401720D01*
X151896763Y-74401720D02*
X152006830Y-74456753D01*
X152006830Y-74456753D02*
X152061863Y-74511787D01*
X152061863Y-74511787D02*
X152116896Y-74621853D01*
X152116896Y-74621853D02*
X152116896Y-74786953D01*
X152116896Y-74786953D02*
X152061863Y-74897020D01*
X152061863Y-74897020D02*
X152006830Y-74952053D01*
X152006830Y-74952053D02*
X151896763Y-75007087D01*
X151896763Y-75007087D02*
X151456496Y-75007087D01*
X152612196Y-74952053D02*
X152997430Y-74952053D01*
X153162530Y-75557420D02*
X152612196Y-75557420D01*
X152612196Y-75557420D02*
X152612196Y-74401720D01*
X152612196Y-74401720D02*
X153162530Y-74401720D01*
X153602796Y-75502387D02*
X153767896Y-75557420D01*
X153767896Y-75557420D02*
X154043063Y-75557420D01*
X154043063Y-75557420D02*
X154153129Y-75502387D01*
X154153129Y-75502387D02*
X154208163Y-75447353D01*
X154208163Y-75447353D02*
X154263196Y-75337287D01*
X154263196Y-75337287D02*
X154263196Y-75227220D01*
X154263196Y-75227220D02*
X154208163Y-75117153D01*
X154208163Y-75117153D02*
X154153129Y-75062120D01*
X154153129Y-75062120D02*
X154043063Y-75007087D01*
X154043063Y-75007087D02*
X153822929Y-74952053D01*
X153822929Y-74952053D02*
X153712863Y-74897020D01*
X153712863Y-74897020D02*
X153657829Y-74841987D01*
X153657829Y-74841987D02*
X153602796Y-74731920D01*
X153602796Y-74731920D02*
X153602796Y-74621853D01*
X153602796Y-74621853D02*
X153657829Y-74511787D01*
X153657829Y-74511787D02*
X153712863Y-74456753D01*
X153712863Y-74456753D02*
X153822929Y-74401720D01*
X153822929Y-74401720D02*
X154098096Y-74401720D01*
X154098096Y-74401720D02*
X154263196Y-74456753D01*
X154758496Y-74952053D02*
X155143730Y-74952053D01*
X155308830Y-75557420D02*
X154758496Y-75557420D01*
X154758496Y-75557420D02*
X154758496Y-74401720D01*
X154758496Y-74401720D02*
X155308830Y-74401720D01*
X155639029Y-74401720D02*
X156299429Y-74401720D01*
X155969229Y-75557420D02*
X155969229Y-74401720D01*
X156904796Y-74401720D02*
X157014862Y-74401720D01*
X157014862Y-74401720D02*
X157124929Y-74456753D01*
X157124929Y-74456753D02*
X157179962Y-74511787D01*
X157179962Y-74511787D02*
X157234996Y-74621853D01*
X157234996Y-74621853D02*
X157290029Y-74841987D01*
X157290029Y-74841987D02*
X157290029Y-75117153D01*
X157290029Y-75117153D02*
X157234996Y-75337287D01*
X157234996Y-75337287D02*
X157179962Y-75447353D01*
X157179962Y-75447353D02*
X157124929Y-75502387D01*
X157124929Y-75502387D02*
X157014862Y-75557420D01*
X157014862Y-75557420D02*
X156904796Y-75557420D01*
X156904796Y-75557420D02*
X156794729Y-75502387D01*
X156794729Y-75502387D02*
X156739696Y-75447353D01*
X156739696Y-75447353D02*
X156684662Y-75337287D01*
X156684662Y-75337287D02*
X156629629Y-75117153D01*
X156629629Y-75117153D02*
X156629629Y-74841987D01*
X156629629Y-74841987D02*
X156684662Y-74621853D01*
X156684662Y-74621853D02*
X156739696Y-74511787D01*
X156739696Y-74511787D02*
X156794729Y-74456753D01*
X156794729Y-74456753D02*
X156904796Y-74401720D01*
D10*
X159157255Y-102031728D02*
X159157255Y-102591980D01*
X159157255Y-102591980D02*
X157980727Y-102591980D01*
X158540978Y-101639553D02*
X158540978Y-101247377D01*
X159157255Y-101079301D02*
X159157255Y-101639553D01*
X159157255Y-101639553D02*
X157980727Y-101639553D01*
X157980727Y-101639553D02*
X157980727Y-101079301D01*
X159157255Y-100575075D02*
X157980727Y-100575075D01*
X157980727Y-100575075D02*
X157980727Y-100294949D01*
X157980727Y-100294949D02*
X158036752Y-100126874D01*
X158036752Y-100126874D02*
X158148802Y-100014823D01*
X158148802Y-100014823D02*
X158260852Y-99958798D01*
X158260852Y-99958798D02*
X158484953Y-99902773D01*
X158484953Y-99902773D02*
X158653028Y-99902773D01*
X158653028Y-99902773D02*
X158877129Y-99958798D01*
X158877129Y-99958798D02*
X158989179Y-100014823D01*
X158989179Y-100014823D02*
X159101230Y-100126874D01*
X159101230Y-100126874D02*
X159157255Y-100294949D01*
X159157255Y-100294949D02*
X159157255Y-100575075D01*
X159157255Y-98782270D02*
X159157255Y-99454572D01*
X159157255Y-99118421D02*
X157980727Y-99118421D01*
X157980727Y-99118421D02*
X158148802Y-99230471D01*
X158148802Y-99230471D02*
X158260852Y-99342522D01*
X158260852Y-99342522D02*
X158316878Y-99454572D01*
D11*
X121645363Y-128300520D02*
X122305763Y-128300520D01*
X121975563Y-129456220D02*
X121975563Y-128300520D01*
X122690996Y-129456220D02*
X122690996Y-128300520D01*
X122690996Y-128300520D02*
X123131263Y-128300520D01*
X123131263Y-128300520D02*
X123241330Y-128355553D01*
X123241330Y-128355553D02*
X123296363Y-128410587D01*
X123296363Y-128410587D02*
X123351396Y-128520653D01*
X123351396Y-128520653D02*
X123351396Y-128685753D01*
X123351396Y-128685753D02*
X123296363Y-128795820D01*
X123296363Y-128795820D02*
X123241330Y-128850853D01*
X123241330Y-128850853D02*
X123131263Y-128905887D01*
X123131263Y-128905887D02*
X122690996Y-128905887D01*
X124452063Y-129456220D02*
X123791663Y-129456220D01*
X124121863Y-129456220D02*
X124121863Y-128300520D01*
X124121863Y-128300520D02*
X124011796Y-128465620D01*
X124011796Y-128465620D02*
X123901730Y-128575687D01*
X123901730Y-128575687D02*
X123791663Y-128630720D01*
X122791889Y-95096697D02*
X121636189Y-95096697D01*
X122681822Y-93885964D02*
X122736856Y-93940997D01*
X122736856Y-93940997D02*
X122791889Y-94106097D01*
X122791889Y-94106097D02*
X122791889Y-94216164D01*
X122791889Y-94216164D02*
X122736856Y-94381264D01*
X122736856Y-94381264D02*
X122626789Y-94491331D01*
X122626789Y-94491331D02*
X122516722Y-94546364D01*
X122516722Y-94546364D02*
X122296589Y-94601397D01*
X122296589Y-94601397D02*
X122131489Y-94601397D01*
X122131489Y-94601397D02*
X121911356Y-94546364D01*
X121911356Y-94546364D02*
X121801289Y-94491331D01*
X121801289Y-94491331D02*
X121691222Y-94381264D01*
X121691222Y-94381264D02*
X121636189Y-94216164D01*
X121636189Y-94216164D02*
X121636189Y-94106097D01*
X121636189Y-94106097D02*
X121691222Y-93940997D01*
X121691222Y-93940997D02*
X121746256Y-93885964D01*
X122736856Y-93445697D02*
X122791889Y-93280597D01*
X122791889Y-93280597D02*
X122791889Y-93005431D01*
X122791889Y-93005431D02*
X122736856Y-92895364D01*
X122736856Y-92895364D02*
X122681822Y-92840331D01*
X122681822Y-92840331D02*
X122571756Y-92785297D01*
X122571756Y-92785297D02*
X122461689Y-92785297D01*
X122461689Y-92785297D02*
X122351622Y-92840331D01*
X122351622Y-92840331D02*
X122296589Y-92895364D01*
X122296589Y-92895364D02*
X122241556Y-93005431D01*
X122241556Y-93005431D02*
X122186522Y-93225564D01*
X122186522Y-93225564D02*
X122131489Y-93335631D01*
X122131489Y-93335631D02*
X122076456Y-93390664D01*
X122076456Y-93390664D02*
X121966389Y-93445697D01*
X121966389Y-93445697D02*
X121856322Y-93445697D01*
X121856322Y-93445697D02*
X121746256Y-93390664D01*
X121746256Y-93390664D02*
X121691222Y-93335631D01*
X121691222Y-93335631D02*
X121636189Y-93225564D01*
X121636189Y-93225564D02*
X121636189Y-92950397D01*
X121636189Y-92950397D02*
X121691222Y-92785297D01*
X122791889Y-92289997D02*
X121636189Y-92289997D01*
X121636189Y-92289997D02*
X121636189Y-91849730D01*
X121636189Y-91849730D02*
X121691222Y-91739664D01*
X121691222Y-91739664D02*
X121746256Y-91684630D01*
X121746256Y-91684630D02*
X121856322Y-91629597D01*
X121856322Y-91629597D02*
X122021422Y-91629597D01*
X122021422Y-91629597D02*
X122131489Y-91684630D01*
X122131489Y-91684630D02*
X122186522Y-91739664D01*
X122186522Y-91739664D02*
X122241556Y-91849730D01*
X122241556Y-91849730D02*
X122241556Y-92289997D01*
X121636189Y-90914164D02*
X121636189Y-90804097D01*
X121636189Y-90804097D02*
X121691222Y-90694030D01*
X121691222Y-90694030D02*
X121746256Y-90638997D01*
X121746256Y-90638997D02*
X121856322Y-90583964D01*
X121856322Y-90583964D02*
X122076456Y-90528930D01*
X122076456Y-90528930D02*
X122351622Y-90528930D01*
X122351622Y-90528930D02*
X122571756Y-90583964D01*
X122571756Y-90583964D02*
X122681822Y-90638997D01*
X122681822Y-90638997D02*
X122736856Y-90694030D01*
X122736856Y-90694030D02*
X122791889Y-90804097D01*
X122791889Y-90804097D02*
X122791889Y-90914164D01*
X122791889Y-90914164D02*
X122736856Y-91024230D01*
X122736856Y-91024230D02*
X122681822Y-91079264D01*
X122681822Y-91079264D02*
X122571756Y-91134297D01*
X122571756Y-91134297D02*
X122351622Y-91189330D01*
X122351622Y-91189330D02*
X122076456Y-91189330D01*
X122076456Y-91189330D02*
X121856322Y-91134297D01*
X121856322Y-91134297D02*
X121746256Y-91079264D01*
X121746256Y-91079264D02*
X121691222Y-91024230D01*
X121691222Y-91024230D02*
X121636189Y-90914164D01*
D12*
X117161585Y-85473009D02*
X117161585Y-84819866D01*
X117161585Y-85146437D02*
X118304585Y-85146437D01*
X118304585Y-85146437D02*
X118141299Y-85037580D01*
X118141299Y-85037580D02*
X118032442Y-84928723D01*
X118032442Y-84928723D02*
X117978014Y-84819866D01*
X122876585Y-98064152D02*
X122876585Y-97846437D01*
X122876585Y-97846437D02*
X122822156Y-97737580D01*
X122822156Y-97737580D02*
X122767728Y-97683152D01*
X122767728Y-97683152D02*
X122604442Y-97574294D01*
X122604442Y-97574294D02*
X122386728Y-97519866D01*
X122386728Y-97519866D02*
X121951299Y-97519866D01*
X121951299Y-97519866D02*
X121842442Y-97574294D01*
X121842442Y-97574294D02*
X121788014Y-97628723D01*
X121788014Y-97628723D02*
X121733585Y-97737580D01*
X121733585Y-97737580D02*
X121733585Y-97955294D01*
X121733585Y-97955294D02*
X121788014Y-98064152D01*
X121788014Y-98064152D02*
X121842442Y-98118580D01*
X121842442Y-98118580D02*
X121951299Y-98173009D01*
X121951299Y-98173009D02*
X122223442Y-98173009D01*
X122223442Y-98173009D02*
X122332299Y-98118580D01*
X122332299Y-98118580D02*
X122386728Y-98064152D01*
X122386728Y-98064152D02*
X122441156Y-97955294D01*
X122441156Y-97955294D02*
X122441156Y-97737580D01*
X122441156Y-97737580D02*
X122386728Y-97628723D01*
X122386728Y-97628723D02*
X122332299Y-97574294D01*
X122332299Y-97574294D02*
X122223442Y-97519866D01*
D10*
X134470027Y-127324780D02*
X135422454Y-127324780D01*
X135422454Y-127324780D02*
X135534504Y-127268755D01*
X135534504Y-127268755D02*
X135590530Y-127212730D01*
X135590530Y-127212730D02*
X135646555Y-127100679D01*
X135646555Y-127100679D02*
X135646555Y-126876579D01*
X135646555Y-126876579D02*
X135590530Y-126764528D01*
X135590530Y-126764528D02*
X135534504Y-126708503D01*
X135534504Y-126708503D02*
X135422454Y-126652478D01*
X135422454Y-126652478D02*
X134470027Y-126652478D01*
X135646555Y-125475950D02*
X135646555Y-126148252D01*
X135646555Y-125812101D02*
X134470027Y-125812101D01*
X134470027Y-125812101D02*
X134638102Y-125924151D01*
X134638102Y-125924151D02*
X134750152Y-126036202D01*
X134750152Y-126036202D02*
X134806178Y-126148252D01*
D11*
X154665363Y-115600520D02*
X155325763Y-115600520D01*
X154995563Y-116756220D02*
X154995563Y-115600520D01*
X155710996Y-116756220D02*
X155710996Y-115600520D01*
X155710996Y-115600520D02*
X156151263Y-115600520D01*
X156151263Y-115600520D02*
X156261330Y-115655553D01*
X156261330Y-115655553D02*
X156316363Y-115710587D01*
X156316363Y-115710587D02*
X156371396Y-115820653D01*
X156371396Y-115820653D02*
X156371396Y-115985753D01*
X156371396Y-115985753D02*
X156316363Y-116095820D01*
X156316363Y-116095820D02*
X156261330Y-116150853D01*
X156261330Y-116150853D02*
X156151263Y-116205887D01*
X156151263Y-116205887D02*
X155710996Y-116205887D01*
X156811663Y-115710587D02*
X156866696Y-115655553D01*
X156866696Y-115655553D02*
X156976763Y-115600520D01*
X156976763Y-115600520D02*
X157251930Y-115600520D01*
X157251930Y-115600520D02*
X157361996Y-115655553D01*
X157361996Y-115655553D02*
X157417030Y-115710587D01*
X157417030Y-115710587D02*
X157472063Y-115820653D01*
X157472063Y-115820653D02*
X157472063Y-115930720D01*
X157472063Y-115930720D02*
X157417030Y-116095820D01*
X157417030Y-116095820D02*
X156756630Y-116756220D01*
X156756630Y-116756220D02*
X157472063Y-116756220D01*
X129100263Y-75557420D02*
X129100263Y-74401720D01*
X129100263Y-74401720D02*
X129485497Y-75227220D01*
X129485497Y-75227220D02*
X129870730Y-74401720D01*
X129870730Y-74401720D02*
X129870730Y-75557420D01*
X130641197Y-74401720D02*
X130861330Y-74401720D01*
X130861330Y-74401720D02*
X130971397Y-74456753D01*
X130971397Y-74456753D02*
X131081463Y-74566820D01*
X131081463Y-74566820D02*
X131136497Y-74786953D01*
X131136497Y-74786953D02*
X131136497Y-75172187D01*
X131136497Y-75172187D02*
X131081463Y-75392320D01*
X131081463Y-75392320D02*
X130971397Y-75502387D01*
X130971397Y-75502387D02*
X130861330Y-75557420D01*
X130861330Y-75557420D02*
X130641197Y-75557420D01*
X130641197Y-75557420D02*
X130531130Y-75502387D01*
X130531130Y-75502387D02*
X130421063Y-75392320D01*
X130421063Y-75392320D02*
X130366030Y-75172187D01*
X130366030Y-75172187D02*
X130366030Y-74786953D01*
X130366030Y-74786953D02*
X130421063Y-74566820D01*
X130421063Y-74566820D02*
X130531130Y-74456753D01*
X130531130Y-74456753D02*
X130641197Y-74401720D01*
X131631796Y-75557420D02*
X131631796Y-74401720D01*
X131631796Y-74401720D02*
X131906963Y-74401720D01*
X131906963Y-74401720D02*
X132072063Y-74456753D01*
X132072063Y-74456753D02*
X132182130Y-74566820D01*
X132182130Y-74566820D02*
X132237163Y-74676887D01*
X132237163Y-74676887D02*
X132292196Y-74897020D01*
X132292196Y-74897020D02*
X132292196Y-75062120D01*
X132292196Y-75062120D02*
X132237163Y-75282253D01*
X132237163Y-75282253D02*
X132182130Y-75392320D01*
X132182130Y-75392320D02*
X132072063Y-75502387D01*
X132072063Y-75502387D02*
X131906963Y-75557420D01*
X131906963Y-75557420D02*
X131631796Y-75557420D01*
X133172730Y-74952053D02*
X133337830Y-75007087D01*
X133337830Y-75007087D02*
X133392863Y-75062120D01*
X133392863Y-75062120D02*
X133447896Y-75172187D01*
X133447896Y-75172187D02*
X133447896Y-75337287D01*
X133447896Y-75337287D02*
X133392863Y-75447353D01*
X133392863Y-75447353D02*
X133337830Y-75502387D01*
X133337830Y-75502387D02*
X133227763Y-75557420D01*
X133227763Y-75557420D02*
X132787496Y-75557420D01*
X132787496Y-75557420D02*
X132787496Y-74401720D01*
X132787496Y-74401720D02*
X133172730Y-74401720D01*
X133172730Y-74401720D02*
X133282796Y-74456753D01*
X133282796Y-74456753D02*
X133337830Y-74511787D01*
X133337830Y-74511787D02*
X133392863Y-74621853D01*
X133392863Y-74621853D02*
X133392863Y-74731920D01*
X133392863Y-74731920D02*
X133337830Y-74841987D01*
X133337830Y-74841987D02*
X133282796Y-74897020D01*
X133282796Y-74897020D02*
X133172730Y-74952053D01*
X133172730Y-74952053D02*
X132787496Y-74952053D01*
X133943196Y-74401720D02*
X133943196Y-75337287D01*
X133943196Y-75337287D02*
X133998230Y-75447353D01*
X133998230Y-75447353D02*
X134053263Y-75502387D01*
X134053263Y-75502387D02*
X134163330Y-75557420D01*
X134163330Y-75557420D02*
X134383463Y-75557420D01*
X134383463Y-75557420D02*
X134493530Y-75502387D01*
X134493530Y-75502387D02*
X134548563Y-75447353D01*
X134548563Y-75447353D02*
X134603596Y-75337287D01*
X134603596Y-75337287D02*
X134603596Y-74401720D01*
X135098896Y-75502387D02*
X135263996Y-75557420D01*
X135263996Y-75557420D02*
X135539163Y-75557420D01*
X135539163Y-75557420D02*
X135649229Y-75502387D01*
X135649229Y-75502387D02*
X135704263Y-75447353D01*
X135704263Y-75447353D02*
X135759296Y-75337287D01*
X135759296Y-75337287D02*
X135759296Y-75227220D01*
X135759296Y-75227220D02*
X135704263Y-75117153D01*
X135704263Y-75117153D02*
X135649229Y-75062120D01*
X135649229Y-75062120D02*
X135539163Y-75007087D01*
X135539163Y-75007087D02*
X135319029Y-74952053D01*
X135319029Y-74952053D02*
X135208963Y-74897020D01*
X135208963Y-74897020D02*
X135153929Y-74841987D01*
X135153929Y-74841987D02*
X135098896Y-74731920D01*
X135098896Y-74731920D02*
X135098896Y-74621853D01*
X135098896Y-74621853D02*
X135153929Y-74511787D01*
X135153929Y-74511787D02*
X135208963Y-74456753D01*
X135208963Y-74456753D02*
X135319029Y-74401720D01*
X135319029Y-74401720D02*
X135594196Y-74401720D01*
X135594196Y-74401720D02*
X135759296Y-74456753D01*
X136474730Y-74401720D02*
X136584796Y-74401720D01*
X136584796Y-74401720D02*
X136694863Y-74456753D01*
X136694863Y-74456753D02*
X136749896Y-74511787D01*
X136749896Y-74511787D02*
X136804930Y-74621853D01*
X136804930Y-74621853D02*
X136859963Y-74841987D01*
X136859963Y-74841987D02*
X136859963Y-75117153D01*
X136859963Y-75117153D02*
X136804930Y-75337287D01*
X136804930Y-75337287D02*
X136749896Y-75447353D01*
X136749896Y-75447353D02*
X136694863Y-75502387D01*
X136694863Y-75502387D02*
X136584796Y-75557420D01*
X136584796Y-75557420D02*
X136474730Y-75557420D01*
X136474730Y-75557420D02*
X136364663Y-75502387D01*
X136364663Y-75502387D02*
X136309630Y-75447353D01*
X136309630Y-75447353D02*
X136254596Y-75337287D01*
X136254596Y-75337287D02*
X136199563Y-75117153D01*
X136199563Y-75117153D02*
X136199563Y-74841987D01*
X136199563Y-74841987D02*
X136254596Y-74621853D01*
X136254596Y-74621853D02*
X136309630Y-74511787D01*
X136309630Y-74511787D02*
X136364663Y-74456753D01*
X136364663Y-74456753D02*
X136474730Y-74401720D01*
D10*
X166121792Y-116531407D02*
X164945264Y-116531407D01*
X164945264Y-116531407D02*
X165785641Y-116139231D01*
X165785641Y-116139231D02*
X164945264Y-115747055D01*
X164945264Y-115747055D02*
X166121792Y-115747055D01*
X165785641Y-115242829D02*
X165785641Y-114682578D01*
X166121792Y-115354879D02*
X164945264Y-114962703D01*
X164945264Y-114962703D02*
X166121792Y-114570527D01*
X164945264Y-114346426D02*
X164945264Y-113674125D01*
X166121792Y-114010275D02*
X164945264Y-114010275D01*
X165505515Y-113281949D02*
X165505515Y-112889773D01*
X166121792Y-112721697D02*
X166121792Y-113281949D01*
X166121792Y-113281949D02*
X164945264Y-113281949D01*
X164945264Y-113281949D02*
X164945264Y-112721697D01*
X164945264Y-111993370D02*
X164945264Y-111881320D01*
X164945264Y-111881320D02*
X165001289Y-111769270D01*
X165001289Y-111769270D02*
X165057314Y-111713245D01*
X165057314Y-111713245D02*
X165169364Y-111657219D01*
X165169364Y-111657219D02*
X165393465Y-111601194D01*
X165393465Y-111601194D02*
X165673591Y-111601194D01*
X165673591Y-111601194D02*
X165897691Y-111657219D01*
X165897691Y-111657219D02*
X166009741Y-111713245D01*
X166009741Y-111713245D02*
X166065767Y-111769270D01*
X166065767Y-111769270D02*
X166121792Y-111881320D01*
X166121792Y-111881320D02*
X166121792Y-111993370D01*
X166121792Y-111993370D02*
X166065767Y-112105421D01*
X166065767Y-112105421D02*
X166009741Y-112161446D01*
X166009741Y-112161446D02*
X165897691Y-112217471D01*
X165897691Y-112217471D02*
X165673591Y-112273496D01*
X165673591Y-112273496D02*
X165393465Y-112273496D01*
X165393465Y-112273496D02*
X165169364Y-112217471D01*
X165169364Y-112217471D02*
X165057314Y-112161446D01*
X165057314Y-112161446D02*
X165001289Y-112105421D01*
X165001289Y-112105421D02*
X164945264Y-111993370D01*
D13*
X123785371Y-127252450D02*
X124709931Y-126944264D01*
X124709931Y-126944264D02*
X123785371Y-126636077D01*
X124709931Y-125799570D02*
X124269665Y-126107757D01*
X124709931Y-126327890D02*
X123785371Y-126327890D01*
X123785371Y-126327890D02*
X123785371Y-125975677D01*
X123785371Y-125975677D02*
X123829398Y-125887624D01*
X123829398Y-125887624D02*
X123873425Y-125843597D01*
X123873425Y-125843597D02*
X123961478Y-125799570D01*
X123961478Y-125799570D02*
X124093558Y-125799570D01*
X124093558Y-125799570D02*
X124181611Y-125843597D01*
X124181611Y-125843597D02*
X124225638Y-125887624D01*
X124225638Y-125887624D02*
X124269665Y-125975677D01*
X124269665Y-125975677D02*
X124269665Y-126327890D01*
X124225638Y-125403330D02*
X124225638Y-125095144D01*
X124709931Y-124963064D02*
X124709931Y-125403330D01*
X124709931Y-125403330D02*
X123785371Y-125403330D01*
X123785371Y-125403330D02*
X123785371Y-124963064D01*
X124225638Y-124258637D02*
X124225638Y-124566823D01*
X124709931Y-124566823D02*
X123785371Y-124566823D01*
X123785371Y-124566823D02*
X123785371Y-124126557D01*
X124797985Y-123994477D02*
X124797985Y-123290050D01*
X124709931Y-123069916D02*
X123785371Y-123069916D01*
X123785371Y-123069916D02*
X123785371Y-122717703D01*
X123785371Y-122717703D02*
X123829398Y-122629650D01*
X123829398Y-122629650D02*
X123873425Y-122585623D01*
X123873425Y-122585623D02*
X123961478Y-122541596D01*
X123961478Y-122541596D02*
X124093558Y-122541596D01*
X124093558Y-122541596D02*
X124181611Y-122585623D01*
X124181611Y-122585623D02*
X124225638Y-122629650D01*
X124225638Y-122629650D02*
X124269665Y-122717703D01*
X124269665Y-122717703D02*
X124269665Y-123069916D01*
X123785371Y-122233410D02*
X124709931Y-122013276D01*
X124709931Y-122013276D02*
X124049531Y-121837170D01*
X124049531Y-121837170D02*
X124709931Y-121661063D01*
X124709931Y-121661063D02*
X123785371Y-121440930D01*
X124709931Y-120560396D02*
X124269665Y-120868583D01*
X124709931Y-121088716D02*
X123785371Y-121088716D01*
X123785371Y-121088716D02*
X123785371Y-120736503D01*
X123785371Y-120736503D02*
X123829398Y-120648450D01*
X123829398Y-120648450D02*
X123873425Y-120604423D01*
X123873425Y-120604423D02*
X123961478Y-120560396D01*
X123961478Y-120560396D02*
X124093558Y-120560396D01*
X124093558Y-120560396D02*
X124181611Y-120604423D01*
X124181611Y-120604423D02*
X124225638Y-120648450D01*
X124225638Y-120648450D02*
X124269665Y-120736503D01*
X124269665Y-120736503D02*
X124269665Y-121088716D01*
X123785371Y-119988050D02*
X123785371Y-119899996D01*
X123785371Y-119899996D02*
X123829398Y-119811943D01*
X123829398Y-119811943D02*
X123873425Y-119767916D01*
X123873425Y-119767916D02*
X123961478Y-119723890D01*
X123961478Y-119723890D02*
X124137585Y-119679863D01*
X124137585Y-119679863D02*
X124357718Y-119679863D01*
X124357718Y-119679863D02*
X124533825Y-119723890D01*
X124533825Y-119723890D02*
X124621878Y-119767916D01*
X124621878Y-119767916D02*
X124665905Y-119811943D01*
X124665905Y-119811943D02*
X124709931Y-119899996D01*
X124709931Y-119899996D02*
X124709931Y-119988050D01*
X124709931Y-119988050D02*
X124665905Y-120076103D01*
X124665905Y-120076103D02*
X124621878Y-120120130D01*
X124621878Y-120120130D02*
X124533825Y-120164156D01*
X124533825Y-120164156D02*
X124357718Y-120208183D01*
X124357718Y-120208183D02*
X124137585Y-120208183D01*
X124137585Y-120208183D02*
X123961478Y-120164156D01*
X123961478Y-120164156D02*
X123873425Y-120120130D01*
X123873425Y-120120130D02*
X123829398Y-120076103D01*
X123829398Y-120076103D02*
X123785371Y-119988050D01*
D11*
X159175653Y-89603836D02*
X159230687Y-89658869D01*
X159230687Y-89658869D02*
X159285720Y-89823969D01*
X159285720Y-89823969D02*
X159285720Y-89934036D01*
X159285720Y-89934036D02*
X159230687Y-90099136D01*
X159230687Y-90099136D02*
X159120620Y-90209203D01*
X159120620Y-90209203D02*
X159010553Y-90264236D01*
X159010553Y-90264236D02*
X158790420Y-90319269D01*
X158790420Y-90319269D02*
X158625320Y-90319269D01*
X158625320Y-90319269D02*
X158405187Y-90264236D01*
X158405187Y-90264236D02*
X158295120Y-90209203D01*
X158295120Y-90209203D02*
X158185053Y-90099136D01*
X158185053Y-90099136D02*
X158130020Y-89934036D01*
X158130020Y-89934036D02*
X158130020Y-89823969D01*
X158130020Y-89823969D02*
X158185053Y-89658869D01*
X158185053Y-89658869D02*
X158240087Y-89603836D01*
X158955520Y-89163569D02*
X158955520Y-88613236D01*
X159285720Y-89273636D02*
X158130020Y-88888403D01*
X158130020Y-88888403D02*
X159285720Y-88503169D01*
X159285720Y-88117936D02*
X158130020Y-88117936D01*
X158130020Y-88117936D02*
X159285720Y-87457536D01*
X159285720Y-87457536D02*
X158130020Y-87457536D01*
X159395787Y-87182370D02*
X159395787Y-86301836D01*
X159285720Y-86026670D02*
X158130020Y-86026670D01*
X158130020Y-86026670D02*
X158130020Y-85586403D01*
X158130020Y-85586403D02*
X158185053Y-85476337D01*
X158185053Y-85476337D02*
X158240087Y-85421303D01*
X158240087Y-85421303D02*
X158350153Y-85366270D01*
X158350153Y-85366270D02*
X158515253Y-85366270D01*
X158515253Y-85366270D02*
X158625320Y-85421303D01*
X158625320Y-85421303D02*
X158680353Y-85476337D01*
X158680353Y-85476337D02*
X158735387Y-85586403D01*
X158735387Y-85586403D02*
X158735387Y-86026670D01*
X158130020Y-84981037D02*
X159285720Y-84705870D01*
X159285720Y-84705870D02*
X158460220Y-84485737D01*
X158460220Y-84485737D02*
X159285720Y-84265603D01*
X159285720Y-84265603D02*
X158130020Y-83990437D01*
X159285720Y-82889770D02*
X158735387Y-83275003D01*
X159285720Y-83550170D02*
X158130020Y-83550170D01*
X158130020Y-83550170D02*
X158130020Y-83109903D01*
X158130020Y-83109903D02*
X158185053Y-82999837D01*
X158185053Y-82999837D02*
X158240087Y-82944803D01*
X158240087Y-82944803D02*
X158350153Y-82889770D01*
X158350153Y-82889770D02*
X158515253Y-82889770D01*
X158515253Y-82889770D02*
X158625320Y-82944803D01*
X158625320Y-82944803D02*
X158680353Y-82999837D01*
X158680353Y-82999837D02*
X158735387Y-83109903D01*
X158735387Y-83109903D02*
X158735387Y-83550170D01*
X158130020Y-82174337D02*
X158130020Y-82064270D01*
X158130020Y-82064270D02*
X158185053Y-81954203D01*
X158185053Y-81954203D02*
X158240087Y-81899170D01*
X158240087Y-81899170D02*
X158350153Y-81844137D01*
X158350153Y-81844137D02*
X158570287Y-81789103D01*
X158570287Y-81789103D02*
X158845453Y-81789103D01*
X158845453Y-81789103D02*
X159065587Y-81844137D01*
X159065587Y-81844137D02*
X159175653Y-81899170D01*
X159175653Y-81899170D02*
X159230687Y-81954203D01*
X159230687Y-81954203D02*
X159285720Y-82064270D01*
X159285720Y-82064270D02*
X159285720Y-82174337D01*
X159285720Y-82174337D02*
X159230687Y-82284403D01*
X159230687Y-82284403D02*
X159175653Y-82339437D01*
X159175653Y-82339437D02*
X159065587Y-82394470D01*
X159065587Y-82394470D02*
X158845453Y-82449503D01*
X158845453Y-82449503D02*
X158570287Y-82449503D01*
X158570287Y-82449503D02*
X158350153Y-82394470D01*
X158350153Y-82394470D02*
X158240087Y-82339437D01*
X158240087Y-82339437D02*
X158185053Y-82284403D01*
X158185053Y-82284403D02*
X158130020Y-82174337D01*
D10*
X145181741Y-124659697D02*
X145237767Y-124715722D01*
X145237767Y-124715722D02*
X145293792Y-124883798D01*
X145293792Y-124883798D02*
X145293792Y-124995848D01*
X145293792Y-124995848D02*
X145237767Y-125163923D01*
X145237767Y-125163923D02*
X145125716Y-125275974D01*
X145125716Y-125275974D02*
X145013666Y-125331999D01*
X145013666Y-125331999D02*
X144789565Y-125388024D01*
X144789565Y-125388024D02*
X144621490Y-125388024D01*
X144621490Y-125388024D02*
X144397389Y-125331999D01*
X144397389Y-125331999D02*
X144285339Y-125275974D01*
X144285339Y-125275974D02*
X144173289Y-125163923D01*
X144173289Y-125163923D02*
X144117264Y-124995848D01*
X144117264Y-124995848D02*
X144117264Y-124883798D01*
X144117264Y-124883798D02*
X144173289Y-124715722D01*
X144173289Y-124715722D02*
X144229314Y-124659697D01*
X144229314Y-124211496D02*
X144173289Y-124155471D01*
X144173289Y-124155471D02*
X144117264Y-124043421D01*
X144117264Y-124043421D02*
X144117264Y-123763295D01*
X144117264Y-123763295D02*
X144173289Y-123651245D01*
X144173289Y-123651245D02*
X144229314Y-123595219D01*
X144229314Y-123595219D02*
X144341364Y-123539194D01*
X144341364Y-123539194D02*
X144453415Y-123539194D01*
X144453415Y-123539194D02*
X144621490Y-123595219D01*
X144621490Y-123595219D02*
X145293792Y-124267521D01*
X145293792Y-124267521D02*
X145293792Y-123539194D01*
D11*
X163933920Y-124173236D02*
X162778220Y-124173236D01*
X163823853Y-122962503D02*
X163878887Y-123017536D01*
X163878887Y-123017536D02*
X163933920Y-123182636D01*
X163933920Y-123182636D02*
X163933920Y-123292703D01*
X163933920Y-123292703D02*
X163878887Y-123457803D01*
X163878887Y-123457803D02*
X163768820Y-123567870D01*
X163768820Y-123567870D02*
X163658753Y-123622903D01*
X163658753Y-123622903D02*
X163438620Y-123677936D01*
X163438620Y-123677936D02*
X163273520Y-123677936D01*
X163273520Y-123677936D02*
X163053387Y-123622903D01*
X163053387Y-123622903D02*
X162943320Y-123567870D01*
X162943320Y-123567870D02*
X162833253Y-123457803D01*
X162833253Y-123457803D02*
X162778220Y-123292703D01*
X162778220Y-123292703D02*
X162778220Y-123182636D01*
X162778220Y-123182636D02*
X162833253Y-123017536D01*
X162833253Y-123017536D02*
X162888287Y-122962503D01*
X162888287Y-122522236D02*
X162833253Y-122467203D01*
X162833253Y-122467203D02*
X162778220Y-122357136D01*
X162778220Y-122357136D02*
X162778220Y-122081970D01*
X162778220Y-122081970D02*
X162833253Y-121971903D01*
X162833253Y-121971903D02*
X162888287Y-121916870D01*
X162888287Y-121916870D02*
X162998353Y-121861836D01*
X162998353Y-121861836D02*
X163108420Y-121861836D01*
X163108420Y-121861836D02*
X163273520Y-121916870D01*
X163273520Y-121916870D02*
X163933920Y-122577270D01*
X163933920Y-122577270D02*
X163933920Y-121861836D01*
X169380430Y-103853020D02*
X169930763Y-103853020D01*
X169270363Y-104183220D02*
X169655597Y-103027520D01*
X169655597Y-103027520D02*
X170040830Y-104183220D01*
X170426063Y-103742953D02*
X171306597Y-103742953D01*
X171856930Y-104183220D02*
X171856930Y-103027520D01*
X171856930Y-103027520D02*
X172517330Y-104183220D01*
X172517330Y-104183220D02*
X172517330Y-103027520D01*
X173287797Y-103027520D02*
X173507930Y-103027520D01*
X173507930Y-103027520D02*
X173617997Y-103082553D01*
X173617997Y-103082553D02*
X173728063Y-103192620D01*
X173728063Y-103192620D02*
X173783097Y-103412753D01*
X173783097Y-103412753D02*
X173783097Y-103797987D01*
X173783097Y-103797987D02*
X173728063Y-104018120D01*
X173728063Y-104018120D02*
X173617997Y-104128187D01*
X173617997Y-104128187D02*
X173507930Y-104183220D01*
X173507930Y-104183220D02*
X173287797Y-104183220D01*
X173287797Y-104183220D02*
X173177730Y-104128187D01*
X173177730Y-104128187D02*
X173067663Y-104018120D01*
X173067663Y-104018120D02*
X173012630Y-103797987D01*
X173012630Y-103797987D02*
X173012630Y-103412753D01*
X173012630Y-103412753D02*
X173067663Y-103192620D01*
X173067663Y-103192620D02*
X173177730Y-103082553D01*
X173177730Y-103082553D02*
X173287797Y-103027520D01*
X174938796Y-104183220D02*
X174553563Y-103632887D01*
X174278396Y-104183220D02*
X174278396Y-103027520D01*
X174278396Y-103027520D02*
X174718663Y-103027520D01*
X174718663Y-103027520D02*
X174828730Y-103082553D01*
X174828730Y-103082553D02*
X174883763Y-103137587D01*
X174883763Y-103137587D02*
X174938796Y-103247653D01*
X174938796Y-103247653D02*
X174938796Y-103412753D01*
X174938796Y-103412753D02*
X174883763Y-103522820D01*
X174883763Y-103522820D02*
X174828730Y-103577853D01*
X174828730Y-103577853D02*
X174718663Y-103632887D01*
X174718663Y-103632887D02*
X174278396Y-103632887D01*
X175434096Y-104183220D02*
X175434096Y-103027520D01*
X175434096Y-103027520D02*
X175819330Y-103853020D01*
X175819330Y-103853020D02*
X176204563Y-103027520D01*
X176204563Y-103027520D02*
X176204563Y-104183220D01*
X176975030Y-103027520D02*
X177085096Y-103027520D01*
X177085096Y-103027520D02*
X177195163Y-103082553D01*
X177195163Y-103082553D02*
X177250196Y-103137587D01*
X177250196Y-103137587D02*
X177305230Y-103247653D01*
X177305230Y-103247653D02*
X177360263Y-103467787D01*
X177360263Y-103467787D02*
X177360263Y-103742953D01*
X177360263Y-103742953D02*
X177305230Y-103963087D01*
X177305230Y-103963087D02*
X177250196Y-104073153D01*
X177250196Y-104073153D02*
X177195163Y-104128187D01*
X177195163Y-104128187D02*
X177085096Y-104183220D01*
X177085096Y-104183220D02*
X176975030Y-104183220D01*
X176975030Y-104183220D02*
X176864963Y-104128187D01*
X176864963Y-104128187D02*
X176809930Y-104073153D01*
X176809930Y-104073153D02*
X176754896Y-103963087D01*
X176754896Y-103963087D02*
X176699863Y-103742953D01*
X176699863Y-103742953D02*
X176699863Y-103467787D01*
X176699863Y-103467787D02*
X176754896Y-103247653D01*
X176754896Y-103247653D02*
X176809930Y-103137587D01*
X176809930Y-103137587D02*
X176864963Y-103082553D01*
X176864963Y-103082553D02*
X176975030Y-103027520D01*
X167111363Y-132999520D02*
X167771763Y-132999520D01*
X167441563Y-134155220D02*
X167441563Y-132999520D01*
X167991896Y-132999520D02*
X168652296Y-132999520D01*
X168322096Y-134155220D02*
X168322096Y-132999520D01*
X169587863Y-134155220D02*
X169037529Y-134155220D01*
X169037529Y-134155220D02*
X169037529Y-132999520D01*
X169697930Y-134265287D02*
X170578463Y-134265287D01*
X170798596Y-134100187D02*
X170963696Y-134155220D01*
X170963696Y-134155220D02*
X171238863Y-134155220D01*
X171238863Y-134155220D02*
X171348929Y-134100187D01*
X171348929Y-134100187D02*
X171403963Y-134045153D01*
X171403963Y-134045153D02*
X171458996Y-133935087D01*
X171458996Y-133935087D02*
X171458996Y-133825020D01*
X171458996Y-133825020D02*
X171403963Y-133714953D01*
X171403963Y-133714953D02*
X171348929Y-133659920D01*
X171348929Y-133659920D02*
X171238863Y-133604887D01*
X171238863Y-133604887D02*
X171018729Y-133549853D01*
X171018729Y-133549853D02*
X170908663Y-133494820D01*
X170908663Y-133494820D02*
X170853629Y-133439787D01*
X170853629Y-133439787D02*
X170798596Y-133329720D01*
X170798596Y-133329720D02*
X170798596Y-133219653D01*
X170798596Y-133219653D02*
X170853629Y-133109587D01*
X170853629Y-133109587D02*
X170908663Y-133054553D01*
X170908663Y-133054553D02*
X171018729Y-132999520D01*
X171018729Y-132999520D02*
X171293896Y-132999520D01*
X171293896Y-132999520D02*
X171458996Y-133054553D01*
X171954296Y-133549853D02*
X172339530Y-133549853D01*
X172504630Y-134155220D02*
X171954296Y-134155220D01*
X171954296Y-134155220D02*
X171954296Y-132999520D01*
X171954296Y-132999520D02*
X172504630Y-132999520D01*
X173660329Y-134155220D02*
X173275096Y-133604887D01*
X172999929Y-134155220D02*
X172999929Y-132999520D01*
X172999929Y-132999520D02*
X173440196Y-132999520D01*
X173440196Y-132999520D02*
X173550263Y-133054553D01*
X173550263Y-133054553D02*
X173605296Y-133109587D01*
X173605296Y-133109587D02*
X173660329Y-133219653D01*
X173660329Y-133219653D02*
X173660329Y-133384753D01*
X173660329Y-133384753D02*
X173605296Y-133494820D01*
X173605296Y-133494820D02*
X173550263Y-133549853D01*
X173550263Y-133549853D02*
X173440196Y-133604887D01*
X173440196Y-133604887D02*
X172999929Y-133604887D01*
X174155629Y-134155220D02*
X174155629Y-132999520D01*
X174650929Y-133825020D02*
X175201262Y-133825020D01*
X174540862Y-134155220D02*
X174926096Y-132999520D01*
X174926096Y-132999520D02*
X175311329Y-134155220D01*
X176246896Y-134155220D02*
X175696562Y-134155220D01*
X175696562Y-134155220D02*
X175696562Y-132999520D01*
X176852263Y-132999520D02*
X176962329Y-132999520D01*
X176962329Y-132999520D02*
X177072396Y-133054553D01*
X177072396Y-133054553D02*
X177127429Y-133109587D01*
X177127429Y-133109587D02*
X177182463Y-133219653D01*
X177182463Y-133219653D02*
X177237496Y-133439787D01*
X177237496Y-133439787D02*
X177237496Y-133714953D01*
X177237496Y-133714953D02*
X177182463Y-133935087D01*
X177182463Y-133935087D02*
X177127429Y-134045153D01*
X177127429Y-134045153D02*
X177072396Y-134100187D01*
X177072396Y-134100187D02*
X176962329Y-134155220D01*
X176962329Y-134155220D02*
X176852263Y-134155220D01*
X176852263Y-134155220D02*
X176742196Y-134100187D01*
X176742196Y-134100187D02*
X176687163Y-134045153D01*
X176687163Y-134045153D02*
X176632129Y-133935087D01*
X176632129Y-133935087D02*
X176577096Y-133714953D01*
X176577096Y-133714953D02*
X176577096Y-133439787D01*
X176577096Y-133439787D02*
X176632129Y-133219653D01*
X176632129Y-133219653D02*
X176687163Y-133109587D01*
X176687163Y-133109587D02*
X176742196Y-133054553D01*
X176742196Y-133054553D02*
X176852263Y-132999520D01*
D12*
X176915652Y-130600114D02*
X176915652Y-131362114D01*
X176643509Y-130164686D02*
X176371366Y-130981114D01*
X176371366Y-130981114D02*
X177078937Y-130981114D01*
X165467509Y-131362114D02*
X164814366Y-131362114D01*
X165140937Y-131362114D02*
X165140937Y-130219114D01*
X165140937Y-130219114D02*
X165032080Y-130382400D01*
X165032080Y-130382400D02*
X164923223Y-130491257D01*
X164923223Y-130491257D02*
X164814366Y-130545686D01*
D13*
X150696390Y-131101136D02*
X150696390Y-131849590D01*
X150696390Y-131849590D02*
X150740417Y-131937643D01*
X150740417Y-131937643D02*
X150784443Y-131981670D01*
X150784443Y-131981670D02*
X150872497Y-132025696D01*
X150872497Y-132025696D02*
X151048603Y-132025696D01*
X151048603Y-132025696D02*
X151136657Y-131981670D01*
X151136657Y-131981670D02*
X151180683Y-131937643D01*
X151180683Y-131937643D02*
X151224710Y-131849590D01*
X151224710Y-131849590D02*
X151224710Y-131101136D01*
X151664977Y-132025696D02*
X151664977Y-131101136D01*
X151664977Y-131101136D02*
X152193297Y-132025696D01*
X152193297Y-132025696D02*
X152193297Y-131101136D01*
X152633564Y-132025696D02*
X152633564Y-131101136D01*
X153161884Y-132025696D02*
X152765644Y-131497376D01*
X153161884Y-131101136D02*
X152633564Y-131629456D01*
X153514097Y-131189190D02*
X153558124Y-131145163D01*
X153558124Y-131145163D02*
X153646177Y-131101136D01*
X153646177Y-131101136D02*
X153866311Y-131101136D01*
X153866311Y-131101136D02*
X153954364Y-131145163D01*
X153954364Y-131145163D02*
X153998391Y-131189190D01*
X153998391Y-131189190D02*
X154042417Y-131277243D01*
X154042417Y-131277243D02*
X154042417Y-131365296D01*
X154042417Y-131365296D02*
X153998391Y-131497376D01*
X153998391Y-131497376D02*
X153470071Y-132025696D01*
X153470071Y-132025696D02*
X154042417Y-132025696D01*
X154834897Y-131409323D02*
X154834897Y-132025696D01*
X154614764Y-131057110D02*
X154394630Y-131717510D01*
X154394630Y-131717510D02*
X154966977Y-131717510D01*
X155187110Y-131101136D02*
X155495297Y-132025696D01*
X155495297Y-132025696D02*
X155803483Y-131101136D01*
X156111670Y-132025696D02*
X156111670Y-131101136D01*
X156111670Y-131101136D02*
X156331803Y-131101136D01*
X156331803Y-131101136D02*
X156463883Y-131145163D01*
X156463883Y-131145163D02*
X156551937Y-131233216D01*
X156551937Y-131233216D02*
X156595963Y-131321270D01*
X156595963Y-131321270D02*
X156639990Y-131497376D01*
X156639990Y-131497376D02*
X156639990Y-131629456D01*
X156639990Y-131629456D02*
X156595963Y-131805563D01*
X156595963Y-131805563D02*
X156551937Y-131893616D01*
X156551937Y-131893616D02*
X156463883Y-131981670D01*
X156463883Y-131981670D02*
X156331803Y-132025696D01*
X156331803Y-132025696D02*
X156111670Y-132025696D01*
X157564550Y-131937643D02*
X157520523Y-131981670D01*
X157520523Y-131981670D02*
X157388443Y-132025696D01*
X157388443Y-132025696D02*
X157300390Y-132025696D01*
X157300390Y-132025696D02*
X157168310Y-131981670D01*
X157168310Y-131981670D02*
X157080257Y-131893616D01*
X157080257Y-131893616D02*
X157036230Y-131805563D01*
X157036230Y-131805563D02*
X156992203Y-131629456D01*
X156992203Y-131629456D02*
X156992203Y-131497376D01*
X156992203Y-131497376D02*
X157036230Y-131321270D01*
X157036230Y-131321270D02*
X157080257Y-131233216D01*
X157080257Y-131233216D02*
X157168310Y-131145163D01*
X157168310Y-131145163D02*
X157300390Y-131101136D01*
X157300390Y-131101136D02*
X157388443Y-131101136D01*
X157388443Y-131101136D02*
X157520523Y-131145163D01*
X157520523Y-131145163D02*
X157564550Y-131189190D01*
X157740657Y-132113750D02*
X158445083Y-132113750D01*
X158665217Y-132025696D02*
X158665217Y-131101136D01*
X158665217Y-131101136D02*
X159017430Y-131101136D01*
X159017430Y-131101136D02*
X159105484Y-131145163D01*
X159105484Y-131145163D02*
X159149510Y-131189190D01*
X159149510Y-131189190D02*
X159193537Y-131277243D01*
X159193537Y-131277243D02*
X159193537Y-131409323D01*
X159193537Y-131409323D02*
X159149510Y-131497376D01*
X159149510Y-131497376D02*
X159105484Y-131541403D01*
X159105484Y-131541403D02*
X159017430Y-131585430D01*
X159017430Y-131585430D02*
X158665217Y-131585430D01*
X159501724Y-131101136D02*
X159721857Y-132025696D01*
X159721857Y-132025696D02*
X159897964Y-131365296D01*
X159897964Y-131365296D02*
X160074070Y-132025696D01*
X160074070Y-132025696D02*
X160294204Y-131101136D01*
X161174737Y-132025696D02*
X160866550Y-131585430D01*
X160646417Y-132025696D02*
X160646417Y-131101136D01*
X160646417Y-131101136D02*
X160998630Y-131101136D01*
X160998630Y-131101136D02*
X161086684Y-131145163D01*
X161086684Y-131145163D02*
X161130710Y-131189190D01*
X161130710Y-131189190D02*
X161174737Y-131277243D01*
X161174737Y-131277243D02*
X161174737Y-131409323D01*
X161174737Y-131409323D02*
X161130710Y-131497376D01*
X161130710Y-131497376D02*
X161086684Y-131541403D01*
X161086684Y-131541403D02*
X160998630Y-131585430D01*
X160998630Y-131585430D02*
X160646417Y-131585430D01*
X161747084Y-131101136D02*
X161835137Y-131101136D01*
X161835137Y-131101136D02*
X161923190Y-131145163D01*
X161923190Y-131145163D02*
X161967217Y-131189190D01*
X161967217Y-131189190D02*
X162011244Y-131277243D01*
X162011244Y-131277243D02*
X162055270Y-131453350D01*
X162055270Y-131453350D02*
X162055270Y-131673483D01*
X162055270Y-131673483D02*
X162011244Y-131849590D01*
X162011244Y-131849590D02*
X161967217Y-131937643D01*
X161967217Y-131937643D02*
X161923190Y-131981670D01*
X161923190Y-131981670D02*
X161835137Y-132025696D01*
X161835137Y-132025696D02*
X161747084Y-132025696D01*
X161747084Y-132025696D02*
X161659030Y-131981670D01*
X161659030Y-131981670D02*
X161615004Y-131937643D01*
X161615004Y-131937643D02*
X161570977Y-131849590D01*
X161570977Y-131849590D02*
X161526950Y-131673483D01*
X161526950Y-131673483D02*
X161526950Y-131453350D01*
X161526950Y-131453350D02*
X161570977Y-131277243D01*
X161570977Y-131277243D02*
X161615004Y-131189190D01*
X161615004Y-131189190D02*
X161659030Y-131145163D01*
X161659030Y-131145163D02*
X161747084Y-131101136D01*
D11*
X132107720Y-110203236D02*
X130952020Y-110203236D01*
X130952020Y-110203236D02*
X131777520Y-109818003D01*
X131777520Y-109818003D02*
X130952020Y-109432769D01*
X130952020Y-109432769D02*
X132107720Y-109432769D01*
X132107720Y-108882436D02*
X130952020Y-108882436D01*
X132052687Y-108387136D02*
X132107720Y-108222036D01*
X132107720Y-108222036D02*
X132107720Y-107946870D01*
X132107720Y-107946870D02*
X132052687Y-107836803D01*
X132052687Y-107836803D02*
X131997653Y-107781770D01*
X131997653Y-107781770D02*
X131887587Y-107726736D01*
X131887587Y-107726736D02*
X131777520Y-107726736D01*
X131777520Y-107726736D02*
X131667453Y-107781770D01*
X131667453Y-107781770D02*
X131612420Y-107836803D01*
X131612420Y-107836803D02*
X131557387Y-107946870D01*
X131557387Y-107946870D02*
X131502353Y-108167003D01*
X131502353Y-108167003D02*
X131447320Y-108277070D01*
X131447320Y-108277070D02*
X131392287Y-108332103D01*
X131392287Y-108332103D02*
X131282220Y-108387136D01*
X131282220Y-108387136D02*
X131172153Y-108387136D01*
X131172153Y-108387136D02*
X131062087Y-108332103D01*
X131062087Y-108332103D02*
X131007053Y-108277070D01*
X131007053Y-108277070D02*
X130952020Y-108167003D01*
X130952020Y-108167003D02*
X130952020Y-107891836D01*
X130952020Y-107891836D02*
X131007053Y-107726736D01*
X131997653Y-106571036D02*
X132052687Y-106626069D01*
X132052687Y-106626069D02*
X132107720Y-106791169D01*
X132107720Y-106791169D02*
X132107720Y-106901236D01*
X132107720Y-106901236D02*
X132052687Y-107066336D01*
X132052687Y-107066336D02*
X131942620Y-107176403D01*
X131942620Y-107176403D02*
X131832553Y-107231436D01*
X131832553Y-107231436D02*
X131612420Y-107286469D01*
X131612420Y-107286469D02*
X131447320Y-107286469D01*
X131447320Y-107286469D02*
X131227187Y-107231436D01*
X131227187Y-107231436D02*
X131117120Y-107176403D01*
X131117120Y-107176403D02*
X131007053Y-107066336D01*
X131007053Y-107066336D02*
X130952020Y-106901236D01*
X130952020Y-106901236D02*
X130952020Y-106791169D01*
X130952020Y-106791169D02*
X131007053Y-106626069D01*
X131007053Y-106626069D02*
X131062087Y-106571036D01*
X132217787Y-106350903D02*
X132217787Y-105470369D01*
X132107720Y-105195203D02*
X130952020Y-105195203D01*
X130952020Y-104424737D02*
X130952020Y-104204603D01*
X130952020Y-104204603D02*
X131007053Y-104094537D01*
X131007053Y-104094537D02*
X131117120Y-103984470D01*
X131117120Y-103984470D02*
X131337253Y-103929437D01*
X131337253Y-103929437D02*
X131722487Y-103929437D01*
X131722487Y-103929437D02*
X131942620Y-103984470D01*
X131942620Y-103984470D02*
X132052687Y-104094537D01*
X132052687Y-104094537D02*
X132107720Y-104204603D01*
X132107720Y-104204603D02*
X132107720Y-104424737D01*
X132107720Y-104424737D02*
X132052687Y-104534803D01*
X132052687Y-104534803D02*
X131942620Y-104644870D01*
X131942620Y-104644870D02*
X131722487Y-104699903D01*
X131722487Y-104699903D02*
X131337253Y-104699903D01*
X131337253Y-104699903D02*
X131117120Y-104644870D01*
X131117120Y-104644870D02*
X131007053Y-104534803D01*
X131007053Y-104534803D02*
X130952020Y-104424737D01*
X130952020Y-103214004D02*
X130952020Y-103103937D01*
X130952020Y-103103937D02*
X131007053Y-102993870D01*
X131007053Y-102993870D02*
X131062087Y-102938837D01*
X131062087Y-102938837D02*
X131172153Y-102883804D01*
X131172153Y-102883804D02*
X131392287Y-102828770D01*
X131392287Y-102828770D02*
X131667453Y-102828770D01*
X131667453Y-102828770D02*
X131887587Y-102883804D01*
X131887587Y-102883804D02*
X131997653Y-102938837D01*
X131997653Y-102938837D02*
X132052687Y-102993870D01*
X132052687Y-102993870D02*
X132107720Y-103103937D01*
X132107720Y-103103937D02*
X132107720Y-103214004D01*
X132107720Y-103214004D02*
X132052687Y-103324070D01*
X132052687Y-103324070D02*
X131997653Y-103379104D01*
X131997653Y-103379104D02*
X131887587Y-103434137D01*
X131887587Y-103434137D02*
X131667453Y-103489170D01*
X131667453Y-103489170D02*
X131392287Y-103489170D01*
X131392287Y-103489170D02*
X131172153Y-103434137D01*
X131172153Y-103434137D02*
X131062087Y-103379104D01*
X131062087Y-103379104D02*
X131007053Y-103324070D01*
X131007053Y-103324070D02*
X130952020Y-103214004D01*
D12*
X132108614Y-86104190D02*
X132108614Y-86757333D01*
X132108614Y-86430762D02*
X130965614Y-86430762D01*
X130965614Y-86430762D02*
X131128900Y-86539619D01*
X131128900Y-86539619D02*
X131237757Y-86648476D01*
X131237757Y-86648476D02*
X131292186Y-86757333D01*
X130965614Y-85396619D02*
X130965614Y-85287762D01*
X130965614Y-85287762D02*
X131020043Y-85178905D01*
X131020043Y-85178905D02*
X131074471Y-85124477D01*
X131074471Y-85124477D02*
X131183328Y-85070048D01*
X131183328Y-85070048D02*
X131401043Y-85015619D01*
X131401043Y-85015619D02*
X131673186Y-85015619D01*
X131673186Y-85015619D02*
X131890900Y-85070048D01*
X131890900Y-85070048D02*
X131999757Y-85124477D01*
X131999757Y-85124477D02*
X132054186Y-85178905D01*
X132054186Y-85178905D02*
X132108614Y-85287762D01*
X132108614Y-85287762D02*
X132108614Y-85396619D01*
X132108614Y-85396619D02*
X132054186Y-85505477D01*
X132054186Y-85505477D02*
X131999757Y-85559905D01*
X131999757Y-85559905D02*
X131890900Y-85614334D01*
X131890900Y-85614334D02*
X131673186Y-85668762D01*
X131673186Y-85668762D02*
X131401043Y-85668762D01*
X131401043Y-85668762D02*
X131183328Y-85614334D01*
X131183328Y-85614334D02*
X131074471Y-85559905D01*
X131074471Y-85559905D02*
X131020043Y-85505477D01*
X131020043Y-85505477D02*
X130965614Y-85396619D01*
X136680614Y-108837190D02*
X136680614Y-109490333D01*
X136680614Y-109163762D02*
X135537614Y-109163762D01*
X135537614Y-109163762D02*
X135700900Y-109272619D01*
X135700900Y-109272619D02*
X135809757Y-109381476D01*
X135809757Y-109381476D02*
X135864186Y-109490333D01*
D11*
X169820697Y-88337853D02*
X169985797Y-88392887D01*
X169985797Y-88392887D02*
X170040830Y-88447920D01*
X170040830Y-88447920D02*
X170095863Y-88557987D01*
X170095863Y-88557987D02*
X170095863Y-88723087D01*
X170095863Y-88723087D02*
X170040830Y-88833153D01*
X170040830Y-88833153D02*
X169985797Y-88888187D01*
X169985797Y-88888187D02*
X169875730Y-88943220D01*
X169875730Y-88943220D02*
X169435463Y-88943220D01*
X169435463Y-88943220D02*
X169435463Y-87787520D01*
X169435463Y-87787520D02*
X169820697Y-87787520D01*
X169820697Y-87787520D02*
X169930763Y-87842553D01*
X169930763Y-87842553D02*
X169985797Y-87897587D01*
X169985797Y-87897587D02*
X170040830Y-88007653D01*
X170040830Y-88007653D02*
X170040830Y-88117720D01*
X170040830Y-88117720D02*
X169985797Y-88227787D01*
X169985797Y-88227787D02*
X169930763Y-88282820D01*
X169930763Y-88282820D02*
X169820697Y-88337853D01*
X169820697Y-88337853D02*
X169435463Y-88337853D01*
X170591163Y-88502953D02*
X171471697Y-88502953D01*
X171031430Y-88943220D02*
X171031430Y-88062687D01*
X171746864Y-89053287D02*
X172627397Y-89053287D01*
X172902563Y-88943220D02*
X172902563Y-87787520D01*
X172902563Y-87787520D02*
X173562963Y-88943220D01*
X173562963Y-88943220D02*
X173562963Y-87787520D01*
X174333430Y-87787520D02*
X174553563Y-87787520D01*
X174553563Y-87787520D02*
X174663630Y-87842553D01*
X174663630Y-87842553D02*
X174773696Y-87952620D01*
X174773696Y-87952620D02*
X174828730Y-88172753D01*
X174828730Y-88172753D02*
X174828730Y-88557987D01*
X174828730Y-88557987D02*
X174773696Y-88778120D01*
X174773696Y-88778120D02*
X174663630Y-88888187D01*
X174663630Y-88888187D02*
X174553563Y-88943220D01*
X174553563Y-88943220D02*
X174333430Y-88943220D01*
X174333430Y-88943220D02*
X174223363Y-88888187D01*
X174223363Y-88888187D02*
X174113296Y-88778120D01*
X174113296Y-88778120D02*
X174058263Y-88557987D01*
X174058263Y-88557987D02*
X174058263Y-88172753D01*
X174058263Y-88172753D02*
X174113296Y-87952620D01*
X174113296Y-87952620D02*
X174223363Y-87842553D01*
X174223363Y-87842553D02*
X174333430Y-87787520D01*
X175984429Y-88943220D02*
X175599196Y-88392887D01*
X175324029Y-88943220D02*
X175324029Y-87787520D01*
X175324029Y-87787520D02*
X175764296Y-87787520D01*
X175764296Y-87787520D02*
X175874363Y-87842553D01*
X175874363Y-87842553D02*
X175929396Y-87897587D01*
X175929396Y-87897587D02*
X175984429Y-88007653D01*
X175984429Y-88007653D02*
X175984429Y-88172753D01*
X175984429Y-88172753D02*
X175929396Y-88282820D01*
X175929396Y-88282820D02*
X175874363Y-88337853D01*
X175874363Y-88337853D02*
X175764296Y-88392887D01*
X175764296Y-88392887D02*
X175324029Y-88392887D01*
X176479729Y-88943220D02*
X176479729Y-87787520D01*
X176479729Y-87787520D02*
X176864963Y-88613020D01*
X176864963Y-88613020D02*
X177250196Y-87787520D01*
X177250196Y-87787520D02*
X177250196Y-88943220D01*
X178020663Y-87787520D02*
X178130729Y-87787520D01*
X178130729Y-87787520D02*
X178240796Y-87842553D01*
X178240796Y-87842553D02*
X178295829Y-87897587D01*
X178295829Y-87897587D02*
X178350863Y-88007653D01*
X178350863Y-88007653D02*
X178405896Y-88227787D01*
X178405896Y-88227787D02*
X178405896Y-88502953D01*
X178405896Y-88502953D02*
X178350863Y-88723087D01*
X178350863Y-88723087D02*
X178295829Y-88833153D01*
X178295829Y-88833153D02*
X178240796Y-88888187D01*
X178240796Y-88888187D02*
X178130729Y-88943220D01*
X178130729Y-88943220D02*
X178020663Y-88943220D01*
X178020663Y-88943220D02*
X177910596Y-88888187D01*
X177910596Y-88888187D02*
X177855563Y-88833153D01*
X177855563Y-88833153D02*
X177800529Y-88723087D01*
X177800529Y-88723087D02*
X177745496Y-88502953D01*
X177745496Y-88502953D02*
X177745496Y-88227787D01*
X177745496Y-88227787D02*
X177800529Y-88007653D01*
X177800529Y-88007653D02*
X177855563Y-87897587D01*
X177855563Y-87897587D02*
X177910596Y-87842553D01*
X177910596Y-87842553D02*
X178020663Y-87787520D01*
D10*
X165613792Y-108784697D02*
X165053540Y-109176873D01*
X165613792Y-109456999D02*
X164437264Y-109456999D01*
X164437264Y-109456999D02*
X164437264Y-109008798D01*
X164437264Y-109008798D02*
X164493289Y-108896747D01*
X164493289Y-108896747D02*
X164549314Y-108840722D01*
X164549314Y-108840722D02*
X164661364Y-108784697D01*
X164661364Y-108784697D02*
X164829440Y-108784697D01*
X164829440Y-108784697D02*
X164941490Y-108840722D01*
X164941490Y-108840722D02*
X164997515Y-108896747D01*
X164997515Y-108896747D02*
X165053540Y-109008798D01*
X165053540Y-109008798D02*
X165053540Y-109456999D01*
X164941490Y-108112395D02*
X164885465Y-108224446D01*
X164885465Y-108224446D02*
X164829440Y-108280471D01*
X164829440Y-108280471D02*
X164717389Y-108336496D01*
X164717389Y-108336496D02*
X164661364Y-108336496D01*
X164661364Y-108336496D02*
X164549314Y-108280471D01*
X164549314Y-108280471D02*
X164493289Y-108224446D01*
X164493289Y-108224446D02*
X164437264Y-108112395D01*
X164437264Y-108112395D02*
X164437264Y-107888295D01*
X164437264Y-107888295D02*
X164493289Y-107776245D01*
X164493289Y-107776245D02*
X164549314Y-107720219D01*
X164549314Y-107720219D02*
X164661364Y-107664194D01*
X164661364Y-107664194D02*
X164717389Y-107664194D01*
X164717389Y-107664194D02*
X164829440Y-107720219D01*
X164829440Y-107720219D02*
X164885465Y-107776245D01*
X164885465Y-107776245D02*
X164941490Y-107888295D01*
X164941490Y-107888295D02*
X164941490Y-108112395D01*
X164941490Y-108112395D02*
X164997515Y-108224446D01*
X164997515Y-108224446D02*
X165053540Y-108280471D01*
X165053540Y-108280471D02*
X165165591Y-108336496D01*
X165165591Y-108336496D02*
X165389691Y-108336496D01*
X165389691Y-108336496D02*
X165501741Y-108280471D01*
X165501741Y-108280471D02*
X165557767Y-108224446D01*
X165557767Y-108224446D02*
X165613792Y-108112395D01*
X165613792Y-108112395D02*
X165613792Y-107888295D01*
X165613792Y-107888295D02*
X165557767Y-107776245D01*
X165557767Y-107776245D02*
X165501741Y-107720219D01*
X165501741Y-107720219D02*
X165389691Y-107664194D01*
X165389691Y-107664194D02*
X165165591Y-107664194D01*
X165165591Y-107664194D02*
X165053540Y-107720219D01*
X165053540Y-107720219D02*
X164997515Y-107776245D01*
X164997515Y-107776245D02*
X164941490Y-107888295D01*
X160851047Y-104161292D02*
X160290795Y-104161292D01*
X160290795Y-104161292D02*
X160290795Y-102984764D01*
X161243222Y-103545015D02*
X161635398Y-103545015D01*
X161803474Y-104161292D02*
X161243222Y-104161292D01*
X161243222Y-104161292D02*
X161243222Y-102984764D01*
X161243222Y-102984764D02*
X161803474Y-102984764D01*
X162307700Y-104161292D02*
X162307700Y-102984764D01*
X162307700Y-102984764D02*
X162587826Y-102984764D01*
X162587826Y-102984764D02*
X162755901Y-103040789D01*
X162755901Y-103040789D02*
X162867952Y-103152839D01*
X162867952Y-103152839D02*
X162923977Y-103264889D01*
X162923977Y-103264889D02*
X162980002Y-103488990D01*
X162980002Y-103488990D02*
X162980002Y-103657065D01*
X162980002Y-103657065D02*
X162923977Y-103881166D01*
X162923977Y-103881166D02*
X162867952Y-103993216D01*
X162867952Y-103993216D02*
X162755901Y-104105267D01*
X162755901Y-104105267D02*
X162587826Y-104161292D01*
X162587826Y-104161292D02*
X162307700Y-104161292D01*
X163372178Y-102984764D02*
X164100505Y-102984764D01*
X164100505Y-102984764D02*
X163708329Y-103432965D01*
X163708329Y-103432965D02*
X163876404Y-103432965D01*
X163876404Y-103432965D02*
X163988455Y-103488990D01*
X163988455Y-103488990D02*
X164044480Y-103545015D01*
X164044480Y-103545015D02*
X164100505Y-103657065D01*
X164100505Y-103657065D02*
X164100505Y-103937191D01*
X164100505Y-103937191D02*
X164044480Y-104049241D01*
X164044480Y-104049241D02*
X163988455Y-104105267D01*
X163988455Y-104105267D02*
X163876404Y-104161292D01*
X163876404Y-104161292D02*
X163540253Y-104161292D01*
X163540253Y-104161292D02*
X163428203Y-104105267D01*
X163428203Y-104105267D02*
X163372178Y-104049241D01*
X143352620Y-129143227D02*
X143576720Y-129143227D01*
X143576720Y-129143227D02*
X143688771Y-129199252D01*
X143688771Y-129199252D02*
X143800821Y-129311302D01*
X143800821Y-129311302D02*
X143856846Y-129535403D01*
X143856846Y-129535403D02*
X143856846Y-129927579D01*
X143856846Y-129927579D02*
X143800821Y-130151679D01*
X143800821Y-130151679D02*
X143688771Y-130263730D01*
X143688771Y-130263730D02*
X143576720Y-130319755D01*
X143576720Y-130319755D02*
X143352620Y-130319755D01*
X143352620Y-130319755D02*
X143240570Y-130263730D01*
X143240570Y-130263730D02*
X143128519Y-130151679D01*
X143128519Y-130151679D02*
X143072494Y-129927579D01*
X143072494Y-129927579D02*
X143072494Y-129535403D01*
X143072494Y-129535403D02*
X143128519Y-129311302D01*
X143128519Y-129311302D02*
X143240570Y-129199252D01*
X143240570Y-129199252D02*
X143352620Y-129143227D01*
X144305047Y-130263730D02*
X144473123Y-130319755D01*
X144473123Y-130319755D02*
X144753248Y-130319755D01*
X144753248Y-130319755D02*
X144865299Y-130263730D01*
X144865299Y-130263730D02*
X144921324Y-130207704D01*
X144921324Y-130207704D02*
X144977349Y-130095654D01*
X144977349Y-130095654D02*
X144977349Y-129983604D01*
X144977349Y-129983604D02*
X144921324Y-129871554D01*
X144921324Y-129871554D02*
X144865299Y-129815528D01*
X144865299Y-129815528D02*
X144753248Y-129759503D01*
X144753248Y-129759503D02*
X144529148Y-129703478D01*
X144529148Y-129703478D02*
X144417097Y-129647453D01*
X144417097Y-129647453D02*
X144361072Y-129591428D01*
X144361072Y-129591428D02*
X144305047Y-129479378D01*
X144305047Y-129479378D02*
X144305047Y-129367327D01*
X144305047Y-129367327D02*
X144361072Y-129255277D01*
X144361072Y-129255277D02*
X144417097Y-129199252D01*
X144417097Y-129199252D02*
X144529148Y-129143227D01*
X144529148Y-129143227D02*
X144809273Y-129143227D01*
X144809273Y-129143227D02*
X144977349Y-129199252D01*
X146097852Y-130319755D02*
X145425550Y-130319755D01*
X145761701Y-130319755D02*
X145761701Y-129143227D01*
X145761701Y-129143227D02*
X145649651Y-129311302D01*
X145649651Y-129311302D02*
X145537600Y-129423352D01*
X145537600Y-129423352D02*
X145425550Y-129479378D01*
X146321953Y-130431805D02*
X147218355Y-130431805D01*
X148114757Y-130319755D02*
X147442455Y-130319755D01*
X147778606Y-130319755D02*
X147778606Y-129143227D01*
X147778606Y-129143227D02*
X147666556Y-129311302D01*
X147666556Y-129311302D02*
X147554505Y-129423352D01*
X147554505Y-129423352D02*
X147442455Y-129479378D01*
X148843084Y-129143227D02*
X148955134Y-129143227D01*
X148955134Y-129143227D02*
X149067184Y-129199252D01*
X149067184Y-129199252D02*
X149123210Y-129255277D01*
X149123210Y-129255277D02*
X149179235Y-129367327D01*
X149179235Y-129367327D02*
X149235260Y-129591428D01*
X149235260Y-129591428D02*
X149235260Y-129871554D01*
X149235260Y-129871554D02*
X149179235Y-130095654D01*
X149179235Y-130095654D02*
X149123210Y-130207704D01*
X149123210Y-130207704D02*
X149067184Y-130263730D01*
X149067184Y-130263730D02*
X148955134Y-130319755D01*
X148955134Y-130319755D02*
X148843084Y-130319755D01*
X148843084Y-130319755D02*
X148731034Y-130263730D01*
X148731034Y-130263730D02*
X148675008Y-130207704D01*
X148675008Y-130207704D02*
X148618983Y-130095654D01*
X148618983Y-130095654D02*
X148562958Y-129871554D01*
X148562958Y-129871554D02*
X148562958Y-129591428D01*
X148562958Y-129591428D02*
X148618983Y-129367327D01*
X148618983Y-129367327D02*
X148675008Y-129255277D01*
X148675008Y-129255277D02*
X148731034Y-129199252D01*
X148731034Y-129199252D02*
X148843084Y-129143227D01*
X149739486Y-130319755D02*
X149739486Y-129143227D01*
X149739486Y-129143227D02*
X150131662Y-129983604D01*
X150131662Y-129983604D02*
X150523838Y-129143227D01*
X150523838Y-129143227D02*
X150523838Y-130319755D01*
X151084089Y-130319755D02*
X151084089Y-129143227D01*
X151084089Y-129703478D02*
X151756391Y-129703478D01*
X151756391Y-130319755D02*
X151756391Y-129143227D01*
X152204592Y-129143227D02*
X152988944Y-129143227D01*
X152988944Y-129143227D02*
X152204592Y-130319755D01*
X152204592Y-130319755D02*
X152988944Y-130319755D01*
X153661246Y-129143227D02*
X153773296Y-129143227D01*
X153773296Y-129143227D02*
X153885346Y-129199252D01*
X153885346Y-129199252D02*
X153941372Y-129255277D01*
X153941372Y-129255277D02*
X153997397Y-129367327D01*
X153997397Y-129367327D02*
X154053422Y-129591428D01*
X154053422Y-129591428D02*
X154053422Y-129871554D01*
X154053422Y-129871554D02*
X153997397Y-130095654D01*
X153997397Y-130095654D02*
X153941372Y-130207704D01*
X153941372Y-130207704D02*
X153885346Y-130263730D01*
X153885346Y-130263730D02*
X153773296Y-130319755D01*
X153773296Y-130319755D02*
X153661246Y-130319755D01*
X153661246Y-130319755D02*
X153549196Y-130263730D01*
X153549196Y-130263730D02*
X153493170Y-130207704D01*
X153493170Y-130207704D02*
X153437145Y-130095654D01*
X153437145Y-130095654D02*
X153381120Y-129871554D01*
X153381120Y-129871554D02*
X153381120Y-129591428D01*
X153381120Y-129591428D02*
X153437145Y-129367327D01*
X153437145Y-129367327D02*
X153493170Y-129255277D01*
X153493170Y-129255277D02*
X153549196Y-129199252D01*
X153549196Y-129199252D02*
X153661246Y-129143227D01*
X161697255Y-102031728D02*
X161697255Y-102591980D01*
X161697255Y-102591980D02*
X160520727Y-102591980D01*
X161080978Y-101639553D02*
X161080978Y-101247377D01*
X161697255Y-101079301D02*
X161697255Y-101639553D01*
X161697255Y-101639553D02*
X160520727Y-101639553D01*
X160520727Y-101639553D02*
X160520727Y-101079301D01*
X161697255Y-100575075D02*
X160520727Y-100575075D01*
X160520727Y-100575075D02*
X160520727Y-100294949D01*
X160520727Y-100294949D02*
X160576752Y-100126874D01*
X160576752Y-100126874D02*
X160688802Y-100014823D01*
X160688802Y-100014823D02*
X160800852Y-99958798D01*
X160800852Y-99958798D02*
X161024953Y-99902773D01*
X161024953Y-99902773D02*
X161193028Y-99902773D01*
X161193028Y-99902773D02*
X161417129Y-99958798D01*
X161417129Y-99958798D02*
X161529179Y-100014823D01*
X161529179Y-100014823D02*
X161641230Y-100126874D01*
X161641230Y-100126874D02*
X161697255Y-100294949D01*
X161697255Y-100294949D02*
X161697255Y-100575075D01*
X160632777Y-99454572D02*
X160576752Y-99398547D01*
X160576752Y-99398547D02*
X160520727Y-99286497D01*
X160520727Y-99286497D02*
X160520727Y-99006371D01*
X160520727Y-99006371D02*
X160576752Y-98894321D01*
X160576752Y-98894321D02*
X160632777Y-98838295D01*
X160632777Y-98838295D02*
X160744827Y-98782270D01*
X160744827Y-98782270D02*
X160856878Y-98782270D01*
X160856878Y-98782270D02*
X161024953Y-98838295D01*
X161024953Y-98838295D02*
X161697255Y-99510597D01*
X161697255Y-99510597D02*
X161697255Y-98782270D01*
D14*
%TO.C,IC4*%
X144496100Y-103363600D02*
X153796100Y-103363600D01*
X144496100Y-112663600D02*
X144496100Y-103363600D01*
X153796100Y-103363600D02*
X153796100Y-112663600D01*
X153796100Y-112663600D02*
X144496100Y-112663600D01*
D15*
X143271100Y-102813600D02*
G75*
G02*
X142871100Y-102813600I-200000J0D01*
G01*
X142871100Y-102813600D02*
G75*
G02*
X143271100Y-102813600I200000J0D01*
G01*
D16*
%TO.C,ANALOG0*%
X118666100Y-103568600D02*
X119301100Y-102933600D01*
X118666100Y-104838600D02*
X118666100Y-103568600D01*
X118666100Y-106108600D02*
X119301100Y-105473600D01*
X118666100Y-107378600D02*
X118666100Y-106108600D01*
X118666100Y-107378600D02*
X119301100Y-108013600D01*
X118666100Y-108648600D02*
X119301100Y-108013600D01*
X118666100Y-109918600D02*
X118666100Y-108648600D01*
X118666100Y-109918600D02*
X119301100Y-110553600D01*
X118666100Y-111188600D02*
X119301100Y-110553600D01*
X118666100Y-112458600D02*
X118666100Y-111188600D01*
X118666100Y-113728600D02*
X119301100Y-113093600D01*
X118666100Y-114998600D02*
X118666100Y-113728600D01*
X118666100Y-116268600D02*
X119301100Y-115633600D01*
X118666100Y-117538600D02*
X118666100Y-116268600D01*
X118666100Y-117538600D02*
X119301100Y-118173600D01*
X118666100Y-118808600D02*
X119301100Y-118173600D01*
X118666100Y-120078600D02*
X118666100Y-118808600D01*
X118666100Y-120078600D02*
X119301100Y-120713600D01*
X118666100Y-121348600D02*
X119301100Y-120713600D01*
X118666100Y-122618600D02*
X118666100Y-121348600D01*
X118666100Y-123888600D02*
X119301100Y-123253600D01*
X118666100Y-125158600D02*
X118666100Y-123888600D01*
X118666100Y-126428600D02*
X119301100Y-125793600D01*
X118666100Y-127698600D02*
X118666100Y-126428600D01*
X118666100Y-127698600D02*
X119301100Y-128333600D01*
X119301100Y-102933600D02*
X120571100Y-102933600D01*
X119301100Y-105473600D02*
X118666100Y-104838600D01*
X119301100Y-113093600D02*
X118666100Y-112458600D01*
X119301100Y-115633600D02*
X118666100Y-114998600D01*
X119301100Y-123253600D02*
X118666100Y-122618600D01*
X119301100Y-125793600D02*
X118666100Y-125158600D01*
X119301100Y-128333600D02*
X120571100Y-128333600D01*
X120571100Y-102933600D02*
X121206100Y-103568600D01*
X120571100Y-105473600D02*
X121206100Y-106108600D01*
X120571100Y-108013600D02*
X121206100Y-107378600D01*
X120571100Y-108013600D02*
X121206100Y-108648600D01*
X120571100Y-110553600D02*
X121206100Y-109918600D01*
X120571100Y-110553600D02*
X121206100Y-111188600D01*
X120571100Y-113093600D02*
X121206100Y-113728600D01*
X120571100Y-115633600D02*
X121206100Y-116268600D01*
X120571100Y-118173600D02*
X121206100Y-117538600D01*
X120571100Y-118173600D02*
X121206100Y-118808600D01*
X120571100Y-120713600D02*
X121206100Y-120078600D01*
X120571100Y-120713600D02*
X121206100Y-121348600D01*
X120571100Y-123253600D02*
X121206100Y-123888600D01*
X120571100Y-125793600D02*
X121206100Y-126428600D01*
X120571100Y-128333600D02*
X121206100Y-127698600D01*
X121206100Y-103568600D02*
X121206100Y-104838600D01*
X121206100Y-104838600D02*
X120571100Y-105473600D01*
X121206100Y-106108600D02*
X121206100Y-107378600D01*
X121206100Y-108648600D02*
X121206100Y-109918600D01*
X121206100Y-111188600D02*
X121206100Y-112458600D01*
X121206100Y-112458600D02*
X120571100Y-113093600D01*
X121206100Y-113728600D02*
X121206100Y-114998600D01*
X121206100Y-114998600D02*
X120571100Y-115633600D01*
X121206100Y-116268600D02*
X121206100Y-117538600D01*
X121206100Y-118808600D02*
X121206100Y-120078600D01*
X121206100Y-121348600D02*
X121206100Y-122618600D01*
X121206100Y-122618600D02*
X120571100Y-123253600D01*
X121206100Y-123888600D02*
X121206100Y-125158600D01*
X121206100Y-125158600D02*
X120571100Y-125793600D01*
X121206100Y-126428600D02*
X121206100Y-127698600D01*
%TO.C,DISPLAY0*%
X127556100Y-129408869D02*
X127556100Y-130678869D01*
X127556100Y-130678869D02*
X128191100Y-131313869D01*
X128191100Y-128773869D02*
X127556100Y-129408869D01*
X128191100Y-128773869D02*
X129461100Y-128773869D01*
X129461100Y-128773869D02*
X130096100Y-129408869D01*
X129461100Y-131313869D02*
X128191100Y-131313869D01*
X130096100Y-129408869D02*
X130731100Y-128773869D01*
X130096100Y-130678869D02*
X129461100Y-131313869D01*
X130731100Y-128773869D02*
X132001100Y-128773869D01*
X130731100Y-131313869D02*
X130096100Y-130678869D01*
X132001100Y-128773869D02*
X132636100Y-129408869D01*
X132001100Y-131313869D02*
X130731100Y-131313869D01*
X132636100Y-129408869D02*
X133271100Y-128773869D01*
X132636100Y-130678869D02*
X132001100Y-131313869D01*
X133271100Y-128773869D02*
X134541100Y-128773869D01*
X133271100Y-131313869D02*
X132636100Y-130678869D01*
X134541100Y-128773869D02*
X135176100Y-129408869D01*
X134541100Y-131313869D02*
X133271100Y-131313869D01*
X135176100Y-130678869D02*
X134541100Y-131313869D01*
X135176100Y-130678869D02*
X135811100Y-131313869D01*
X135811100Y-128773869D02*
X135176100Y-129408869D01*
X135811100Y-128773869D02*
X137081100Y-128773869D01*
X137081100Y-128773869D02*
X137716100Y-129408869D01*
X137081100Y-131313869D02*
X135811100Y-131313869D01*
X137716100Y-129408869D02*
X138351100Y-128773869D01*
X137716100Y-130678869D02*
X137081100Y-131313869D01*
X138351100Y-128773869D02*
X139621100Y-128773869D01*
X138351100Y-131313869D02*
X137716100Y-130678869D01*
X139621100Y-128773869D02*
X140256100Y-129408869D01*
X139621100Y-131313869D02*
X138351100Y-131313869D01*
X140256100Y-129408869D02*
X140891100Y-128773869D01*
X140256100Y-130678869D02*
X139621100Y-131313869D01*
X140891100Y-128773869D02*
X142161100Y-128773869D01*
X140891100Y-131313869D02*
X140256100Y-130678869D01*
X142161100Y-128773869D02*
X142796100Y-129408869D01*
X142161100Y-131313869D02*
X140891100Y-131313869D01*
X142796100Y-129408869D02*
X142796100Y-130678869D01*
X142796100Y-130678869D02*
X142161100Y-131313869D01*
%TO.C,B+0*%
X172895100Y-102425600D02*
X172895100Y-100901600D01*
X173149100Y-100647600D02*
X175943100Y-100647600D01*
X175943100Y-102679600D02*
X173149100Y-102679600D01*
X176197100Y-102425600D02*
X176197100Y-100901600D01*
X172895100Y-100901600D02*
G75*
G02*
X173149100Y-100647600I254000J0D01*
G01*
X173149100Y-102679600D02*
G75*
G02*
X172895100Y-102425600I0J254000D01*
G01*
X175943100Y-100647600D02*
G75*
G02*
X176197100Y-100901600I0J-254000D01*
G01*
X176197100Y-102425600D02*
G75*
G02*
X175943100Y-102679600I-254000J0D01*
G01*
%TO.C,CANBUS0*%
X161846100Y-76898600D02*
X161846100Y-78168600D01*
X161846100Y-78168600D02*
X162481100Y-78803600D01*
X162481100Y-76263600D02*
X161846100Y-76898600D01*
X162481100Y-76263600D02*
X163751100Y-76263600D01*
X163751100Y-76263600D02*
X164386100Y-76898600D01*
X163751100Y-78803600D02*
X162481100Y-78803600D01*
X164386100Y-76898600D02*
X165021100Y-76263600D01*
X164386100Y-78168600D02*
X163751100Y-78803600D01*
X165021100Y-76263600D02*
X166291100Y-76263600D01*
X165021100Y-78803600D02*
X164386100Y-78168600D01*
X166291100Y-76263600D02*
X166926100Y-76898600D01*
X166291100Y-78803600D02*
X165021100Y-78803600D01*
X166926100Y-76898600D02*
X167561100Y-76263600D01*
X166926100Y-78168600D02*
X166291100Y-78803600D01*
X167561100Y-76263600D02*
X168831100Y-76263600D01*
X167561100Y-78803600D02*
X166926100Y-78168600D01*
X168831100Y-76263600D02*
X169466100Y-76898600D01*
X168831100Y-78803600D02*
X167561100Y-78803600D01*
X169466100Y-78168600D02*
X168831100Y-78803600D01*
X169466100Y-78168600D02*
X170101100Y-78803600D01*
X170101100Y-76263600D02*
X169466100Y-76898600D01*
X170101100Y-76263600D02*
X171371100Y-76263600D01*
X171371100Y-76263600D02*
X172006100Y-76898600D01*
X171371100Y-78803600D02*
X170101100Y-78803600D01*
X172006100Y-76898600D02*
X172006100Y-78168600D01*
X172006100Y-78168600D02*
X171371100Y-78803600D01*
%TO.C,EXT_IO0*%
X150416100Y-81978600D02*
X151051100Y-81343600D01*
X150416100Y-83248600D02*
X150416100Y-81978600D01*
X150416100Y-84518600D02*
X151051100Y-83883600D01*
X150416100Y-85788600D02*
X150416100Y-84518600D01*
X150416100Y-87058600D02*
X151051100Y-86423600D01*
X150416100Y-88328600D02*
X150416100Y-87058600D01*
X150416100Y-88328600D02*
X151051100Y-88963600D01*
X150416100Y-89598600D02*
X151051100Y-88963600D01*
X150416100Y-90868600D02*
X150416100Y-89598600D01*
X150416100Y-92138600D02*
X151051100Y-91503600D01*
X150416100Y-93408600D02*
X150416100Y-92138600D01*
X150416100Y-94678600D02*
X151051100Y-94043600D01*
X150416100Y-95948600D02*
X150416100Y-94678600D01*
X150416100Y-95948600D02*
X151051100Y-96583600D01*
X151051100Y-81343600D02*
X152321100Y-81343600D01*
X151051100Y-83883600D02*
X150416100Y-83248600D01*
X151051100Y-86423600D02*
X150416100Y-85788600D01*
X151051100Y-91503600D02*
X150416100Y-90868600D01*
X151051100Y-94043600D02*
X150416100Y-93408600D01*
X151051100Y-96583600D02*
X152321100Y-96583600D01*
X152321100Y-81343600D02*
X152956100Y-81978600D01*
X152321100Y-83883600D02*
X152956100Y-84518600D01*
X152321100Y-86423600D02*
X152956100Y-87058600D01*
X152321100Y-88963600D02*
X152956100Y-88328600D01*
X152321100Y-88963600D02*
X152956100Y-89598600D01*
X152321100Y-91503600D02*
X152956100Y-92138600D01*
X152321100Y-94043600D02*
X152956100Y-94678600D01*
X152321100Y-96583600D02*
X152956100Y-95948600D01*
X152956100Y-81978600D02*
X152956100Y-83248600D01*
X152956100Y-83248600D02*
X152321100Y-83883600D01*
X152956100Y-84518600D02*
X152956100Y-85788600D01*
X152956100Y-85788600D02*
X152321100Y-86423600D01*
X152956100Y-87058600D02*
X152956100Y-88328600D01*
X152956100Y-89598600D02*
X152956100Y-90868600D01*
X152956100Y-90868600D02*
X152321100Y-91503600D01*
X152956100Y-92138600D02*
X152956100Y-93408600D01*
X152956100Y-93408600D02*
X152321100Y-94043600D01*
X152956100Y-94678600D02*
X152956100Y-95948600D01*
%TO.C,A-1*%
X172895100Y-94805600D02*
X172895100Y-93281600D01*
X173149100Y-93027600D02*
X175943100Y-93027600D01*
X175943100Y-95059600D02*
X173149100Y-95059600D01*
X176197100Y-94805600D02*
X176197100Y-93281600D01*
X172895100Y-93281600D02*
G75*
G02*
X173149100Y-93027600I254000J0D01*
G01*
X173149100Y-95059600D02*
G75*
G02*
X172895100Y-94805600I0J254000D01*
G01*
X175943100Y-93027600D02*
G75*
G02*
X176197100Y-93281600I0J-254000D01*
G01*
X176197100Y-94805600D02*
G75*
G02*
X175943100Y-95059600I-254000J0D01*
G01*
%TO.C,RESET0*%
X120825100Y-78295600D02*
X120825100Y-76771600D01*
X121079100Y-76517600D02*
X123873100Y-76517600D01*
X123873100Y-78549600D02*
X121079100Y-78549600D01*
X124127100Y-78295600D02*
X124127100Y-76771600D01*
X120825100Y-76771600D02*
G75*
G02*
X121079100Y-76517600I254000J0D01*
G01*
X121079100Y-78549600D02*
G75*
G02*
X120825100Y-78295600I0J254000D01*
G01*
X123873100Y-76517600D02*
G75*
G02*
X124127100Y-76771600I0J-254000D01*
G01*
X124127100Y-78295600D02*
G75*
G02*
X123873100Y-78549600I-254000J0D01*
G01*
%TO.C,DIGITAL0*%
X126286100Y-85788600D02*
X126921100Y-85153600D01*
X126286100Y-87058600D02*
X126286100Y-85788600D01*
X126286100Y-88328600D02*
X126921100Y-87693600D01*
X126286100Y-89598600D02*
X126286100Y-88328600D01*
X126286100Y-89598600D02*
X126921100Y-90233600D01*
X126286100Y-90868600D02*
X126921100Y-90233600D01*
X126286100Y-92138600D02*
X126286100Y-90868600D01*
X126286100Y-92138600D02*
X126921100Y-92773600D01*
X126286100Y-93408600D02*
X126921100Y-92773600D01*
X126286100Y-94678600D02*
X126286100Y-93408600D01*
X126286100Y-95948600D02*
X126921100Y-95313600D01*
X126286100Y-97218600D02*
X126286100Y-95948600D01*
X126286100Y-98488600D02*
X126921100Y-97853600D01*
X126286100Y-99758600D02*
X126286100Y-98488600D01*
X126286100Y-99758600D02*
X126921100Y-100393600D01*
X126286100Y-101028600D02*
X126921100Y-100393600D01*
X126286100Y-102298600D02*
X126286100Y-101028600D01*
X126286100Y-102298600D02*
X126921100Y-102933600D01*
X126286100Y-103568600D02*
X126921100Y-102933600D01*
X126286100Y-104838600D02*
X126286100Y-103568600D01*
X126286100Y-106108600D02*
X126921100Y-105473600D01*
X126286100Y-107378600D02*
X126286100Y-106108600D01*
X126286100Y-108648600D02*
X126921100Y-108013600D01*
X126286100Y-109918600D02*
X126286100Y-108648600D01*
X126286100Y-109918600D02*
X126921100Y-110553600D01*
X126921100Y-85153600D02*
X128191100Y-85153600D01*
X126921100Y-87693600D02*
X126286100Y-87058600D01*
X126921100Y-95313600D02*
X126286100Y-94678600D01*
X126921100Y-97853600D02*
X126286100Y-97218600D01*
X126921100Y-105473600D02*
X126286100Y-104838600D01*
X126921100Y-108013600D02*
X126286100Y-107378600D01*
X126921100Y-110553600D02*
X128191100Y-110553600D01*
X128191100Y-85153600D02*
X128826100Y-85788600D01*
X128191100Y-87693600D02*
X128826100Y-88328600D01*
X128191100Y-90233600D02*
X128826100Y-89598600D01*
X128191100Y-90233600D02*
X128826100Y-90868600D01*
X128191100Y-92773600D02*
X128826100Y-92138600D01*
X128191100Y-92773600D02*
X128826100Y-93408600D01*
X128191100Y-95313600D02*
X128826100Y-95948600D01*
X128191100Y-97853600D02*
X128826100Y-98488600D01*
X128191100Y-100393600D02*
X128826100Y-99758600D01*
X128191100Y-100393600D02*
X128826100Y-101028600D01*
X128191100Y-102933600D02*
X128826100Y-102298600D01*
X128191100Y-102933600D02*
X128826100Y-103568600D01*
X128191100Y-105473600D02*
X128826100Y-106108600D01*
X128191100Y-108013600D02*
X128826100Y-108648600D01*
X128191100Y-110553600D02*
X128826100Y-109918600D01*
X128826100Y-85788600D02*
X128826100Y-87058600D01*
X128826100Y-87058600D02*
X128191100Y-87693600D01*
X128826100Y-88328600D02*
X128826100Y-89598600D01*
X128826100Y-90868600D02*
X128826100Y-92138600D01*
X128826100Y-93408600D02*
X128826100Y-94678600D01*
X128826100Y-94678600D02*
X128191100Y-95313600D01*
X128826100Y-95948600D02*
X128826100Y-97218600D01*
X128826100Y-97218600D02*
X128191100Y-97853600D01*
X128826100Y-98488600D02*
X128826100Y-99758600D01*
X128826100Y-101028600D02*
X128826100Y-102298600D01*
X128826100Y-103568600D02*
X128826100Y-104838600D01*
X128826100Y-104838600D02*
X128191100Y-105473600D01*
X128826100Y-106108600D02*
X128826100Y-107378600D01*
X128826100Y-107378600D02*
X128191100Y-108013600D01*
X128826100Y-108648600D02*
X128826100Y-109918600D01*
%TO.C,R_RESET0*%
X149146100Y-76898600D02*
X149146100Y-78168600D01*
X149146100Y-78168600D02*
X149781100Y-78803600D01*
X149781100Y-76263600D02*
X149146100Y-76898600D01*
X149781100Y-76263600D02*
X151051100Y-76263600D01*
X151051100Y-76263600D02*
X151686100Y-76898600D01*
X151051100Y-78803600D02*
X149781100Y-78803600D01*
X151686100Y-76898600D02*
X151686100Y-78168600D01*
X151686100Y-76898600D02*
X152321100Y-76263600D01*
X151686100Y-78168600D02*
X151051100Y-78803600D01*
X152321100Y-76263600D02*
X153591100Y-76263600D01*
X152321100Y-78803600D02*
X151686100Y-78168600D01*
X153591100Y-76263600D02*
X154226100Y-76898600D01*
X153591100Y-78803600D02*
X152321100Y-78803600D01*
X154226100Y-76898600D02*
X154226100Y-78168600D01*
X154226100Y-78168600D02*
X153591100Y-78803600D01*
D17*
%TO.C,LED1*%
G36*
X160676100Y-101663600D02*
G01*
X160476100Y-101663600D01*
X160476100Y-101463600D01*
X160676100Y-101463600D01*
X160676100Y-101663600D01*
G37*
D16*
%TO.C,ICSP0*%
X118666100Y-85788600D02*
X118666100Y-84518600D01*
X118666100Y-87058600D02*
X119301100Y-86423600D01*
X118666100Y-88328600D02*
X118666100Y-87058600D01*
X118666100Y-89598600D02*
X119301100Y-88963600D01*
X118666100Y-90868600D02*
X118666100Y-89598600D01*
X118666100Y-93408600D02*
X118666100Y-92138600D01*
X118666100Y-94678600D02*
X119301100Y-94043600D01*
X118666100Y-95948600D02*
X118666100Y-94678600D01*
X118666100Y-97218600D02*
X119301100Y-96583600D01*
X118666100Y-98488600D02*
X118666100Y-97218600D01*
X119301100Y-83883600D02*
X118666100Y-84518600D01*
X119301100Y-86423600D02*
X118666100Y-85788600D01*
X119301100Y-88963600D02*
X118666100Y-88328600D01*
X119301100Y-91503600D02*
X118666100Y-90868600D01*
X119301100Y-91503600D02*
X118666100Y-92138600D01*
X119301100Y-94043600D02*
X118666100Y-93408600D01*
X119301100Y-96583600D02*
X118666100Y-95948600D01*
X119301100Y-99123600D02*
X118666100Y-98488600D01*
X120571100Y-83883600D02*
X119301100Y-83883600D01*
X120571100Y-86423600D02*
X121206100Y-87058600D01*
X120571100Y-88963600D02*
X121206100Y-89598600D01*
X120571100Y-94043600D02*
X121206100Y-94678600D01*
X120571100Y-96583600D02*
X121206100Y-97218600D01*
X120571100Y-99123600D02*
X119301100Y-99123600D01*
X121206100Y-84518600D02*
X120571100Y-83883600D01*
X121206100Y-84518600D02*
X121206100Y-85788600D01*
X121206100Y-85788600D02*
X120571100Y-86423600D01*
X121206100Y-87058600D02*
X121206100Y-88328600D01*
X121206100Y-88328600D02*
X120571100Y-88963600D01*
X121206100Y-89598600D02*
X121206100Y-90868600D01*
X121206100Y-90868600D02*
X120571100Y-91503600D01*
X121206100Y-92138600D02*
X120571100Y-91503600D01*
X121206100Y-92138600D02*
X121206100Y-93408600D01*
X121206100Y-93408600D02*
X120571100Y-94043600D01*
X121206100Y-94678600D02*
X121206100Y-95948600D01*
X121206100Y-95948600D02*
X120571100Y-96583600D01*
X121206100Y-97218600D02*
X121206100Y-98488600D01*
X121206100Y-98488600D02*
X120571100Y-99123600D01*
D12*
%TO.C,U1*%
X136235400Y-124066400D02*
X136235400Y-125666400D01*
X139355400Y-125666400D02*
X139355400Y-124066400D01*
D14*
X136945400Y-127366400D02*
G75*
G02*
X136745400Y-127366400I-100000J0D01*
G01*
X136745400Y-127366400D02*
G75*
G02*
X136945400Y-127366400I100000J0D01*
G01*
D16*
%TO.C,MODBUS0*%
X126286100Y-76898600D02*
X126286100Y-78168600D01*
X126286100Y-78168600D02*
X126921100Y-78803600D01*
X126921100Y-76263600D02*
X126286100Y-76898600D01*
X126921100Y-76263600D02*
X128191100Y-76263600D01*
X128191100Y-76263600D02*
X128826100Y-76898600D01*
X128191100Y-78803600D02*
X126921100Y-78803600D01*
X128826100Y-76898600D02*
X128826100Y-78168600D01*
X128826100Y-76898600D02*
X129461100Y-76263600D01*
X128826100Y-78168600D02*
X128191100Y-78803600D01*
X129461100Y-76263600D02*
X130731100Y-76263600D01*
X129461100Y-78803600D02*
X128826100Y-78168600D01*
X130731100Y-76263600D02*
X131366100Y-76898600D01*
X130731100Y-78803600D02*
X129461100Y-78803600D01*
X131366100Y-76898600D02*
X131366100Y-78168600D01*
X131366100Y-76898600D02*
X132001100Y-76263600D01*
X131366100Y-78168600D02*
X130731100Y-78803600D01*
X132001100Y-76263600D02*
X133271100Y-76263600D01*
X132001100Y-78803600D02*
X131366100Y-78168600D01*
X133271100Y-76263600D02*
X133906100Y-76898600D01*
X133271100Y-78803600D02*
X132001100Y-78803600D01*
X133906100Y-76898600D02*
X133906100Y-78168600D01*
X133906100Y-78168600D02*
X133271100Y-78803600D01*
X133906100Y-78168600D02*
X134541100Y-78803600D01*
X134541100Y-76263600D02*
X133906100Y-76898600D01*
X134541100Y-76263600D02*
X135811100Y-76263600D01*
X135811100Y-76263600D02*
X136446100Y-76898600D01*
X135811100Y-78803600D02*
X134541100Y-78803600D01*
X136446100Y-76898600D02*
X136446100Y-78168600D01*
X136446100Y-78168600D02*
X135811100Y-78803600D01*
X136446100Y-78168600D02*
X137081100Y-78803600D01*
X137081100Y-76263600D02*
X136446100Y-76898600D01*
X137081100Y-76263600D02*
X138351100Y-76263600D01*
X138351100Y-76263600D02*
X138986100Y-76898600D01*
X138351100Y-78803600D02*
X137081100Y-78803600D01*
X138986100Y-76898600D02*
X138986100Y-78168600D01*
X138986100Y-78168600D02*
X138351100Y-78803600D01*
D18*
%TO.C,VREF_PWR0*%
X125651100Y-119443600D02*
X127556100Y-119443600D01*
X125651100Y-124523600D02*
X125651100Y-119443600D01*
X127556100Y-119443600D02*
X132001100Y-119443600D01*
X127556100Y-124523600D02*
X125651100Y-124523600D01*
X127556100Y-124523600D02*
X127556100Y-119443600D01*
X132001100Y-119443600D02*
X132001100Y-124523600D01*
X132001100Y-124523600D02*
X127556100Y-124523600D01*
D16*
%TO.C,CAN_PWR0*%
X159560100Y-82740600D02*
X159560100Y-79946600D01*
X161338100Y-79692600D02*
X159814100Y-79692600D01*
X161338100Y-82994600D02*
X159814100Y-82994600D01*
X161592100Y-79946600D02*
X161592100Y-82740600D01*
X159560100Y-79946600D02*
G75*
G02*
X159814100Y-79692600I254000J0D01*
G01*
X159814100Y-82994600D02*
G75*
G02*
X159560100Y-82740600I0J254000D01*
G01*
X161338100Y-79692600D02*
G75*
G02*
X161592100Y-79946600I0J-254000D01*
G01*
X161592100Y-82740600D02*
G75*
G02*
X161338100Y-82994600I-254000J0D01*
G01*
D12*
%TO.C,IC2*%
X159179100Y-114363600D02*
X162100100Y-114490600D01*
X162100100Y-124396600D02*
X159179100Y-124523600D01*
X162100100Y-124396600D02*
X162354100Y-124142600D01*
X162354100Y-114744600D02*
X162100100Y-114490600D01*
X162354100Y-114744600D02*
X162354100Y-124142600D01*
X161998500Y-123939400D02*
G75*
G02*
X161490500Y-123939400I-254000J0D01*
G01*
X161490500Y-123939400D02*
G75*
G02*
X161998500Y-123939400I254000J0D01*
G01*
D17*
G36*
X158798100Y-124777600D02*
G01*
X158036100Y-124777600D01*
X158036100Y-114109600D01*
X158798100Y-114109600D01*
X158798100Y-124777600D01*
G37*
G36*
X159306100Y-116014600D02*
G01*
X158798100Y-116014600D01*
X158798100Y-114109600D01*
X159306100Y-114109600D01*
X159306100Y-116014600D01*
G37*
G36*
X159306100Y-118554600D02*
G01*
X158798100Y-118554600D01*
X158798100Y-117792600D01*
X159306100Y-117792600D01*
X159306100Y-118554600D01*
G37*
G36*
X159306100Y-121094600D02*
G01*
X158798100Y-121094600D01*
X158798100Y-120332600D01*
X159306100Y-120332600D01*
X159306100Y-121094600D01*
G37*
G36*
X159306100Y-124777600D02*
G01*
X158798100Y-124777600D01*
X158798100Y-122872600D01*
X159306100Y-122872600D01*
X159306100Y-124777600D01*
G37*
D16*
%TO.C,A-NORM0*%
X172895100Y-106235600D02*
X172895100Y-104711600D01*
X173149100Y-104457600D02*
X175943100Y-104457600D01*
X175943100Y-106489600D02*
X173149100Y-106489600D01*
X176197100Y-106235600D02*
X176197100Y-104711600D01*
X172895100Y-104711600D02*
G75*
G02*
X173149100Y-104457600I254000J0D01*
G01*
X173149100Y-106489600D02*
G75*
G02*
X172895100Y-106235600I0J254000D01*
G01*
X175943100Y-104457600D02*
G75*
G02*
X176197100Y-104711600I0J-254000D01*
G01*
X176197100Y-106235600D02*
G75*
G02*
X175943100Y-106489600I-254000J0D01*
G01*
%TO.C,TTL_SERIAL0*%
X165656100Y-130238600D02*
X165656100Y-131508600D01*
X165656100Y-131508600D02*
X166291100Y-132143600D01*
X166291100Y-129603600D02*
X165656100Y-130238600D01*
X166291100Y-129603600D02*
X167561100Y-129603600D01*
X167561100Y-129603600D02*
X168196100Y-130238600D01*
X167561100Y-132143600D02*
X166291100Y-132143600D01*
X168196100Y-130238600D02*
X168831100Y-129603600D01*
X168196100Y-131508600D02*
X167561100Y-132143600D01*
X168831100Y-129603600D02*
X170101100Y-129603600D01*
X168831100Y-132143600D02*
X168196100Y-131508600D01*
X170101100Y-129603600D02*
X170736100Y-130238600D01*
X170101100Y-132143600D02*
X168831100Y-132143600D01*
X170736100Y-130238600D02*
X171371100Y-129603600D01*
X170736100Y-131508600D02*
X170101100Y-132143600D01*
X171371100Y-129603600D02*
X172641100Y-129603600D01*
X171371100Y-132143600D02*
X170736100Y-131508600D01*
X172641100Y-129603600D02*
X173276100Y-130238600D01*
X172641100Y-132143600D02*
X171371100Y-132143600D01*
X173276100Y-131508600D02*
X172641100Y-132143600D01*
X173276100Y-131508600D02*
X173911100Y-132143600D01*
X173911100Y-129603600D02*
X173276100Y-130238600D01*
X173911100Y-129603600D02*
X175181100Y-129603600D01*
X175181100Y-129603600D02*
X175816100Y-130238600D01*
X175181100Y-132143600D02*
X173911100Y-132143600D01*
X175816100Y-130238600D02*
X175816100Y-131508600D01*
X175816100Y-131508600D02*
X175181100Y-132143600D01*
D18*
%TO.C,UNK24VDC_PWR0*%
X159306100Y-126428600D02*
X164386100Y-126428600D01*
X159306100Y-128333600D02*
X159306100Y-126428600D01*
X159306100Y-128333600D02*
X164386100Y-128333600D01*
X159306100Y-132778600D02*
X159306100Y-128333600D01*
X164386100Y-126428600D02*
X164386100Y-128333600D01*
X164386100Y-128333600D02*
X164386100Y-132778600D01*
X164386100Y-132778600D02*
X159306100Y-132778600D01*
D16*
%TO.C,MISC_IO0*%
X132636100Y-85788600D02*
X133271100Y-85153600D01*
X132636100Y-87058600D02*
X132636100Y-85788600D01*
X132636100Y-88328600D02*
X133271100Y-87693600D01*
X132636100Y-89598600D02*
X132636100Y-88328600D01*
X132636100Y-89598600D02*
X133271100Y-90233600D01*
X132636100Y-90868600D02*
X133271100Y-90233600D01*
X132636100Y-92138600D02*
X132636100Y-90868600D01*
X132636100Y-92138600D02*
X133271100Y-92773600D01*
X132636100Y-93408600D02*
X133271100Y-92773600D01*
X132636100Y-94678600D02*
X132636100Y-93408600D01*
X132636100Y-95948600D02*
X133271100Y-95313600D01*
X132636100Y-97218600D02*
X132636100Y-95948600D01*
X132636100Y-98488600D02*
X133271100Y-97853600D01*
X132636100Y-99758600D02*
X132636100Y-98488600D01*
X132636100Y-99758600D02*
X133271100Y-100393600D01*
X132636100Y-101028600D02*
X133271100Y-100393600D01*
X132636100Y-102298600D02*
X132636100Y-101028600D01*
X132636100Y-102298600D02*
X133271100Y-102933600D01*
X132636100Y-103568600D02*
X133271100Y-102933600D01*
X132636100Y-104838600D02*
X132636100Y-103568600D01*
X132636100Y-106108600D02*
X133271100Y-105473600D01*
X132636100Y-107378600D02*
X132636100Y-106108600D01*
X132636100Y-108648600D02*
X133271100Y-108013600D01*
X132636100Y-109918600D02*
X132636100Y-108648600D01*
X132636100Y-109918600D02*
X133271100Y-110553600D01*
X133271100Y-85153600D02*
X134541100Y-85153600D01*
X133271100Y-87693600D02*
X132636100Y-87058600D01*
X133271100Y-95313600D02*
X132636100Y-94678600D01*
X133271100Y-97853600D02*
X132636100Y-97218600D01*
X133271100Y-105473600D02*
X132636100Y-104838600D01*
X133271100Y-108013600D02*
X132636100Y-107378600D01*
X133271100Y-110553600D02*
X134541100Y-110553600D01*
X134541100Y-85153600D02*
X135176100Y-85788600D01*
X134541100Y-87693600D02*
X135176100Y-88328600D01*
X134541100Y-90233600D02*
X135176100Y-89598600D01*
X134541100Y-90233600D02*
X135176100Y-90868600D01*
X134541100Y-92773600D02*
X135176100Y-92138600D01*
X134541100Y-92773600D02*
X135176100Y-93408600D01*
X134541100Y-95313600D02*
X135176100Y-95948600D01*
X134541100Y-97853600D02*
X135176100Y-98488600D01*
X134541100Y-100393600D02*
X135176100Y-99758600D01*
X134541100Y-100393600D02*
X135176100Y-101028600D01*
X134541100Y-102933600D02*
X135176100Y-102298600D01*
X134541100Y-102933600D02*
X135176100Y-103568600D01*
X134541100Y-105473600D02*
X135176100Y-106108600D01*
X134541100Y-108013600D02*
X135176100Y-108648600D01*
X134541100Y-110553600D02*
X135176100Y-109918600D01*
X135176100Y-85788600D02*
X135176100Y-87058600D01*
X135176100Y-87058600D02*
X134541100Y-87693600D01*
X135176100Y-88328600D02*
X135176100Y-89598600D01*
X135176100Y-90868600D02*
X135176100Y-92138600D01*
X135176100Y-93408600D02*
X135176100Y-94678600D01*
X135176100Y-94678600D02*
X134541100Y-95313600D01*
X135176100Y-95948600D02*
X135176100Y-97218600D01*
X135176100Y-97218600D02*
X134541100Y-97853600D01*
X135176100Y-98488600D02*
X135176100Y-99758600D01*
X135176100Y-101028600D02*
X135176100Y-102298600D01*
X135176100Y-103568600D02*
X135176100Y-104838600D01*
X135176100Y-104838600D02*
X134541100Y-105473600D01*
X135176100Y-106108600D02*
X135176100Y-107378600D01*
X135176100Y-107378600D02*
X134541100Y-108013600D01*
X135176100Y-108648600D02*
X135176100Y-109918600D01*
%TO.C,B+_NORM0*%
X172895100Y-90995600D02*
X172895100Y-89471600D01*
X173149100Y-89217600D02*
X175943100Y-89217600D01*
X175943100Y-91249600D02*
X173149100Y-91249600D01*
X176197100Y-90995600D02*
X176197100Y-89471600D01*
X172895100Y-89471600D02*
G75*
G02*
X173149100Y-89217600I254000J0D01*
G01*
X173149100Y-91249600D02*
G75*
G02*
X172895100Y-90995600I0J254000D01*
G01*
X175943100Y-89217600D02*
G75*
G02*
X176197100Y-89471600I0J-254000D01*
G01*
X176197100Y-90995600D02*
G75*
G02*
X175943100Y-91249600I-254000J0D01*
G01*
D17*
%TO.C,LED3*%
G36*
X165756100Y-101663600D02*
G01*
X165556100Y-101663600D01*
X165556100Y-101463600D01*
X165756100Y-101463600D01*
X165756100Y-101663600D01*
G37*
D12*
%TO.C,OS1_10MHZ0*%
X146186100Y-121023600D02*
X146186100Y-128023600D01*
X146186100Y-121023600D02*
X156316100Y-121023600D01*
X146186100Y-128023600D02*
X146946100Y-128023600D01*
X146946100Y-128023600D02*
X146946100Y-121063600D01*
X156316100Y-121023600D02*
X156416100Y-128023600D01*
X156416100Y-128023600D02*
X146946100Y-128023600D01*
D14*
X146686100Y-128323600D02*
G75*
G02*
X146486100Y-128323600I-100000J0D01*
G01*
X146486100Y-128323600D02*
G75*
G02*
X146686100Y-128323600I100000J0D01*
G01*
D17*
%TO.C,LED2*%
G36*
X163216100Y-101663600D02*
G01*
X163016100Y-101663600D01*
X163016100Y-101463600D01*
X163216100Y-101463600D01*
X163216100Y-101663600D01*
G37*
%TD*%
M02*
