%TF.GenerationSoftware,KiCad,Pcbnew,8.0.6+dfsg-1*%
%TF.CreationDate,2024-12-08T15:12:25-08:00*%
%TF.ProjectId,dc_q84 v3,64635f71-3834-4207-9633-2e6b69636164,rev?*%
%TF.SameCoordinates,Original*%
%TF.FileFunction,Copper,L1,Top*%
%TF.FilePolarity,Positive*%
%FSLAX46Y46*%
G04 Gerber Fmt 4.6, Leading zero omitted, Abs format (unit mm)*
G04 Created by KiCad (PCBNEW 8.0.6+dfsg-1) date 2024-12-08 15:12:25*
%MOMM*%
%LPD*%
G01*
G04 APERTURE LIST*
G04 Aperture macros list*
%AMRoundRect*
0 Rectangle with rounded corners*
0 $1 Rounding radius*
0 $2 $3 $4 $5 $6 $7 $8 $9 X,Y pos of 4 corners*
0 Add a 4 corners polygon primitive as box body*
4,1,4,$2,$3,$4,$5,$6,$7,$8,$9,$2,$3,0*
0 Add four circle primitives for the rounded corners*
1,1,$1+$1,$2,$3*
1,1,$1+$1,$4,$5*
1,1,$1+$1,$6,$7*
1,1,$1+$1,$8,$9*
0 Add four rect primitives between the rounded corners*
20,1,$1+$1,$2,$3,$4,$5,0*
20,1,$1+$1,$4,$5,$6,$7,0*
20,1,$1+$1,$6,$7,$8,$9,0*
20,1,$1+$1,$8,$9,$2,$3,0*%
%AMOutline5P*
0 Free polygon, 5 corners , with rotation*
0 The origin of the aperture is its center*
0 number of corners: always 5*
0 $1 to $10 corner X, Y*
0 $11 Rotation angle, in degrees counterclockwise*
0 create outline with 5 corners*
4,1,5,$1,$2,$3,$4,$5,$6,$7,$8,$9,$10,$1,$2,$11*%
%AMOutline6P*
0 Free polygon, 6 corners , with rotation*
0 The origin of the aperture is its center*
0 number of corners: always 6*
0 $1 to $12 corner X, Y*
0 $13 Rotation angle, in degrees counterclockwise*
0 create outline with 6 corners*
4,1,6,$1,$2,$3,$4,$5,$6,$7,$8,$9,$10,$11,$12,$1,$2,$13*%
%AMOutline7P*
0 Free polygon, 7 corners , with rotation*
0 The origin of the aperture is its center*
0 number of corners: always 7*
0 $1 to $14 corner X, Y*
0 $15 Rotation angle, in degrees counterclockwise*
0 create outline with 7 corners*
4,1,7,$1,$2,$3,$4,$5,$6,$7,$8,$9,$10,$11,$12,$13,$14,$1,$2,$15*%
%AMOutline8P*
0 Free polygon, 8 corners , with rotation*
0 The origin of the aperture is its center*
0 number of corners: always 8*
0 $1 to $16 corner X, Y*
0 $17 Rotation angle, in degrees counterclockwise*
0 create outline with 8 corners*
4,1,8,$1,$2,$3,$4,$5,$6,$7,$8,$9,$10,$11,$12,$13,$14,$15,$16,$1,$2,$17*%
G04 Aperture macros list end*
%ADD10C,0.203200*%
%TA.AperFunction,NonConductor*%
%ADD11C,0.203200*%
%TD*%
%TA.AperFunction,SMDPad,CuDef*%
%ADD12R,1.475000X0.600000*%
%TD*%
%TA.AperFunction,SMDPad,CuDef*%
%ADD13R,0.600000X1.475000*%
%TD*%
%TA.AperFunction,ComponentPad*%
%ADD14O,3.048000X1.524000*%
%TD*%
%TA.AperFunction,ComponentPad*%
%ADD15O,1.524000X3.048000*%
%TD*%
%TA.AperFunction,SMDPad,CuDef*%
%ADD16R,1.168400X1.600200*%
%TD*%
%TA.AperFunction,SMDPad,CuDef*%
%ADD17R,1.500000X1.300000*%
%TD*%
%TA.AperFunction,SMDPad,CuDef*%
%ADD18R,1.200000X1.200000*%
%TD*%
%TA.AperFunction,ComponentPad*%
%ADD19Outline8P,-1.079500X0.447144X-0.447144X1.079500X0.447144X1.079500X1.079500X0.447144X1.079500X-0.447144X0.447144X-1.079500X-0.447144X-1.079500X-1.079500X-0.447144X0.000000*%
%TD*%
%TA.AperFunction,SMDPad,CuDef*%
%ADD20RoundRect,0.072500X0.217500X-0.532500X0.217500X0.532500X-0.217500X0.532500X-0.217500X-0.532500X0*%
%TD*%
%TA.AperFunction,ComponentPad*%
%ADD21C,1.422400*%
%TD*%
%TA.AperFunction,ComponentPad*%
%ADD22C,2.184400*%
%TD*%
%TA.AperFunction,ComponentPad*%
%ADD23O,3.016000X1.508000*%
%TD*%
%TA.AperFunction,SMDPad,CuDef*%
%ADD24R,1.600200X1.168400*%
%TD*%
%TA.AperFunction,ComponentPad*%
%ADD25O,1.508000X3.016000*%
%TD*%
%TA.AperFunction,SMDPad,CuDef*%
%ADD26R,1.800000X1.600000*%
%TD*%
%TA.AperFunction,ViaPad*%
%ADD27C,0.756400*%
%TD*%
%TA.AperFunction,Conductor*%
%ADD28C,0.304800*%
%TD*%
%TA.AperFunction,Conductor*%
%ADD29C,0.152400*%
%TD*%
G04 APERTURE END LIST*
D10*
D11*
X126887144Y-133963865D02*
X126887144Y-132897065D01*
X126887144Y-132897065D02*
X127141144Y-132897065D01*
X127141144Y-132897065D02*
X127293544Y-132947865D01*
X127293544Y-132947865D02*
X127395144Y-133049465D01*
X127395144Y-133049465D02*
X127445944Y-133151065D01*
X127445944Y-133151065D02*
X127496744Y-133354265D01*
X127496744Y-133354265D02*
X127496744Y-133506665D01*
X127496744Y-133506665D02*
X127445944Y-133709865D01*
X127445944Y-133709865D02*
X127395144Y-133811465D01*
X127395144Y-133811465D02*
X127293544Y-133913065D01*
X127293544Y-133913065D02*
X127141144Y-133963865D01*
X127141144Y-133963865D02*
X126887144Y-133963865D01*
X128563544Y-133862265D02*
X128512744Y-133913065D01*
X128512744Y-133913065D02*
X128360344Y-133963865D01*
X128360344Y-133963865D02*
X128258744Y-133963865D01*
X128258744Y-133963865D02*
X128106344Y-133913065D01*
X128106344Y-133913065D02*
X128004744Y-133811465D01*
X128004744Y-133811465D02*
X127953944Y-133709865D01*
X127953944Y-133709865D02*
X127903144Y-133506665D01*
X127903144Y-133506665D02*
X127903144Y-133354265D01*
X127903144Y-133354265D02*
X127953944Y-133151065D01*
X127953944Y-133151065D02*
X128004744Y-133049465D01*
X128004744Y-133049465D02*
X128106344Y-132947865D01*
X128106344Y-132947865D02*
X128258744Y-132897065D01*
X128258744Y-132897065D02*
X128360344Y-132897065D01*
X128360344Y-132897065D02*
X128512744Y-132947865D01*
X128512744Y-132947865D02*
X128563544Y-132998665D01*
X129020744Y-132897065D02*
X129020744Y-133760665D01*
X129020744Y-133760665D02*
X129071544Y-133862265D01*
X129071544Y-133862265D02*
X129122344Y-133913065D01*
X129122344Y-133913065D02*
X129223944Y-133963865D01*
X129223944Y-133963865D02*
X129427144Y-133963865D01*
X129427144Y-133963865D02*
X129528744Y-133913065D01*
X129528744Y-133913065D02*
X129579544Y-133862265D01*
X129579544Y-133862265D02*
X129630344Y-133760665D01*
X129630344Y-133760665D02*
X129630344Y-132897065D01*
X131662344Y-134065465D02*
X131560744Y-134014665D01*
X131560744Y-134014665D02*
X131459144Y-133913065D01*
X131459144Y-133913065D02*
X131306744Y-133760665D01*
X131306744Y-133760665D02*
X131205144Y-133709865D01*
X131205144Y-133709865D02*
X131103544Y-133709865D01*
X131154344Y-133963865D02*
X131052744Y-133913065D01*
X131052744Y-133913065D02*
X130951144Y-133811465D01*
X130951144Y-133811465D02*
X130900344Y-133608265D01*
X130900344Y-133608265D02*
X130900344Y-133252665D01*
X130900344Y-133252665D02*
X130951144Y-133049465D01*
X130951144Y-133049465D02*
X131052744Y-132947865D01*
X131052744Y-132947865D02*
X131154344Y-132897065D01*
X131154344Y-132897065D02*
X131357544Y-132897065D01*
X131357544Y-132897065D02*
X131459144Y-132947865D01*
X131459144Y-132947865D02*
X131560744Y-133049465D01*
X131560744Y-133049465D02*
X131611544Y-133252665D01*
X131611544Y-133252665D02*
X131611544Y-133608265D01*
X131611544Y-133608265D02*
X131560744Y-133811465D01*
X131560744Y-133811465D02*
X131459144Y-133913065D01*
X131459144Y-133913065D02*
X131357544Y-133963865D01*
X131357544Y-133963865D02*
X131154344Y-133963865D01*
X132221144Y-133354265D02*
X132119544Y-133303465D01*
X132119544Y-133303465D02*
X132068744Y-133252665D01*
X132068744Y-133252665D02*
X132017944Y-133151065D01*
X132017944Y-133151065D02*
X132017944Y-133100265D01*
X132017944Y-133100265D02*
X132068744Y-132998665D01*
X132068744Y-132998665D02*
X132119544Y-132947865D01*
X132119544Y-132947865D02*
X132221144Y-132897065D01*
X132221144Y-132897065D02*
X132424344Y-132897065D01*
X132424344Y-132897065D02*
X132525944Y-132947865D01*
X132525944Y-132947865D02*
X132576744Y-132998665D01*
X132576744Y-132998665D02*
X132627544Y-133100265D01*
X132627544Y-133100265D02*
X132627544Y-133151065D01*
X132627544Y-133151065D02*
X132576744Y-133252665D01*
X132576744Y-133252665D02*
X132525944Y-133303465D01*
X132525944Y-133303465D02*
X132424344Y-133354265D01*
X132424344Y-133354265D02*
X132221144Y-133354265D01*
X132221144Y-133354265D02*
X132119544Y-133405065D01*
X132119544Y-133405065D02*
X132068744Y-133455865D01*
X132068744Y-133455865D02*
X132017944Y-133557465D01*
X132017944Y-133557465D02*
X132017944Y-133760665D01*
X132017944Y-133760665D02*
X132068744Y-133862265D01*
X132068744Y-133862265D02*
X132119544Y-133913065D01*
X132119544Y-133913065D02*
X132221144Y-133963865D01*
X132221144Y-133963865D02*
X132424344Y-133963865D01*
X132424344Y-133963865D02*
X132525944Y-133913065D01*
X132525944Y-133913065D02*
X132576744Y-133862265D01*
X132576744Y-133862265D02*
X132627544Y-133760665D01*
X132627544Y-133760665D02*
X132627544Y-133557465D01*
X132627544Y-133557465D02*
X132576744Y-133455865D01*
X132576744Y-133455865D02*
X132525944Y-133405065D01*
X132525944Y-133405065D02*
X132424344Y-133354265D01*
X133541944Y-133252665D02*
X133541944Y-133963865D01*
X133287944Y-132846265D02*
X133033944Y-133608265D01*
X133033944Y-133608265D02*
X133694344Y-133608265D01*
X134913544Y-133963865D02*
X134913544Y-133252665D01*
X134913544Y-132897065D02*
X134862744Y-132947865D01*
X134862744Y-132947865D02*
X134913544Y-132998665D01*
X134913544Y-132998665D02*
X134964344Y-132947865D01*
X134964344Y-132947865D02*
X134913544Y-132897065D01*
X134913544Y-132897065D02*
X134913544Y-132998665D01*
X135421544Y-133252665D02*
X135421544Y-133963865D01*
X135421544Y-133354265D02*
X135472344Y-133303465D01*
X135472344Y-133303465D02*
X135573944Y-133252665D01*
X135573944Y-133252665D02*
X135726344Y-133252665D01*
X135726344Y-133252665D02*
X135827944Y-133303465D01*
X135827944Y-133303465D02*
X135878744Y-133405065D01*
X135878744Y-133405065D02*
X135878744Y-133963865D01*
X136234344Y-133252665D02*
X136640744Y-133252665D01*
X136386744Y-132897065D02*
X136386744Y-133811465D01*
X136386744Y-133811465D02*
X136437544Y-133913065D01*
X136437544Y-133913065D02*
X136539144Y-133963865D01*
X136539144Y-133963865D02*
X136640744Y-133963865D01*
X137402744Y-133913065D02*
X137301144Y-133963865D01*
X137301144Y-133963865D02*
X137097944Y-133963865D01*
X137097944Y-133963865D02*
X136996344Y-133913065D01*
X136996344Y-133913065D02*
X136945544Y-133811465D01*
X136945544Y-133811465D02*
X136945544Y-133405065D01*
X136945544Y-133405065D02*
X136996344Y-133303465D01*
X136996344Y-133303465D02*
X137097944Y-133252665D01*
X137097944Y-133252665D02*
X137301144Y-133252665D01*
X137301144Y-133252665D02*
X137402744Y-133303465D01*
X137402744Y-133303465D02*
X137453544Y-133405065D01*
X137453544Y-133405065D02*
X137453544Y-133506665D01*
X137453544Y-133506665D02*
X136945544Y-133608265D01*
X137910744Y-133963865D02*
X137910744Y-133252665D01*
X137910744Y-133455865D02*
X137961544Y-133354265D01*
X137961544Y-133354265D02*
X138012344Y-133303465D01*
X138012344Y-133303465D02*
X138113944Y-133252665D01*
X138113944Y-133252665D02*
X138215544Y-133252665D01*
X138418744Y-133252665D02*
X138825144Y-133252665D01*
X138571144Y-133963865D02*
X138571144Y-133049465D01*
X138571144Y-133049465D02*
X138621944Y-132947865D01*
X138621944Y-132947865D02*
X138723544Y-132897065D01*
X138723544Y-132897065D02*
X138825144Y-132897065D01*
X139637944Y-133963865D02*
X139637944Y-133405065D01*
X139637944Y-133405065D02*
X139587144Y-133303465D01*
X139587144Y-133303465D02*
X139485544Y-133252665D01*
X139485544Y-133252665D02*
X139282344Y-133252665D01*
X139282344Y-133252665D02*
X139180744Y-133303465D01*
X139637944Y-133913065D02*
X139536344Y-133963865D01*
X139536344Y-133963865D02*
X139282344Y-133963865D01*
X139282344Y-133963865D02*
X139180744Y-133913065D01*
X139180744Y-133913065D02*
X139129944Y-133811465D01*
X139129944Y-133811465D02*
X139129944Y-133709865D01*
X139129944Y-133709865D02*
X139180744Y-133608265D01*
X139180744Y-133608265D02*
X139282344Y-133557465D01*
X139282344Y-133557465D02*
X139536344Y-133557465D01*
X139536344Y-133557465D02*
X139637944Y-133506665D01*
X140603144Y-133913065D02*
X140501544Y-133963865D01*
X140501544Y-133963865D02*
X140298344Y-133963865D01*
X140298344Y-133963865D02*
X140196744Y-133913065D01*
X140196744Y-133913065D02*
X140145944Y-133862265D01*
X140145944Y-133862265D02*
X140095144Y-133760665D01*
X140095144Y-133760665D02*
X140095144Y-133455865D01*
X140095144Y-133455865D02*
X140145944Y-133354265D01*
X140145944Y-133354265D02*
X140196744Y-133303465D01*
X140196744Y-133303465D02*
X140298344Y-133252665D01*
X140298344Y-133252665D02*
X140501544Y-133252665D01*
X140501544Y-133252665D02*
X140603144Y-133303465D01*
X141466744Y-133913065D02*
X141365144Y-133963865D01*
X141365144Y-133963865D02*
X141161944Y-133963865D01*
X141161944Y-133963865D02*
X141060344Y-133913065D01*
X141060344Y-133913065D02*
X141009544Y-133811465D01*
X141009544Y-133811465D02*
X141009544Y-133405065D01*
X141009544Y-133405065D02*
X141060344Y-133303465D01*
X141060344Y-133303465D02*
X141161944Y-133252665D01*
X141161944Y-133252665D02*
X141365144Y-133252665D01*
X141365144Y-133252665D02*
X141466744Y-133303465D01*
X141466744Y-133303465D02*
X141517544Y-133405065D01*
X141517544Y-133405065D02*
X141517544Y-133506665D01*
X141517544Y-133506665D02*
X141009544Y-133608265D01*
X143346344Y-133963865D02*
X142736744Y-133963865D01*
X143041544Y-133963865D02*
X143041544Y-132897065D01*
X143041544Y-132897065D02*
X142939944Y-133049465D01*
X142939944Y-133049465D02*
X142838344Y-133151065D01*
X142838344Y-133151065D02*
X142736744Y-133201865D01*
X143803544Y-133862265D02*
X143854344Y-133913065D01*
X143854344Y-133913065D02*
X143803544Y-133963865D01*
X143803544Y-133963865D02*
X143752744Y-133913065D01*
X143752744Y-133913065D02*
X143803544Y-133862265D01*
X143803544Y-133862265D02*
X143803544Y-133963865D01*
X144870344Y-133963865D02*
X144260744Y-133963865D01*
X144565544Y-133963865D02*
X144565544Y-132897065D01*
X144565544Y-132897065D02*
X144463944Y-133049465D01*
X144463944Y-133049465D02*
X144362344Y-133151065D01*
X144362344Y-133151065D02*
X144260744Y-133201865D01*
D12*
%TO.P,IC4,1*%
%TO.N,UC_RX*%
X143408100Y-104013600D03*
%TO.P,IC4,2*%
%TO.N,DLED*%
X143408100Y-104813600D03*
%TO.P,IC4,3*%
%TO.N,RD5*%
X143408100Y-105613600D03*
%TO.P,IC4,4*%
%TO.N,PC_TX2*%
X143408100Y-106413600D03*
%TO.P,IC4,5*%
%TO.N,RD7*%
X143408100Y-107213600D03*
%TO.P,IC4,6*%
%TO.N,VSS*%
X143408100Y-108013600D03*
%TO.P,IC4,7*%
%TO.N,VDD*%
X143408100Y-108813600D03*
%TO.P,IC4,8*%
%TO.N,CANRX*%
X143408100Y-109613600D03*
%TO.P,IC4,9*%
%TO.N,MLED*%
X143408100Y-110413600D03*
%TO.P,IC4,10*%
%TO.N,RLED*%
X143408100Y-111213600D03*
%TO.P,IC4,11*%
%TO.N,DLED*%
X143408100Y-112013600D03*
D13*
%TO.P,IC4,12*%
%TO.N,N/C*%
X145146100Y-113751600D03*
%TO.P,IC4,13*%
X145946100Y-113751600D03*
%TO.P,IC4,14*%
%TO.N,CANTX*%
X146746100Y-113751600D03*
%TO.P,IC4,15*%
%TO.N,RB5*%
X147546100Y-113751600D03*
%TO.P,IC4,16*%
%TO.N,PGC*%
X148346100Y-113751600D03*
%TO.P,IC4,17*%
%TO.N,PGD*%
X149146100Y-113751600D03*
%TO.P,IC4,18*%
%TO.N,MCLR_SIG*%
X149946100Y-113751600D03*
%TO.P,IC4,19*%
%TO.N,AN0*%
X150746100Y-113751600D03*
%TO.P,IC4,20*%
%TO.N,AN1*%
X151546100Y-113751600D03*
%TO.P,IC4,21*%
%TO.N,AN2*%
X152346100Y-113751600D03*
%TO.P,IC4,22*%
%TO.N,VREF*%
X153146100Y-113751600D03*
D12*
%TO.P,IC4,23*%
%TO.N,AN4*%
X154884100Y-112013600D03*
%TO.P,IC4,24*%
%TO.N,AN5*%
X154884100Y-111213600D03*
%TO.P,IC4,25*%
%TO.N,RELAY*%
X154884100Y-110413600D03*
%TO.P,IC4,26*%
%TO.N,MISC*%
X154884100Y-109613600D03*
%TO.P,IC4,27*%
%TO.N,RE2*%
X154884100Y-108813600D03*
%TO.P,IC4,28*%
%TO.N,VDD*%
X154884100Y-108013600D03*
%TO.P,IC4,29*%
%TO.N,VSS*%
X154884100Y-107213600D03*
%TO.P,IC4,30*%
%TO.N,CPU_CLK*%
X154884100Y-106413600D03*
%TO.P,IC4,31*%
%TO.N,CLOCKO*%
X154884100Y-105613600D03*
%TO.P,IC4,32*%
%TO.N,MB_RX*%
X154884100Y-104813600D03*
%TO.P,IC4,33*%
%TO.N,N/C*%
X154884100Y-104013600D03*
D13*
%TO.P,IC4,34*%
X153146100Y-102275600D03*
%TO.P,IC4,35*%
%TO.N,MB_TX*%
X152346100Y-102275600D03*
%TO.P,IC4,36*%
%TO.N,DERE*%
X151546100Y-102275600D03*
%TO.P,IC4,37*%
%TO.N,SCK1*%
X150746100Y-102275600D03*
%TO.P,IC4,38*%
%TO.N,PC_RX2*%
X149946100Y-102275600D03*
%TO.P,IC4,39*%
%TO.N,DB0*%
X149146100Y-102275600D03*
%TO.P,IC4,40*%
%TO.N,DB1*%
X148346100Y-102275600D03*
%TO.P,IC4,41*%
%TO.N,CS*%
X147546100Y-102275600D03*
%TO.P,IC4,42*%
%TO.N,SDI1*%
X146746100Y-102275600D03*
%TO.P,IC4,43*%
%TO.N,SDO1*%
X145946100Y-102275600D03*
%TO.P,IC4,44*%
%TO.N,UC_TX*%
X145146100Y-102275600D03*
%TD*%
D14*
%TO.P,ANALOG0,1*%
%TO.N,AN1*%
X119936100Y-127063600D03*
%TO.P,ANALOG0,2*%
%TO.N,AN2*%
X119936100Y-124523600D03*
%TO.P,ANALOG0,3*%
%TO.N,VREF*%
X119936100Y-121983600D03*
%TO.P,ANALOG0,4*%
%TO.N,AN4*%
X119936100Y-119443600D03*
%TO.P,ANALOG0,5*%
%TO.N,AN5*%
X119936100Y-116903600D03*
%TO.P,ANALOG0,6*%
%TO.N,MB_RX*%
X119936100Y-114363600D03*
%TO.P,ANALOG0,7*%
%TO.N,MB_TX*%
X119936100Y-111823600D03*
%TO.P,ANALOG0,8*%
%TO.N,VDD*%
X119936100Y-109283600D03*
%TO.P,ANALOG0,9*%
%TO.N,VSS*%
X119936100Y-106743600D03*
%TO.P,ANALOG0,10*%
%TO.N,AN0*%
X119936100Y-104203600D03*
%TD*%
D15*
%TO.P,DISPLAY0,1*%
%TO.N,CS*%
X128826100Y-130043869D03*
%TO.P,DISPLAY0,2*%
%TO.N,N/C*%
X131366100Y-130043869D03*
%TO.P,DISPLAY0,3*%
%TO.N,SCK1*%
X133906100Y-130043869D03*
%TO.P,DISPLAY0,4*%
%TO.N,SDO1*%
X136446100Y-130043869D03*
%TO.P,DISPLAY0,5*%
%TO.N,VSS*%
X138986100Y-130043869D03*
%TO.P,DISPLAY0,6*%
%TO.N,VDD*%
X141526100Y-130043869D03*
%TD*%
D16*
%TO.P,B+0,1*%
%TO.N,N$1*%
X173784100Y-101663600D03*
%TO.P,B+0,2*%
%TO.N,MB_B*%
X175308100Y-101663600D03*
%TD*%
D15*
%TO.P,CANBUS0,1*%
%TO.N,CAN_N*%
X163116100Y-77533600D03*
%TO.P,CANBUS0,2*%
%TO.N,VSS*%
X165656100Y-77533600D03*
%TO.P,CANBUS0,3*%
%TO.N,CAN_P*%
X168196100Y-77533600D03*
%TO.P,CANBUS0,4*%
%TO.N,CAN_VCC*%
X170736100Y-77533600D03*
%TD*%
D14*
%TO.P,EXT_IO0,1*%
%TO.N,VSS*%
X151686100Y-95313600D03*
%TO.P,EXT_IO0,2*%
%TO.N,RD5*%
X151686100Y-92773600D03*
%TO.P,EXT_IO0,3*%
%TO.N,RD7*%
X151686100Y-90233600D03*
%TO.P,EXT_IO0,4*%
%TO.N,RB5*%
X151686100Y-87693600D03*
%TO.P,EXT_IO0,5*%
%TO.N,PGC*%
X151686100Y-85153600D03*
%TO.P,EXT_IO0,6*%
%TO.N,PGD*%
X151686100Y-82613600D03*
%TD*%
D16*
%TO.P,A-1,1*%
%TO.N,N$3*%
X173784100Y-94043600D03*
%TO.P,A-1,2*%
%TO.N,MB_A*%
X175308100Y-94043600D03*
%TD*%
D17*
%TO.P,R7,1*%
%TO.N,N$4*%
X160576100Y-107063600D03*
%TO.P,R7,2*%
%TO.N,MLED*%
X160576100Y-108963600D03*
%TD*%
D16*
%TO.P,RESET0,1*%
%TO.N,R_RESET*%
X121714100Y-77533600D03*
%TO.P,RESET0,2*%
%TO.N,VSS*%
X123238100Y-77533600D03*
%TD*%
D17*
%TO.P,R9,1*%
%TO.N,N$6*%
X165656100Y-107063600D03*
%TO.P,R9,2*%
%TO.N,DLED*%
X165656100Y-108963600D03*
%TD*%
D14*
%TO.P,DIGITAL0,1*%
%TO.N,DB0*%
X127556100Y-109283600D03*
%TO.P,DIGITAL0,2*%
%TO.N,DB1*%
X127556100Y-106743600D03*
%TO.P,DIGITAL0,3*%
%TO.N,CS*%
X127556100Y-104203600D03*
%TO.P,DIGITAL0,4*%
%TO.N,SCK1*%
X127556100Y-101663600D03*
%TO.P,DIGITAL0,5*%
%TO.N,SDI1*%
X127556100Y-99123600D03*
%TO.P,DIGITAL0,6*%
%TO.N,SDO1*%
X127556100Y-96583600D03*
%TO.P,DIGITAL0,7*%
%TO.N,UC_TX*%
X127556100Y-94043600D03*
%TO.P,DIGITAL0,8*%
%TO.N,VDD*%
X127556100Y-91503600D03*
%TO.P,DIGITAL0,9*%
%TO.N,VSS*%
X127556100Y-88963600D03*
%TO.P,DIGITAL0,10*%
%TO.N,UC_RX*%
X127556100Y-86423600D03*
%TD*%
D15*
%TO.P,R_RESET0,1*%
%TO.N,VSS*%
X150416100Y-77533600D03*
%TO.P,R_RESET0,2*%
%TO.N,R_RESET*%
X152956100Y-77533600D03*
%TD*%
D18*
%TO.P,LED1,A*%
%TO.N,N$4*%
X160576100Y-102713600D03*
%TO.P,LED1,C*%
%TO.N,VSS*%
X160576100Y-100613600D03*
%TD*%
D19*
%TO.P,TP1,TP*%
%TO.N,DERE*%
X123746100Y-130873600D03*
%TD*%
D14*
%TO.P,ICSP0,1*%
%TO.N,MCLR_SIG*%
X119936100Y-85153600D03*
%TO.P,ICSP0,2*%
%TO.N,VDD*%
X119936100Y-87693600D03*
%TO.P,ICSP0,3*%
%TO.N,VSS*%
X119936100Y-90233600D03*
%TO.P,ICSP0,4*%
%TO.N,PGD*%
X119936100Y-92773600D03*
%TO.P,ICSP0,5*%
%TO.N,PGC*%
X119936100Y-95313600D03*
%TO.P,ICSP0,6*%
%TO.N,N/C*%
X119936100Y-97853600D03*
%TD*%
D20*
%TO.P,U1,1*%
%TO.N,VSS*%
X136845400Y-126121400D03*
%TO.P,U1,2*%
X137795400Y-126121400D03*
%TO.P,U1,3*%
X138745400Y-126121400D03*
%TO.P,U1,4*%
%TO.N,VDD*%
X138745400Y-123611400D03*
%TO.P,U1,5*%
%TO.N,VREF*%
X137795400Y-123611400D03*
%TO.P,U1,6*%
X136845400Y-123611400D03*
%TD*%
D19*
%TO.P,TP2,TP*%
%TO.N,CPU_CLK*%
X154226100Y-118173600D03*
%TD*%
D15*
%TO.P,MODBUS0,1*%
%TO.N,VSS*%
X127556100Y-77533600D03*
%TO.P,MODBUS0,2*%
%TO.N,MB_B*%
X130096100Y-77533600D03*
%TO.P,MODBUS0,3*%
%TO.N,MB_A*%
X132636100Y-77533600D03*
%TO.P,MODBUS0,4*%
%TO.N,VSS*%
X135176100Y-77533600D03*
%TO.P,MODBUS0,5*%
%TO.N,VDD*%
X137716100Y-77533600D03*
%TD*%
D21*
%TO.P,MATE0,1*%
%TO.N,N/C*%
X172246100Y-115873600D03*
%TO.P,MATE0,2*%
%TO.N,V+*%
X169706100Y-116893600D03*
%TO.P,MATE0,3*%
%TO.N,N/C*%
X172246100Y-117913600D03*
%TO.P,MATE0,4*%
X169706100Y-118933600D03*
%TO.P,MATE0,5*%
%TO.N,N$3*%
X172246100Y-119953600D03*
%TO.P,MATE0,6*%
%TO.N,VSS*%
X169706100Y-120973600D03*
%TO.P,MATE0,7*%
%TO.N,N$1*%
X172246100Y-121993600D03*
%TO.P,MATE0,8*%
%TO.N,N/C*%
X169706100Y-123013600D03*
D22*
%TO.P,MATE0,S1*%
%TO.N,VSS*%
X169706100Y-111318600D03*
%TO.P,MATE0,S2*%
X169706100Y-127568600D03*
%TD*%
D23*
%TO.P,VREF_PWR0,1*%
%TO.N,VREF*%
X128826100Y-123253600D03*
%TO.P,VREF_PWR0,2*%
%TO.N,VSS*%
X128826100Y-120713600D03*
%TD*%
D24*
%TO.P,CAN_PWR0,1*%
%TO.N,CAN_VCC*%
X160576100Y-82105600D03*
%TO.P,CAN_PWR0,2*%
%TO.N,VDD*%
X160576100Y-80581600D03*
%TD*%
D17*
%TO.P,C2,1*%
%TO.N,VDD*%
X142796100Y-123573600D03*
%TO.P,C2,2*%
%TO.N,VSS*%
X142796100Y-125473600D03*
%TD*%
D14*
%TO.P,IC2,1*%
%TO.N,N$2*%
X160576100Y-121983600D03*
%TO.P,IC2,2*%
%TO.N,VSS*%
X160576100Y-119443600D03*
%TO.P,IC2,3*%
%TO.N,VDD*%
X160576100Y-116903600D03*
%TD*%
D16*
%TO.P,A-NORM0,1*%
%TO.N,N$1*%
X173784100Y-105473600D03*
%TO.P,A-NORM0,2*%
%TO.N,MB_A*%
X175308100Y-105473600D03*
%TD*%
D15*
%TO.P,TTL_SERIAL0,1*%
%TO.N,VSS*%
X166926100Y-130873600D03*
%TO.P,TTL_SERIAL0,2*%
%TO.N,PC_TX2*%
X169466100Y-130873600D03*
%TO.P,TTL_SERIAL0,3*%
%TO.N,PC_RX2*%
X172006100Y-130873600D03*
%TO.P,TTL_SERIAL0,4*%
%TO.N,VDD*%
X174546100Y-130873600D03*
%TD*%
D25*
%TO.P,UNK24VDC_PWR0,1*%
%TO.N,V+*%
X160576100Y-129603600D03*
%TO.P,UNK24VDC_PWR0,2*%
%TO.N,VSS*%
X163116100Y-129603600D03*
%TD*%
D14*
%TO.P,MISC_IO0,1*%
%TO.N,RELAY*%
X133906100Y-109283600D03*
%TO.P,MISC_IO0,2*%
%TO.N,MISC*%
X133906100Y-106743600D03*
%TO.P,MISC_IO0,3*%
%TO.N,RE2*%
X133906100Y-104203600D03*
%TO.P,MISC_IO0,4*%
%TO.N,DLED*%
X133906100Y-101663600D03*
%TO.P,MISC_IO0,5*%
%TO.N,RD5*%
X133906100Y-99123600D03*
%TO.P,MISC_IO0,6*%
%TO.N,RB5*%
X133906100Y-96583600D03*
%TO.P,MISC_IO0,7*%
%TO.N,RD7*%
X133906100Y-94043600D03*
%TO.P,MISC_IO0,8*%
%TO.N,MCLR_SIG*%
X133906100Y-91503600D03*
%TO.P,MISC_IO0,9*%
%TO.N,VSS*%
X133906100Y-88963600D03*
%TO.P,MISC_IO0,10*%
%TO.N,CLOCKO*%
X133906100Y-86423600D03*
%TD*%
D16*
%TO.P,B+_NORM0,1*%
%TO.N,N$3*%
X173784100Y-90233600D03*
%TO.P,B+_NORM0,2*%
%TO.N,MB_B*%
X175308100Y-90233600D03*
%TD*%
D17*
%TO.P,R8,1*%
%TO.N,N$5*%
X163116100Y-107063600D03*
%TO.P,R8,2*%
%TO.N,RLED*%
X163116100Y-108963600D03*
%TD*%
D18*
%TO.P,LED3,A*%
%TO.N,N$6*%
X165656100Y-102713600D03*
%TO.P,LED3,C*%
%TO.N,VSS*%
X165656100Y-100613600D03*
%TD*%
D26*
%TO.P,OS1_10MHZ0,1*%
%TO.N,VDD*%
X149146100Y-126623600D03*
%TO.P,OS1_10MHZ0,2*%
%TO.N,VSS*%
X154226100Y-126623600D03*
%TO.P,OS1_10MHZ0,3*%
%TO.N,CPU_CLK*%
X154226100Y-122423600D03*
%TO.P,OS1_10MHZ0,4*%
%TO.N,VDD*%
X149146100Y-122423600D03*
%TD*%
D18*
%TO.P,LED2,A*%
%TO.N,N$5*%
X163116100Y-102713600D03*
%TO.P,LED2,C*%
%TO.N,VSS*%
X163116100Y-100613600D03*
%TD*%
D27*
%TO.N,VDD*%
X152346500Y-106235600D03*
X145564700Y-82918400D03*
X142135700Y-108674000D03*
%TO.N,VSS*%
X158036100Y-105473600D03*
X137639900Y-80022800D03*
X140256100Y-108013600D03*
X153565700Y-106616600D03*
X138986100Y-108013600D03*
X158036100Y-108013600D03*
%TO.N,VREF*%
X131239100Y-120561200D03*
%TO.N,MCLR_SIG*%
X129562700Y-85280600D03*
X148231700Y-99987200D03*
X149984300Y-109740800D03*
%TO.N,R_RESET*%
X125371700Y-82004000D03*
X134820500Y-80022800D03*
%TO.N,AN0*%
X152956100Y-111798200D03*
%TO.N,AN1*%
X151355900Y-112407800D03*
%TO.N,AN2*%
X152270300Y-112407800D03*
%TO.N,DB0*%
X140535500Y-102654200D03*
%TO.N,CS*%
X133601300Y-118808600D03*
X139087700Y-101206400D03*
%TO.N,CANRX*%
X150898700Y-105092600D03*
X160804700Y-92976800D03*
%TO.N,CANTX*%
X165224300Y-92976800D03*
X147012500Y-112407800D03*
%TO.N,CAN_P*%
X165910100Y-85128200D03*
%TO.N,CAN_VCC*%
X162481100Y-90309800D03*
%TO.N,AN4*%
X154022900Y-113322200D03*
%TO.N,AN5*%
X151279700Y-111188600D03*
%TO.N,SCK1*%
X149755700Y-100596800D03*
%TO.N,SDO1*%
X124076300Y-97853600D03*
X130019900Y-95567600D03*
%TO.N,CLOCKO*%
X156156500Y-105549800D03*
%TO.N,MISC*%
X143507300Y-115989200D03*
%TO.N,RE2*%
X140230700Y-111950600D03*
X156156500Y-104254400D03*
%TO.N,MB_RX*%
X161871500Y-101282600D03*
%TO.N,MB_TX*%
X145564700Y-86195000D03*
%TO.N,RD7*%
X137487500Y-90919400D03*
X136115900Y-102425600D03*
%TO.N,RB5*%
X131848700Y-98691800D03*
%TO.N,DERE*%
X147622100Y-90843200D03*
X144726500Y-105778400D03*
%TO.N,RLED*%
X156766100Y-110960000D03*
X145031300Y-111341000D03*
%TO.N,DLED*%
X136573100Y-101054000D03*
X156766100Y-112788800D03*
%TO.N,MB_A*%
X133906100Y-85128200D03*
%TO.N,MB_B*%
X149755700Y-85814000D03*
X175282700Y-98234600D03*
X175282700Y-92672000D03*
X129715100Y-83147000D03*
%TO.N,PC_RX2*%
X149374700Y-105016400D03*
%TO.N,PGC*%
X148307900Y-111036200D03*
%TO.N,MB_RX*%
X145564700Y-89928800D03*
%TO.N,PC_TX2*%
X149298500Y-106235600D03*
%TO.N,PGD*%
X149374700Y-111264800D03*
%TO.N,VSS*%
X132636100Y-115633600D03*
X128826100Y-115633600D03*
%TD*%
D28*
%TO.N,VDD*%
X137716100Y-77584400D02*
X137716100Y-77533600D01*
X150746300Y-126733400D02*
X149222300Y-126733400D01*
X174520700Y-130848200D02*
X174546100Y-130873600D01*
X171244100Y-122466200D02*
X171244100Y-127038200D01*
X149222300Y-122542400D02*
X149146100Y-122423600D01*
X149222300Y-126733400D02*
X149146100Y-126623600D01*
X142516700Y-123304400D02*
X138706700Y-123304400D01*
X155394500Y-123456800D02*
X155318300Y-123533000D01*
X142745300Y-123533000D02*
X142516700Y-123304400D01*
X124762100Y-92519600D02*
X124762100Y-104254400D01*
X155470700Y-123533000D02*
X155394500Y-123456800D01*
X143964500Y-122466200D02*
X149146100Y-122466200D01*
X154861100Y-107988200D02*
X154884100Y-108013600D01*
X119961500Y-109055000D02*
X119961500Y-109283600D01*
X160576100Y-116903600D02*
X161642900Y-115836800D01*
X155242100Y-127800200D02*
X151813100Y-127800200D01*
X142745300Y-123533000D02*
X142796100Y-123573600D01*
X144878900Y-126657200D02*
X149146100Y-126657200D01*
X143354900Y-108750200D02*
X143408100Y-108813600D01*
X160576100Y-80556200D02*
X160576100Y-80581600D01*
X124762100Y-104254400D02*
X119961500Y-109055000D01*
X142211900Y-108750200D02*
X143354900Y-108750200D01*
X160576100Y-116903600D02*
X158747300Y-118732400D01*
X153184700Y-123533000D02*
X152194100Y-122542400D01*
X151813100Y-127800200D02*
X150746300Y-126733400D01*
X137716100Y-77584400D02*
X140687900Y-80556200D01*
X174520700Y-130314800D02*
X174520700Y-130848200D01*
X149146100Y-122466200D02*
X149146100Y-122423600D01*
X119961500Y-109283600D02*
X119936100Y-109283600D01*
X141526100Y-130010000D02*
X144878900Y-126657200D01*
X155470700Y-123533000D02*
X155470700Y-127571600D01*
X140687900Y-80556200D02*
X145564700Y-80556200D01*
X171244100Y-127038200D02*
X174520700Y-130314800D01*
X170101100Y-115836800D02*
X170786900Y-116522600D01*
X145564700Y-80556200D02*
X160576100Y-80556200D01*
X149146100Y-126657200D02*
X149146100Y-126623600D01*
X158747300Y-120104000D02*
X155394500Y-123456800D01*
X142135700Y-108674000D02*
X142211900Y-108750200D01*
X141526100Y-130010000D02*
X141526100Y-130043869D01*
X119936100Y-87693600D02*
X124762100Y-92519600D01*
X142897700Y-123533000D02*
X143964500Y-122466200D01*
X153946700Y-107988200D02*
X154861100Y-107988200D01*
X152346500Y-106388000D02*
X153946700Y-107988200D01*
X142897700Y-123533000D02*
X142796100Y-123573600D01*
X145564700Y-80556200D02*
X145564700Y-82918400D01*
X161642900Y-115836800D02*
X170101100Y-115836800D01*
X152346500Y-106235600D02*
X152346500Y-106388000D01*
X170786900Y-122009000D02*
X171244100Y-122466200D01*
X170786900Y-116522600D02*
X170786900Y-122009000D01*
X158747300Y-118732400D02*
X158747300Y-120104000D01*
X155318300Y-123533000D02*
X153184700Y-123533000D01*
X155470700Y-127571600D02*
X155242100Y-127800200D01*
X152194100Y-122542400D02*
X149222300Y-122542400D01*
%TO.N,VSS*%
X138782900Y-125895200D02*
X138666100Y-125778600D01*
X158061500Y-105473600D02*
X158036100Y-105473600D01*
X127505300Y-77508200D02*
X123238100Y-77508200D01*
X158061500Y-105473600D02*
X158061500Y-103568600D01*
X142897700Y-125514200D02*
X142796100Y-125473600D01*
X163243100Y-100596800D02*
X163116100Y-100613600D01*
X154861100Y-107150000D02*
X154884100Y-107213600D01*
X142897700Y-125514200D02*
X150212900Y-125514200D01*
X139011500Y-125514200D02*
X142745300Y-125514200D01*
X138935300Y-130010000D02*
X138986100Y-130043869D01*
X160499900Y-101130200D02*
X160499900Y-100749200D01*
X163090700Y-100596800D02*
X160576100Y-100596800D01*
X153565700Y-106616600D02*
X154099100Y-107150000D01*
X138630500Y-125742800D02*
X138666100Y-125778600D01*
X151279700Y-126581000D02*
X154175300Y-126581000D01*
X137716100Y-125742800D02*
X136801700Y-125742800D01*
X137639900Y-80022800D02*
X135201500Y-77584400D01*
X135201500Y-77584400D02*
X135176100Y-77533600D01*
X138935300Y-130010000D02*
X138782900Y-129857600D01*
X140306900Y-107988200D02*
X143354900Y-107988200D01*
X160499900Y-100749200D02*
X160576100Y-100613600D01*
X165605300Y-100596800D02*
X165656100Y-100613600D01*
X160576100Y-100596800D02*
X160576100Y-100613600D01*
X143354900Y-107988200D02*
X143408100Y-108013600D01*
X127505300Y-77508200D02*
X127556100Y-77533600D01*
X138782900Y-129857600D02*
X138782900Y-125895200D01*
X154175300Y-126581000D02*
X154226100Y-126623600D01*
X154099100Y-107150000D02*
X154861100Y-107150000D01*
X150212900Y-125514200D02*
X151279700Y-126581000D01*
X137792300Y-125742800D02*
X137716100Y-125778600D01*
X158061500Y-103568600D02*
X160499900Y-101130200D01*
X123238100Y-77508200D02*
X123238100Y-77533600D01*
X163090700Y-100596800D02*
X163116100Y-100613600D01*
X137716100Y-125742800D02*
X137716100Y-125778600D01*
X142745300Y-125514200D02*
X142796100Y-125473600D01*
X138782900Y-125742800D02*
X138666100Y-125778600D01*
X140306900Y-107988200D02*
X140256100Y-108013600D01*
X137792300Y-125742800D02*
X138630500Y-125742800D01*
X136801700Y-125742800D02*
X136766100Y-125778600D01*
X163243100Y-100596800D02*
X165605300Y-100596800D01*
X138782900Y-125742800D02*
X139011500Y-125514200D01*
D29*
%TO.N,CPU_CLK*%
X156156500Y-116217800D02*
X156156500Y-107073800D01*
X154251500Y-118122800D02*
X156156500Y-116217800D01*
X154251500Y-118199000D02*
X154251500Y-122390000D01*
X154251500Y-122390000D02*
X154226100Y-122423600D01*
X155546900Y-106464200D02*
X154937300Y-106464200D01*
X154251500Y-118199000D02*
X154226100Y-118173600D01*
X156156500Y-107073800D02*
X155546900Y-106464200D01*
X154937300Y-106464200D02*
X154884100Y-106413600D01*
X154251500Y-118122800D02*
X154226100Y-118173600D01*
D28*
%TO.N,VREF*%
X137716100Y-120637400D02*
X137792300Y-120713600D01*
X137716100Y-123228200D02*
X136801700Y-123228200D01*
X119961500Y-122009000D02*
X119936100Y-121983600D01*
X128826100Y-123253600D02*
X127581500Y-122009000D01*
X153108500Y-113779400D02*
X153146100Y-113751600D01*
X131239100Y-120561200D02*
X131315300Y-120637400D01*
X137716100Y-123228200D02*
X137716100Y-123268600D01*
X137792300Y-123152000D02*
X137716100Y-123268600D01*
X136801700Y-123228200D02*
X136766100Y-123268600D01*
X143202500Y-115303400D02*
X152270300Y-115303400D01*
X127581500Y-122009000D02*
X119961500Y-122009000D01*
X153108500Y-114465200D02*
X153108500Y-113779400D01*
X137792300Y-120713600D02*
X143202500Y-115303400D01*
X131315300Y-120637400D02*
X137716100Y-120637400D01*
X152270300Y-115303400D02*
X153108500Y-114465200D01*
X137792300Y-123152000D02*
X137792300Y-120713600D01*
D29*
%TO.N,MCLR_SIG*%
X133906100Y-91529000D02*
X138630500Y-91529000D01*
X149984300Y-113703200D02*
X149946100Y-113751600D01*
X129334100Y-85509200D02*
X129562700Y-85280600D01*
X119961500Y-85128200D02*
X119936100Y-85153600D01*
X133906100Y-91529000D02*
X133906100Y-91503600D01*
X133906100Y-91452800D02*
X133906100Y-91503600D01*
X128953100Y-85128200D02*
X119961500Y-85128200D01*
X132153500Y-89700200D02*
X132153500Y-88328600D01*
X138630500Y-91529000D02*
X147088700Y-99987200D01*
X149984300Y-109740800D02*
X149984300Y-113703200D01*
X133906100Y-91452800D02*
X132153500Y-89700200D01*
X132153500Y-88328600D02*
X129334100Y-85509200D01*
X147088700Y-99987200D02*
X148231700Y-99987200D01*
X129334100Y-85509200D02*
X128953100Y-85128200D01*
%TO.N,PGC*%
X132686900Y-87414200D02*
X129410300Y-84137600D01*
X151660700Y-85204400D02*
X151686100Y-85153600D01*
X118742300Y-84137600D02*
X118132700Y-84747200D01*
X119885300Y-94958000D02*
X119885300Y-95262800D01*
X118132700Y-93205400D02*
X119885300Y-94958000D01*
X119885300Y-95262800D02*
X119936100Y-95313600D01*
X145640900Y-85204400D02*
X143431100Y-87414200D01*
X151660700Y-85204400D02*
X145640900Y-85204400D01*
X118132700Y-84747200D02*
X118132700Y-93205400D01*
X129410300Y-84137600D02*
X118742300Y-84137600D01*
X143431100Y-87414200D02*
X132686900Y-87414200D01*
%TO.N,R_RESET*%
X134134700Y-78727400D02*
X134820500Y-79413200D01*
X134134700Y-75755600D02*
X150822500Y-75755600D01*
X152575100Y-77508200D02*
X152956100Y-77508200D01*
X150822500Y-75755600D02*
X152575100Y-77508200D01*
X121714100Y-78346400D02*
X121714100Y-77533600D01*
X128572100Y-78727400D02*
X128572100Y-76822400D01*
X134820500Y-79413200D02*
X134820500Y-80022800D01*
X134134700Y-75755600D02*
X134134700Y-78727400D01*
X152956100Y-77508200D02*
X152956100Y-77533600D01*
X128572100Y-76822400D02*
X129638900Y-75755600D01*
X125371700Y-81927800D02*
X128572100Y-78727400D01*
X125371700Y-82004000D02*
X121714100Y-78346400D01*
X129638900Y-75755600D02*
X134134700Y-75755600D01*
X125371700Y-81927800D02*
X125371700Y-82004000D01*
%TO.N,AN0*%
X151051100Y-111798200D02*
X150746300Y-112103000D01*
X150746300Y-113703200D02*
X150746100Y-113751600D01*
X150746300Y-112103000D02*
X150746300Y-113703200D01*
X152956100Y-111798200D02*
X151051100Y-111798200D01*
%TO.N,AN1*%
X151508300Y-112560200D02*
X151508300Y-113703200D01*
X151355900Y-112407800D02*
X151508300Y-112560200D01*
X151508300Y-113703200D02*
X151546100Y-113751600D01*
%TO.N,AN2*%
X152270300Y-113703200D02*
X152346100Y-113751600D01*
X152270300Y-112407800D02*
X152270300Y-113703200D01*
%TO.N,DB0*%
X148460300Y-103568600D02*
X149146100Y-102882800D01*
X144345500Y-103568600D02*
X148460300Y-103568600D01*
X149146100Y-102882800D02*
X149146100Y-102275600D01*
X143431100Y-102654200D02*
X144345500Y-103568600D01*
X140535500Y-102654200D02*
X143431100Y-102654200D01*
%TO.N,DB1*%
X125143100Y-104330600D02*
X125143100Y-86652200D01*
X125143100Y-86652200D02*
X126362300Y-85433000D01*
X129334100Y-89166800D02*
X132686900Y-92519600D01*
X126362300Y-85433000D02*
X128800700Y-85433000D01*
X129334100Y-85966400D02*
X129334100Y-89166800D01*
X148307900Y-102273200D02*
X148346100Y-102275600D01*
X132686900Y-92519600D02*
X139163900Y-92519600D01*
X148307900Y-101663600D02*
X148307900Y-102273200D01*
X127556100Y-106743600D02*
X125143100Y-104330600D01*
X128800700Y-85433000D02*
X129334100Y-85966400D01*
X139163900Y-92519600D02*
X148307900Y-101663600D01*
%TO.N,CS*%
X147545900Y-102349400D02*
X147546100Y-102275600D01*
X127581500Y-104254400D02*
X127556100Y-104203600D01*
X142440500Y-101206400D02*
X144497900Y-103263800D01*
X139087700Y-101206400D02*
X142440500Y-101206400D01*
X147545900Y-102882800D02*
X147545900Y-102349400D01*
X129334100Y-107835800D02*
X133601300Y-112103000D01*
X144497900Y-103263800D02*
X147164900Y-103263800D01*
X127581500Y-104254400D02*
X129334100Y-106007000D01*
X147164900Y-103263800D02*
X147545900Y-102882800D01*
X133601300Y-112103000D02*
X133601300Y-118808600D01*
X129334100Y-106007000D02*
X129334100Y-107835800D01*
%TO.N,CANRX*%
X150898700Y-105549800D02*
X146860100Y-109588400D01*
X143431100Y-109588400D02*
X143408100Y-109613600D01*
X150898700Y-105092600D02*
X150898700Y-105549800D01*
X146860100Y-109588400D02*
X143431100Y-109588400D01*
%TO.N,CANTX*%
X146783900Y-112636400D02*
X146783900Y-113703200D01*
X146783900Y-113703200D02*
X146746100Y-113751600D01*
X147012500Y-112407800D02*
X146783900Y-112636400D01*
D28*
%TO.N,CAN_P*%
X165910100Y-79870400D02*
X165910100Y-85128200D01*
X168196100Y-77584400D02*
X168196100Y-77533600D01*
X168196100Y-77584400D02*
X165910100Y-79870400D01*
%TO.N,CAN_VCC*%
X162481100Y-83604200D02*
X162481100Y-90309800D01*
X160576100Y-82080200D02*
X160576100Y-82105600D01*
X161033300Y-82156400D02*
X160576100Y-82105600D01*
X164538500Y-78498800D02*
X160957100Y-82080200D01*
X160957100Y-82080200D02*
X160576100Y-82080200D01*
X170736100Y-77533600D02*
X168881900Y-75679400D01*
X165224300Y-75679400D02*
X164538500Y-76365200D01*
X164538500Y-76365200D02*
X164538500Y-78498800D01*
X161033300Y-82156400D02*
X162481100Y-83604200D01*
X168881900Y-75679400D02*
X165224300Y-75679400D01*
D29*
%TO.N,AN4*%
X154022900Y-113322200D02*
X154861100Y-112484000D01*
X154861100Y-112026800D02*
X154884100Y-112013600D01*
X154861100Y-112484000D02*
X154861100Y-112026800D01*
%TO.N,AN5*%
X154861100Y-111188600D02*
X154884100Y-111213600D01*
X151279700Y-111188600D02*
X154861100Y-111188600D01*
%TO.N,SCK1*%
X133906100Y-119418200D02*
X134210900Y-119113400D01*
X150670100Y-102273200D02*
X150746100Y-102275600D01*
X133906100Y-130043869D02*
X133906100Y-129593900D01*
X149755700Y-100596800D02*
X150670100Y-101511200D01*
X134210900Y-119113400D02*
X134210900Y-112255400D01*
X129638900Y-107683400D02*
X129638900Y-103721000D01*
X134210900Y-112255400D02*
X129638900Y-107683400D01*
X150670100Y-101511200D02*
X150670100Y-102273200D01*
X133906100Y-129593900D02*
X136500000Y-127000000D01*
X127581500Y-101663600D02*
X127556100Y-101663600D01*
X129638900Y-103721000D02*
X127581500Y-101663600D01*
X130629500Y-121129500D02*
X130629500Y-120256400D01*
X131467700Y-119418200D02*
X133906100Y-119418200D01*
X130629500Y-120256400D02*
X131467700Y-119418200D01*
X136500000Y-127000000D02*
X130629500Y-121129500D01*
%TO.N,SDI1*%
X126362300Y-93053000D02*
X138097100Y-93053000D01*
X125752700Y-97320200D02*
X125752700Y-93662600D01*
X146707700Y-101663600D02*
X146707700Y-102273200D01*
X125752700Y-93662600D02*
X126362300Y-93053000D01*
X138097100Y-93053000D02*
X146707700Y-101663600D01*
X146707700Y-102273200D02*
X146746100Y-102275600D01*
X127556100Y-99123600D02*
X125752700Y-97320200D01*
%TO.N,SDO1*%
X128415780Y-131796469D02*
X134693500Y-131796469D01*
X120647300Y-122999600D02*
X121942700Y-124295000D01*
X130019900Y-95567600D02*
X139849700Y-95567600D01*
X145945700Y-101663600D02*
X145945700Y-102273200D01*
X121942700Y-124295000D02*
X127810100Y-124295000D01*
X118132700Y-103797200D02*
X118132700Y-122390000D01*
X139849700Y-95567600D02*
X145945700Y-101663600D01*
X134693500Y-131796469D02*
X136446100Y-130043869D01*
X118742300Y-122999600D02*
X120647300Y-122999600D01*
X118132700Y-122390000D02*
X118742300Y-122999600D01*
X145945700Y-102273200D02*
X145946100Y-102275600D01*
X124076300Y-97853600D02*
X118132700Y-103797200D01*
X127810100Y-131190789D02*
X128415780Y-131796469D01*
X127810100Y-124295000D02*
X127810100Y-131190789D01*
%TO.N,CLOCKO*%
X154937300Y-105549800D02*
X154884100Y-105613600D01*
X156156500Y-105549800D02*
X154937300Y-105549800D01*
%TO.N,RELAY*%
X133906100Y-109283600D02*
X137182700Y-112560200D01*
X144802700Y-112560200D02*
X148231700Y-109131200D01*
X150289100Y-109131200D02*
X151508300Y-110350400D01*
X151508300Y-110350400D02*
X154861100Y-110350400D01*
X154861100Y-110350400D02*
X154884100Y-110413600D01*
X137182700Y-112560200D02*
X144802700Y-112560200D01*
X148231700Y-109131200D02*
X150289100Y-109131200D01*
%TO.N,MISC*%
X155851700Y-112407800D02*
X155851700Y-109969400D01*
X154937300Y-109664600D02*
X154884100Y-109613600D01*
X155546900Y-109664600D02*
X154937300Y-109664600D01*
X152270300Y-115989200D02*
X155851700Y-112407800D01*
X143507300Y-115989200D02*
X152270300Y-115989200D01*
X155851700Y-109969400D02*
X155546900Y-109664600D01*
%TO.N,RE2*%
X132153500Y-107226200D02*
X132686900Y-107759600D01*
X155699300Y-103416200D02*
X154099100Y-103416200D01*
X153946700Y-108750200D02*
X154861100Y-108750200D01*
X133906100Y-104254400D02*
X133906100Y-104203600D01*
X134591900Y-107759600D02*
X138782900Y-111950600D01*
X154861100Y-108750200D02*
X154884100Y-108813600D01*
X151736900Y-106540400D02*
X153946700Y-108750200D01*
X133906100Y-104254400D02*
X132153500Y-106007000D01*
X156156500Y-103873400D02*
X155699300Y-103416200D01*
X151736900Y-105778400D02*
X151736900Y-106540400D01*
X132686900Y-107759600D02*
X134591900Y-107759600D01*
X154099100Y-103416200D02*
X151736900Y-105778400D01*
X156156500Y-104254400D02*
X156156500Y-103873400D01*
X132153500Y-106007000D02*
X132153500Y-107226200D01*
X138782900Y-111950600D02*
X140230700Y-111950600D01*
%TO.N,MB_RX*%
X154937300Y-104864000D02*
X154884100Y-104813600D01*
X157070900Y-108369200D02*
X157070900Y-105549800D01*
X158594900Y-109893200D02*
X157070900Y-108369200D01*
X161871500Y-109436000D02*
X161414300Y-109893200D01*
X156385100Y-104864000D02*
X154937300Y-104864000D01*
X157070900Y-105549800D02*
X156385100Y-104864000D01*
X161414300Y-109893200D02*
X158594900Y-109893200D01*
X161871500Y-101282600D02*
X161871500Y-109436000D01*
%TO.N,MB_TX*%
X148079300Y-88709600D02*
X152346500Y-88709600D01*
X145564700Y-86195000D02*
X148079300Y-88709600D01*
X153489500Y-95720000D02*
X152346500Y-96863000D01*
X153489500Y-89852600D02*
X153489500Y-95720000D01*
X152346500Y-88709600D02*
X153489500Y-89852600D01*
X152346500Y-102273200D02*
X152346100Y-102275600D01*
X152346500Y-96863000D02*
X152346500Y-102273200D01*
%TO.N,RD5*%
X133906100Y-99301400D02*
X140154500Y-105549800D01*
X140154500Y-105549800D02*
X143354900Y-105549800D01*
X133906100Y-99123600D02*
X133906100Y-99301400D01*
X143354900Y-105549800D02*
X143408100Y-105613600D01*
%TO.N,RD7*%
X136420700Y-102425600D02*
X141145100Y-107150000D01*
X145488500Y-90919400D02*
X146174300Y-90233600D01*
X146174300Y-90233600D02*
X151686100Y-90233600D01*
X143354900Y-107150000D02*
X143408100Y-107213600D01*
X136115900Y-102425600D02*
X136420700Y-102425600D01*
X137487500Y-90919400D02*
X145488500Y-90919400D01*
X141145100Y-107150000D02*
X143354900Y-107150000D01*
%TO.N,RB5*%
X131848700Y-109436000D02*
X137182700Y-114770000D01*
X131848700Y-98691800D02*
X131848700Y-109436000D01*
X147545900Y-113779400D02*
X147546100Y-113751600D01*
X137182700Y-114770000D02*
X147088700Y-114770000D01*
X147088700Y-114770000D02*
X147545900Y-114312800D01*
X147545900Y-114312800D02*
X147545900Y-113779400D01*
D28*
%TO.N,V+*%
X160576100Y-126581000D02*
X169643900Y-117513200D01*
X169643900Y-117513200D02*
X169643900Y-116903600D01*
X169643900Y-116903600D02*
X169706100Y-116893600D01*
X160576100Y-129603600D02*
X160576100Y-126581000D01*
D29*
%TO.N,DERE*%
X150289100Y-104102000D02*
X150289100Y-105016400D01*
X151508300Y-102349400D02*
X151508300Y-102882800D01*
X151508300Y-102349400D02*
X151546100Y-102275600D01*
X147622100Y-93434000D02*
X151508300Y-97320200D01*
X149679500Y-105626000D02*
X148993700Y-105626000D01*
X147622100Y-90843200D02*
X147622100Y-93434000D01*
X151508300Y-102882800D02*
X150289100Y-104102000D01*
X148993700Y-105626000D02*
X148841300Y-105778400D01*
X150289100Y-105016400D02*
X149679500Y-105626000D01*
X151508300Y-102273200D02*
X151546100Y-102275600D01*
X151508300Y-97320200D02*
X151508300Y-102273200D01*
X148841300Y-105778400D02*
X144726500Y-105778400D01*
%TO.N,N$4*%
X160576100Y-107063600D02*
X160576100Y-102713600D01*
%TO.N,N$5*%
X163166900Y-106997600D02*
X163166900Y-102730400D01*
X163166900Y-106997600D02*
X163116100Y-107063600D01*
X163166900Y-102730400D02*
X163116100Y-102713600D01*
%TO.N,N$6*%
X165681500Y-106997600D02*
X165681500Y-102730400D01*
X165681500Y-102730400D02*
X165656100Y-102713600D01*
X165681500Y-106997600D02*
X165656100Y-107063600D01*
%TO.N,MLED*%
X155927900Y-103111400D02*
X153794300Y-103111400D01*
X158061500Y-108902600D02*
X157375700Y-108216800D01*
X143431100Y-110350400D02*
X143408100Y-110413600D01*
X160576100Y-108902600D02*
X158061500Y-108902600D01*
X153794300Y-103111400D02*
X146555300Y-110350400D01*
X157375700Y-108216800D02*
X157375700Y-104559200D01*
X160576100Y-108902600D02*
X160576100Y-108963600D01*
X146555300Y-110350400D02*
X143431100Y-110350400D01*
X157375700Y-104559200D02*
X155927900Y-103111400D01*
%TO.N,RLED*%
X143431100Y-111264800D02*
X143408100Y-111213600D01*
X163090700Y-108978800D02*
X161109500Y-110960000D01*
X161109500Y-110960000D02*
X156766100Y-110960000D01*
X145031300Y-111341000D02*
X144955100Y-111264800D01*
X144955100Y-111264800D02*
X143431100Y-111264800D01*
X163090700Y-108978800D02*
X163116100Y-108963600D01*
%TO.N,DLED*%
X161033300Y-112788800D02*
X164843300Y-108978800D01*
X136573100Y-101054000D02*
X140306900Y-104787800D01*
X141145100Y-111950600D02*
X143354900Y-111950600D01*
X164843300Y-108978800D02*
X165605300Y-108978800D01*
X143354900Y-111950600D02*
X143408100Y-112013600D01*
X156766100Y-112788800D02*
X161033300Y-112788800D01*
X135658700Y-103416200D02*
X135658700Y-106464200D01*
X135658700Y-106464200D02*
X141145100Y-111950600D01*
X165605300Y-108978800D02*
X165656100Y-108963600D01*
X133906100Y-101663600D02*
X135658700Y-103416200D01*
X143354900Y-104787800D02*
X143408100Y-104813600D01*
X140306900Y-104787800D02*
X143354900Y-104787800D01*
%TO.N,UC_TX*%
X145107500Y-102273200D02*
X145146100Y-102275600D01*
X127581500Y-94043600D02*
X131162900Y-97625000D01*
X139316300Y-97625000D02*
X143964500Y-102273200D01*
X143964500Y-102273200D02*
X145107500Y-102273200D01*
X127581500Y-94043600D02*
X127556100Y-94043600D01*
X131162900Y-97625000D02*
X139316300Y-97625000D01*
%TO.N,UC_RX*%
X127505300Y-86423600D02*
X127556100Y-86423600D01*
X126362300Y-100139600D02*
X128724500Y-100139600D01*
X135049100Y-98082200D02*
X140916500Y-103949600D01*
X125447900Y-88481000D02*
X125447900Y-99225200D01*
X127505300Y-86423600D02*
X125447900Y-88481000D01*
X143354900Y-103949600D02*
X143408100Y-104013600D01*
X125447900Y-99225200D02*
X126362300Y-100139600D01*
X140916500Y-103949600D02*
X143354900Y-103949600D01*
X128724500Y-100139600D02*
X130781900Y-98082200D01*
X130781900Y-98082200D02*
X135049100Y-98082200D01*
%TO.N,MB_A*%
X172920500Y-94958000D02*
X176120900Y-98158400D01*
X133906100Y-85052000D02*
X133906100Y-85128200D01*
X172920500Y-89319200D02*
X172920500Y-90919400D01*
X175358900Y-94043600D02*
X176120900Y-93281600D01*
X133906100Y-85128200D02*
X132686900Y-83909000D01*
X175358900Y-103340000D02*
X175358900Y-105473600D01*
X176120900Y-98158400D02*
X176120900Y-102578000D01*
X132686900Y-77584400D02*
X132636100Y-77533600D01*
X176120900Y-89319200D02*
X175968500Y-89166800D01*
X176120900Y-93281600D02*
X176120900Y-89319200D01*
X175358900Y-105473600D02*
X175308100Y-105473600D01*
X176120900Y-102578000D02*
X175358900Y-103340000D01*
X133906100Y-85052000D02*
X134820500Y-84137600D01*
X159661700Y-90919400D02*
X172920500Y-90919400D01*
X175968500Y-89166800D02*
X173072900Y-89166800D01*
X152879900Y-84137600D02*
X159661700Y-90919400D01*
X132686900Y-83909000D02*
X132686900Y-77584400D01*
X175358900Y-94043600D02*
X175308100Y-94043600D01*
X173072900Y-89166800D02*
X172920500Y-89319200D01*
X172920500Y-90919400D02*
X172920500Y-94958000D01*
X134820500Y-84137600D02*
X152879900Y-84137600D01*
%TO.N,MB_B*%
X130096100Y-77584400D02*
X130096100Y-77533600D01*
X175282700Y-90233600D02*
X175282700Y-92672000D01*
X130096100Y-77584400D02*
X129715100Y-77965400D01*
X175282700Y-98234600D02*
X175282700Y-101663600D01*
X152422700Y-86195000D02*
X164462300Y-98234600D01*
X149755700Y-85814000D02*
X150136700Y-86195000D01*
X164462300Y-98234600D02*
X175282700Y-98234600D01*
X150136700Y-86195000D02*
X152422700Y-86195000D01*
X129715100Y-77965400D02*
X129715100Y-83147000D01*
X175282700Y-101663600D02*
X175308100Y-101663600D01*
X175282700Y-90233600D02*
X175308100Y-90233600D01*
%TO.N,N$1*%
X171244100Y-120332600D02*
X172234700Y-121323200D01*
X172234700Y-121323200D02*
X172234700Y-121932800D01*
X173758700Y-101663600D02*
X173758700Y-105473600D01*
X173758700Y-105473600D02*
X173784100Y-105473600D01*
X171244100Y-107988200D02*
X171244100Y-120332600D01*
X173758700Y-105473600D02*
X171244100Y-107988200D01*
X172234700Y-121932800D02*
X172246100Y-121993600D01*
X173758700Y-101663600D02*
X173784100Y-101663600D01*
%TO.N,N$3*%
X173834900Y-94043600D02*
X173784100Y-94043600D01*
X173758700Y-90233600D02*
X173784100Y-90233600D01*
X173758700Y-94043600D02*
X173784100Y-94043600D01*
X173758700Y-90233600D02*
X173758700Y-94043600D01*
X176959100Y-114541400D02*
X172310900Y-119189600D01*
X173834900Y-94043600D02*
X173834900Y-94348400D01*
X173834900Y-94348400D02*
X176959100Y-97472600D01*
X172310900Y-119189600D02*
X172310900Y-119951600D01*
X172310900Y-119951600D02*
X172246100Y-119953600D01*
X176959100Y-97472600D02*
X176959100Y-114541400D01*
%TO.N,PC_RX2*%
X149908100Y-102349400D02*
X149946100Y-102275600D01*
X149908100Y-104483000D02*
X149908100Y-102349400D01*
X149374700Y-105016400D02*
X149908100Y-104483000D01*
%TO.N,PC_TX2*%
X143431100Y-106388000D02*
X143408100Y-106413600D01*
X149146100Y-106388000D02*
X143431100Y-106388000D01*
%TO.N,PGC*%
X148307900Y-113703200D02*
X148346100Y-113751600D01*
X148307900Y-111036200D02*
X148307900Y-113703200D01*
%TO.N,PGD*%
X149146100Y-111493400D02*
X149146100Y-113751600D01*
%TO.N,PC_TX2*%
X149298500Y-106235600D02*
X149146100Y-106388000D01*
%TO.N,PGD*%
X149374700Y-111264800D02*
X149146100Y-111493400D01*
%TO.N,SDO1*%
X136420700Y-130010000D02*
X136446100Y-130043869D01*
%TO.N,SCK1*%
X133906100Y-130010000D02*
X133906100Y-130043869D01*
X133525100Y-130010000D02*
X133906100Y-130010000D01*
D28*
%TO.N,VDD*%
X138706700Y-123304400D02*
X138666100Y-123268600D01*
%TD*%
%TA.AperFunction,Conductor*%
%TO.N,VSS*%
G36*
X140321434Y-106678266D02*
G01*
X140332300Y-106704500D01*
X140332300Y-109322700D01*
X140321434Y-109348934D01*
X140295200Y-109359800D01*
X138947000Y-109359800D01*
X138920766Y-109348934D01*
X138909900Y-109322700D01*
X138909900Y-106704500D01*
X138920766Y-106678266D01*
X138947000Y-106667400D01*
X140295200Y-106667400D01*
X140321434Y-106678266D01*
G37*
%TD.AperFunction*%
%TD*%
%TA.AperFunction,Conductor*%
%TO.N,VSS*%
G36*
X159371434Y-105408266D02*
G01*
X159382300Y-105434500D01*
X159382300Y-108052700D01*
X159371434Y-108078934D01*
X159345200Y-108089800D01*
X157997000Y-108089800D01*
X157970766Y-108078934D01*
X157959900Y-108052700D01*
X157959900Y-105434500D01*
X157970766Y-105408266D01*
X157997000Y-105397400D01*
X159345200Y-105397400D01*
X159371434Y-105408266D01*
G37*
%TD.AperFunction*%
%TD*%
M02*
