%TF.GenerationSoftware,KiCad,Pcbnew,8.0.6+dfsg-1*%
%TF.CreationDate,2024-12-08T15:12:26-08:00*%
%TF.ProjectId,dc_q84 v3,64635f71-3834-4207-9633-2e6b69636164,rev?*%
%TF.SameCoordinates,Original*%
%TF.FileFunction,Legend,Bot*%
%TF.FilePolarity,Positive*%
%FSLAX46Y46*%
G04 Gerber Fmt 4.6, Leading zero omitted, Abs format (unit mm)*
G04 Created by KiCad (PCBNEW 8.0.6+dfsg-1) date 2024-12-08 15:12:26*
%MOMM*%
%LPD*%
G01*
G04 APERTURE LIST*
%ADD10C,0.093472*%
%ADD11C,0.203200*%
%ADD12C,0.200000*%
%ADD13C,0.101600*%
G04 APERTURE END LIST*
D10*
X135330458Y-113229697D02*
X135274433Y-113285722D01*
X135274433Y-113285722D02*
X135218407Y-113453798D01*
X135218407Y-113453798D02*
X135218407Y-113565848D01*
X135218407Y-113565848D02*
X135274433Y-113733923D01*
X135274433Y-113733923D02*
X135386483Y-113845974D01*
X135386483Y-113845974D02*
X135498533Y-113901999D01*
X135498533Y-113901999D02*
X135722634Y-113958024D01*
X135722634Y-113958024D02*
X135890709Y-113958024D01*
X135890709Y-113958024D02*
X136114810Y-113901999D01*
X136114810Y-113901999D02*
X136226860Y-113845974D01*
X136226860Y-113845974D02*
X136338910Y-113733923D01*
X136338910Y-113733923D02*
X136394935Y-113565848D01*
X136394935Y-113565848D02*
X136394935Y-113453798D01*
X136394935Y-113453798D02*
X136338910Y-113285722D01*
X136338910Y-113285722D02*
X136282885Y-113229697D01*
X136002759Y-112221245D02*
X135218407Y-112221245D01*
X136450961Y-112501370D02*
X135610583Y-112781496D01*
X135610583Y-112781496D02*
X135610583Y-112053169D01*
X121248407Y-85924697D02*
X121808659Y-86316873D01*
X121248407Y-86596999D02*
X122424935Y-86596999D01*
X122424935Y-86596999D02*
X122424935Y-86148798D01*
X122424935Y-86148798D02*
X122368910Y-86036747D01*
X122368910Y-86036747D02*
X122312885Y-85980722D01*
X122312885Y-85980722D02*
X122200835Y-85924697D01*
X122200835Y-85924697D02*
X122032759Y-85924697D01*
X122032759Y-85924697D02*
X121920709Y-85980722D01*
X121920709Y-85980722D02*
X121864684Y-86036747D01*
X121864684Y-86036747D02*
X121808659Y-86148798D01*
X121808659Y-86148798D02*
X121808659Y-86596999D01*
X122424935Y-84916245D02*
X122424935Y-85140345D01*
X122424935Y-85140345D02*
X122368910Y-85252395D01*
X122368910Y-85252395D02*
X122312885Y-85308421D01*
X122312885Y-85308421D02*
X122144810Y-85420471D01*
X122144810Y-85420471D02*
X121920709Y-85476496D01*
X121920709Y-85476496D02*
X121472508Y-85476496D01*
X121472508Y-85476496D02*
X121360458Y-85420471D01*
X121360458Y-85420471D02*
X121304433Y-85364446D01*
X121304433Y-85364446D02*
X121248407Y-85252395D01*
X121248407Y-85252395D02*
X121248407Y-85028295D01*
X121248407Y-85028295D02*
X121304433Y-84916245D01*
X121304433Y-84916245D02*
X121360458Y-84860219D01*
X121360458Y-84860219D02*
X121472508Y-84804194D01*
X121472508Y-84804194D02*
X121752634Y-84804194D01*
X121752634Y-84804194D02*
X121864684Y-84860219D01*
X121864684Y-84860219D02*
X121920709Y-84916245D01*
X121920709Y-84916245D02*
X121976734Y-85028295D01*
X121976734Y-85028295D02*
X121976734Y-85252395D01*
X121976734Y-85252395D02*
X121920709Y-85364446D01*
X121920709Y-85364446D02*
X121864684Y-85420471D01*
X121864684Y-85420471D02*
X121752634Y-85476496D01*
X163753203Y-83510002D02*
X162800776Y-83510002D01*
X162800776Y-83510002D02*
X162688726Y-83453977D01*
X162688726Y-83453977D02*
X162632701Y-83397952D01*
X162632701Y-83397952D02*
X162576675Y-83285901D01*
X162576675Y-83285901D02*
X162576675Y-83061801D01*
X162576675Y-83061801D02*
X162632701Y-82949750D01*
X162632701Y-82949750D02*
X162688726Y-82893725D01*
X162688726Y-82893725D02*
X162800776Y-82837700D01*
X162800776Y-82837700D02*
X163753203Y-82837700D01*
X163641153Y-82333474D02*
X163697178Y-82277449D01*
X163697178Y-82277449D02*
X163753203Y-82165399D01*
X163753203Y-82165399D02*
X163753203Y-81885273D01*
X163753203Y-81885273D02*
X163697178Y-81773223D01*
X163697178Y-81773223D02*
X163641153Y-81717197D01*
X163641153Y-81717197D02*
X163529103Y-81661172D01*
X163529103Y-81661172D02*
X163417053Y-81661172D01*
X163417053Y-81661172D02*
X163248977Y-81717197D01*
X163248977Y-81717197D02*
X162576675Y-82389499D01*
X162576675Y-82389499D02*
X162576675Y-81661172D01*
X145592178Y-95052704D02*
X145648203Y-95108730D01*
X145648203Y-95108730D02*
X145816279Y-95164755D01*
X145816279Y-95164755D02*
X145928329Y-95164755D01*
X145928329Y-95164755D02*
X146096404Y-95108730D01*
X146096404Y-95108730D02*
X146208455Y-94996679D01*
X146208455Y-94996679D02*
X146264480Y-94884629D01*
X146264480Y-94884629D02*
X146320505Y-94660528D01*
X146320505Y-94660528D02*
X146320505Y-94492453D01*
X146320505Y-94492453D02*
X146264480Y-94268352D01*
X146264480Y-94268352D02*
X146208455Y-94156302D01*
X146208455Y-94156302D02*
X146096404Y-94044252D01*
X146096404Y-94044252D02*
X145928329Y-93988227D01*
X145928329Y-93988227D02*
X145816279Y-93988227D01*
X145816279Y-93988227D02*
X145648203Y-94044252D01*
X145648203Y-94044252D02*
X145592178Y-94100277D01*
X144471675Y-95164755D02*
X145143977Y-95164755D01*
X144807826Y-95164755D02*
X144807826Y-93988227D01*
X144807826Y-93988227D02*
X144919876Y-94156302D01*
X144919876Y-94156302D02*
X145031927Y-94268352D01*
X145031927Y-94268352D02*
X145143977Y-94324378D01*
X143799373Y-94492453D02*
X143911424Y-94436428D01*
X143911424Y-94436428D02*
X143967449Y-94380403D01*
X143967449Y-94380403D02*
X144023474Y-94268352D01*
X144023474Y-94268352D02*
X144023474Y-94212327D01*
X144023474Y-94212327D02*
X143967449Y-94100277D01*
X143967449Y-94100277D02*
X143911424Y-94044252D01*
X143911424Y-94044252D02*
X143799373Y-93988227D01*
X143799373Y-93988227D02*
X143575273Y-93988227D01*
X143575273Y-93988227D02*
X143463223Y-94044252D01*
X143463223Y-94044252D02*
X143407197Y-94100277D01*
X143407197Y-94100277D02*
X143351172Y-94212327D01*
X143351172Y-94212327D02*
X143351172Y-94268352D01*
X143351172Y-94268352D02*
X143407197Y-94380403D01*
X143407197Y-94380403D02*
X143463223Y-94436428D01*
X143463223Y-94436428D02*
X143575273Y-94492453D01*
X143575273Y-94492453D02*
X143799373Y-94492453D01*
X143799373Y-94492453D02*
X143911424Y-94548478D01*
X143911424Y-94548478D02*
X143967449Y-94604503D01*
X143967449Y-94604503D02*
X144023474Y-94716554D01*
X144023474Y-94716554D02*
X144023474Y-94940654D01*
X144023474Y-94940654D02*
X143967449Y-95052704D01*
X143967449Y-95052704D02*
X143911424Y-95108730D01*
X143911424Y-95108730D02*
X143799373Y-95164755D01*
X143799373Y-95164755D02*
X143575273Y-95164755D01*
X143575273Y-95164755D02*
X143463223Y-95108730D01*
X143463223Y-95108730D02*
X143407197Y-95052704D01*
X143407197Y-95052704D02*
X143351172Y-94940654D01*
X143351172Y-94940654D02*
X143351172Y-94716554D01*
X143351172Y-94716554D02*
X143407197Y-94604503D01*
X143407197Y-94604503D02*
X143463223Y-94548478D01*
X143463223Y-94548478D02*
X143575273Y-94492453D01*
X127692197Y-83729241D02*
X127748222Y-83785267D01*
X127748222Y-83785267D02*
X127916298Y-83841292D01*
X127916298Y-83841292D02*
X128028348Y-83841292D01*
X128028348Y-83841292D02*
X128196423Y-83785267D01*
X128196423Y-83785267D02*
X128308474Y-83673216D01*
X128308474Y-83673216D02*
X128364499Y-83561166D01*
X128364499Y-83561166D02*
X128420524Y-83337065D01*
X128420524Y-83337065D02*
X128420524Y-83168990D01*
X128420524Y-83168990D02*
X128364499Y-82944889D01*
X128364499Y-82944889D02*
X128308474Y-82832839D01*
X128308474Y-82832839D02*
X128196423Y-82720789D01*
X128196423Y-82720789D02*
X128028348Y-82664764D01*
X128028348Y-82664764D02*
X127916298Y-82664764D01*
X127916298Y-82664764D02*
X127748222Y-82720789D01*
X127748222Y-82720789D02*
X127692197Y-82776814D01*
X126571694Y-83841292D02*
X127243996Y-83841292D01*
X126907845Y-83841292D02*
X126907845Y-82664764D01*
X126907845Y-82664764D02*
X127019895Y-82832839D01*
X127019895Y-82832839D02*
X127131946Y-82944889D01*
X127131946Y-82944889D02*
X127243996Y-83000915D01*
X133527178Y-82464755D02*
X133919354Y-81904503D01*
X134199480Y-82464755D02*
X134199480Y-81288227D01*
X134199480Y-81288227D02*
X133751279Y-81288227D01*
X133751279Y-81288227D02*
X133639228Y-81344252D01*
X133639228Y-81344252D02*
X133583203Y-81400277D01*
X133583203Y-81400277D02*
X133527178Y-81512327D01*
X133527178Y-81512327D02*
X133527178Y-81680403D01*
X133527178Y-81680403D02*
X133583203Y-81792453D01*
X133583203Y-81792453D02*
X133639228Y-81848478D01*
X133639228Y-81848478D02*
X133751279Y-81904503D01*
X133751279Y-81904503D02*
X134199480Y-81904503D01*
X133078977Y-81400277D02*
X133022952Y-81344252D01*
X133022952Y-81344252D02*
X132910902Y-81288227D01*
X132910902Y-81288227D02*
X132630776Y-81288227D01*
X132630776Y-81288227D02*
X132518726Y-81344252D01*
X132518726Y-81344252D02*
X132462700Y-81400277D01*
X132462700Y-81400277D02*
X132406675Y-81512327D01*
X132406675Y-81512327D02*
X132406675Y-81624378D01*
X132406675Y-81624378D02*
X132462700Y-81792453D01*
X132462700Y-81792453D02*
X133135002Y-82464755D01*
X133135002Y-82464755D02*
X132406675Y-82464755D01*
X142417178Y-76114755D02*
X142809354Y-75554503D01*
X143089480Y-76114755D02*
X143089480Y-74938227D01*
X143089480Y-74938227D02*
X142641279Y-74938227D01*
X142641279Y-74938227D02*
X142529228Y-74994252D01*
X142529228Y-74994252D02*
X142473203Y-75050277D01*
X142473203Y-75050277D02*
X142417178Y-75162327D01*
X142417178Y-75162327D02*
X142417178Y-75330403D01*
X142417178Y-75330403D02*
X142473203Y-75442453D01*
X142473203Y-75442453D02*
X142529228Y-75498478D01*
X142529228Y-75498478D02*
X142641279Y-75554503D01*
X142641279Y-75554503D02*
X143089480Y-75554503D01*
X141296675Y-76114755D02*
X141968977Y-76114755D01*
X141632826Y-76114755D02*
X141632826Y-74938227D01*
X141632826Y-74938227D02*
X141744876Y-75106302D01*
X141744876Y-75106302D02*
X141856927Y-75218352D01*
X141856927Y-75218352D02*
X141968977Y-75274378D01*
X140176172Y-76114755D02*
X140848474Y-76114755D01*
X140512323Y-76114755D02*
X140512323Y-74938227D01*
X140512323Y-74938227D02*
X140624373Y-75106302D01*
X140624373Y-75106302D02*
X140736424Y-75218352D01*
X140736424Y-75218352D02*
X140848474Y-75274378D01*
X158022700Y-128291292D02*
X158414876Y-127731040D01*
X158695002Y-128291292D02*
X158695002Y-127114764D01*
X158695002Y-127114764D02*
X158246801Y-127114764D01*
X158246801Y-127114764D02*
X158134750Y-127170789D01*
X158134750Y-127170789D02*
X158078725Y-127226814D01*
X158078725Y-127226814D02*
X158022700Y-127338864D01*
X158022700Y-127338864D02*
X158022700Y-127506940D01*
X158022700Y-127506940D02*
X158078725Y-127618990D01*
X158078725Y-127618990D02*
X158134750Y-127675015D01*
X158134750Y-127675015D02*
X158246801Y-127731040D01*
X158246801Y-127731040D02*
X158695002Y-127731040D01*
X156902197Y-128291292D02*
X157574499Y-128291292D01*
X157238348Y-128291292D02*
X157238348Y-127114764D01*
X157238348Y-127114764D02*
X157350398Y-127282839D01*
X157350398Y-127282839D02*
X157462449Y-127394889D01*
X157462449Y-127394889D02*
X157574499Y-127450915D01*
X156453996Y-127226814D02*
X156397971Y-127170789D01*
X156397971Y-127170789D02*
X156285921Y-127114764D01*
X156285921Y-127114764D02*
X156005795Y-127114764D01*
X156005795Y-127114764D02*
X155893745Y-127170789D01*
X155893745Y-127170789D02*
X155837719Y-127226814D01*
X155837719Y-127226814D02*
X155781694Y-127338864D01*
X155781694Y-127338864D02*
X155781694Y-127450915D01*
X155781694Y-127450915D02*
X155837719Y-127618990D01*
X155837719Y-127618990D02*
X156510021Y-128291292D01*
X156510021Y-128291292D02*
X155781694Y-128291292D01*
X165912178Y-117912704D02*
X165968203Y-117968730D01*
X165968203Y-117968730D02*
X166136279Y-118024755D01*
X166136279Y-118024755D02*
X166248329Y-118024755D01*
X166248329Y-118024755D02*
X166416404Y-117968730D01*
X166416404Y-117968730D02*
X166528455Y-117856679D01*
X166528455Y-117856679D02*
X166584480Y-117744629D01*
X166584480Y-117744629D02*
X166640505Y-117520528D01*
X166640505Y-117520528D02*
X166640505Y-117352453D01*
X166640505Y-117352453D02*
X166584480Y-117128352D01*
X166584480Y-117128352D02*
X166528455Y-117016302D01*
X166528455Y-117016302D02*
X166416404Y-116904252D01*
X166416404Y-116904252D02*
X166248329Y-116848227D01*
X166248329Y-116848227D02*
X166136279Y-116848227D01*
X166136279Y-116848227D02*
X165968203Y-116904252D01*
X165968203Y-116904252D02*
X165912178Y-116960277D01*
X164791675Y-118024755D02*
X165463977Y-118024755D01*
X165127826Y-118024755D02*
X165127826Y-116848227D01*
X165127826Y-116848227D02*
X165239876Y-117016302D01*
X165239876Y-117016302D02*
X165351927Y-117128352D01*
X165351927Y-117128352D02*
X165463977Y-117184378D01*
X163783223Y-117240403D02*
X163783223Y-118024755D01*
X164063348Y-116792202D02*
X164343474Y-117632579D01*
X164343474Y-117632579D02*
X163615147Y-117632579D01*
X162102178Y-111562704D02*
X162158203Y-111618730D01*
X162158203Y-111618730D02*
X162326279Y-111674755D01*
X162326279Y-111674755D02*
X162438329Y-111674755D01*
X162438329Y-111674755D02*
X162606404Y-111618730D01*
X162606404Y-111618730D02*
X162718455Y-111506679D01*
X162718455Y-111506679D02*
X162774480Y-111394629D01*
X162774480Y-111394629D02*
X162830505Y-111170528D01*
X162830505Y-111170528D02*
X162830505Y-111002453D01*
X162830505Y-111002453D02*
X162774480Y-110778352D01*
X162774480Y-110778352D02*
X162718455Y-110666302D01*
X162718455Y-110666302D02*
X162606404Y-110554252D01*
X162606404Y-110554252D02*
X162438329Y-110498227D01*
X162438329Y-110498227D02*
X162326279Y-110498227D01*
X162326279Y-110498227D02*
X162158203Y-110554252D01*
X162158203Y-110554252D02*
X162102178Y-110610277D01*
X160981675Y-111674755D02*
X161653977Y-111674755D01*
X161317826Y-111674755D02*
X161317826Y-110498227D01*
X161317826Y-110498227D02*
X161429876Y-110666302D01*
X161429876Y-110666302D02*
X161541927Y-110778352D01*
X161541927Y-110778352D02*
X161653977Y-110834378D01*
X160533474Y-110610277D02*
X160477449Y-110554252D01*
X160477449Y-110554252D02*
X160365399Y-110498227D01*
X160365399Y-110498227D02*
X160085273Y-110498227D01*
X160085273Y-110498227D02*
X159973223Y-110554252D01*
X159973223Y-110554252D02*
X159917197Y-110610277D01*
X159917197Y-110610277D02*
X159861172Y-110722327D01*
X159861172Y-110722327D02*
X159861172Y-110834378D01*
X159861172Y-110834378D02*
X159917197Y-111002453D01*
X159917197Y-111002453D02*
X160589499Y-111674755D01*
X160589499Y-111674755D02*
X159861172Y-111674755D01*
X167817178Y-83734755D02*
X168209354Y-83174503D01*
X168489480Y-83734755D02*
X168489480Y-82558227D01*
X168489480Y-82558227D02*
X168041279Y-82558227D01*
X168041279Y-82558227D02*
X167929228Y-82614252D01*
X167929228Y-82614252D02*
X167873203Y-82670277D01*
X167873203Y-82670277D02*
X167817178Y-82782327D01*
X167817178Y-82782327D02*
X167817178Y-82950403D01*
X167817178Y-82950403D02*
X167873203Y-83062453D01*
X167873203Y-83062453D02*
X167929228Y-83118478D01*
X167929228Y-83118478D02*
X168041279Y-83174503D01*
X168041279Y-83174503D02*
X168489480Y-83174503D01*
X166696675Y-83734755D02*
X167368977Y-83734755D01*
X167032826Y-83734755D02*
X167032826Y-82558227D01*
X167032826Y-82558227D02*
X167144876Y-82726302D01*
X167144876Y-82726302D02*
X167256927Y-82838352D01*
X167256927Y-82838352D02*
X167368977Y-82894378D01*
X165968348Y-82558227D02*
X165856298Y-82558227D01*
X165856298Y-82558227D02*
X165744248Y-82614252D01*
X165744248Y-82614252D02*
X165688223Y-82670277D01*
X165688223Y-82670277D02*
X165632197Y-82782327D01*
X165632197Y-82782327D02*
X165576172Y-83006428D01*
X165576172Y-83006428D02*
X165576172Y-83286554D01*
X165576172Y-83286554D02*
X165632197Y-83510654D01*
X165632197Y-83510654D02*
X165688223Y-83622704D01*
X165688223Y-83622704D02*
X165744248Y-83678730D01*
X165744248Y-83678730D02*
X165856298Y-83734755D01*
X165856298Y-83734755D02*
X165968348Y-83734755D01*
X165968348Y-83734755D02*
X166080399Y-83678730D01*
X166080399Y-83678730D02*
X166136424Y-83622704D01*
X166136424Y-83622704D02*
X166192449Y-83510654D01*
X166192449Y-83510654D02*
X166248474Y-83286554D01*
X166248474Y-83286554D02*
X166248474Y-83006428D01*
X166248474Y-83006428D02*
X166192449Y-82782327D01*
X166192449Y-82782327D02*
X166136424Y-82670277D01*
X166136424Y-82670277D02*
X166080399Y-82614252D01*
X166080399Y-82614252D02*
X165968348Y-82558227D01*
X133527178Y-79924755D02*
X133919354Y-79364503D01*
X134199480Y-79924755D02*
X134199480Y-78748227D01*
X134199480Y-78748227D02*
X133751279Y-78748227D01*
X133751279Y-78748227D02*
X133639228Y-78804252D01*
X133639228Y-78804252D02*
X133583203Y-78860277D01*
X133583203Y-78860277D02*
X133527178Y-78972327D01*
X133527178Y-78972327D02*
X133527178Y-79140403D01*
X133527178Y-79140403D02*
X133583203Y-79252453D01*
X133583203Y-79252453D02*
X133639228Y-79308478D01*
X133639228Y-79308478D02*
X133751279Y-79364503D01*
X133751279Y-79364503D02*
X134199480Y-79364503D01*
X132462700Y-78748227D02*
X133022952Y-78748227D01*
X133022952Y-78748227D02*
X133078977Y-79308478D01*
X133078977Y-79308478D02*
X133022952Y-79252453D01*
X133022952Y-79252453D02*
X132910902Y-79196428D01*
X132910902Y-79196428D02*
X132630776Y-79196428D01*
X132630776Y-79196428D02*
X132518726Y-79252453D01*
X132518726Y-79252453D02*
X132462700Y-79308478D01*
X132462700Y-79308478D02*
X132406675Y-79420528D01*
X132406675Y-79420528D02*
X132406675Y-79700654D01*
X132406675Y-79700654D02*
X132462700Y-79812704D01*
X132462700Y-79812704D02*
X132518726Y-79868730D01*
X132518726Y-79868730D02*
X132630776Y-79924755D01*
X132630776Y-79924755D02*
X132910902Y-79924755D01*
X132910902Y-79924755D02*
X133022952Y-79868730D01*
X133022952Y-79868730D02*
X133078977Y-79812704D01*
X165912178Y-121722704D02*
X165968203Y-121778730D01*
X165968203Y-121778730D02*
X166136279Y-121834755D01*
X166136279Y-121834755D02*
X166248329Y-121834755D01*
X166248329Y-121834755D02*
X166416404Y-121778730D01*
X166416404Y-121778730D02*
X166528455Y-121666679D01*
X166528455Y-121666679D02*
X166584480Y-121554629D01*
X166584480Y-121554629D02*
X166640505Y-121330528D01*
X166640505Y-121330528D02*
X166640505Y-121162453D01*
X166640505Y-121162453D02*
X166584480Y-120938352D01*
X166584480Y-120938352D02*
X166528455Y-120826302D01*
X166528455Y-120826302D02*
X166416404Y-120714252D01*
X166416404Y-120714252D02*
X166248329Y-120658227D01*
X166248329Y-120658227D02*
X166136279Y-120658227D01*
X166136279Y-120658227D02*
X165968203Y-120714252D01*
X165968203Y-120714252D02*
X165912178Y-120770277D01*
X164791675Y-121834755D02*
X165463977Y-121834755D01*
X165127826Y-121834755D02*
X165127826Y-120658227D01*
X165127826Y-120658227D02*
X165239876Y-120826302D01*
X165239876Y-120826302D02*
X165351927Y-120938352D01*
X165351927Y-120938352D02*
X165463977Y-120994378D01*
X163727197Y-120658227D02*
X164287449Y-120658227D01*
X164287449Y-120658227D02*
X164343474Y-121218478D01*
X164343474Y-121218478D02*
X164287449Y-121162453D01*
X164287449Y-121162453D02*
X164175399Y-121106428D01*
X164175399Y-121106428D02*
X163895273Y-121106428D01*
X163895273Y-121106428D02*
X163783223Y-121162453D01*
X163783223Y-121162453D02*
X163727197Y-121218478D01*
X163727197Y-121218478D02*
X163671172Y-121330528D01*
X163671172Y-121330528D02*
X163671172Y-121610654D01*
X163671172Y-121610654D02*
X163727197Y-121722704D01*
X163727197Y-121722704D02*
X163783223Y-121778730D01*
X163783223Y-121778730D02*
X163895273Y-121834755D01*
X163895273Y-121834755D02*
X164175399Y-121834755D01*
X164175399Y-121834755D02*
X164287449Y-121778730D01*
X164287449Y-121778730D02*
X164343474Y-121722704D01*
X130250458Y-114350200D02*
X130194433Y-114406225D01*
X130194433Y-114406225D02*
X130138407Y-114574301D01*
X130138407Y-114574301D02*
X130138407Y-114686351D01*
X130138407Y-114686351D02*
X130194433Y-114854426D01*
X130194433Y-114854426D02*
X130306483Y-114966477D01*
X130306483Y-114966477D02*
X130418533Y-115022502D01*
X130418533Y-115022502D02*
X130642634Y-115078527D01*
X130642634Y-115078527D02*
X130810709Y-115078527D01*
X130810709Y-115078527D02*
X131034810Y-115022502D01*
X131034810Y-115022502D02*
X131146860Y-114966477D01*
X131146860Y-114966477D02*
X131258910Y-114854426D01*
X131258910Y-114854426D02*
X131314935Y-114686351D01*
X131314935Y-114686351D02*
X131314935Y-114574301D01*
X131314935Y-114574301D02*
X131258910Y-114406225D01*
X131258910Y-114406225D02*
X131202885Y-114350200D01*
X130138407Y-113229697D02*
X130138407Y-113901999D01*
X130138407Y-113565848D02*
X131314935Y-113565848D01*
X131314935Y-113565848D02*
X131146860Y-113677898D01*
X131146860Y-113677898D02*
X131034810Y-113789949D01*
X131034810Y-113789949D02*
X130978785Y-113901999D01*
X131314935Y-112221245D02*
X131314935Y-112445345D01*
X131314935Y-112445345D02*
X131258910Y-112557395D01*
X131258910Y-112557395D02*
X131202885Y-112613421D01*
X131202885Y-112613421D02*
X131034810Y-112725471D01*
X131034810Y-112725471D02*
X130810709Y-112781496D01*
X130810709Y-112781496D02*
X130362508Y-112781496D01*
X130362508Y-112781496D02*
X130250458Y-112725471D01*
X130250458Y-112725471D02*
X130194433Y-112669446D01*
X130194433Y-112669446D02*
X130138407Y-112557395D01*
X130138407Y-112557395D02*
X130138407Y-112333295D01*
X130138407Y-112333295D02*
X130194433Y-112221245D01*
X130194433Y-112221245D02*
X130250458Y-112165219D01*
X130250458Y-112165219D02*
X130362508Y-112109194D01*
X130362508Y-112109194D02*
X130642634Y-112109194D01*
X130642634Y-112109194D02*
X130754684Y-112165219D01*
X130754684Y-112165219D02*
X130810709Y-112221245D01*
X130810709Y-112221245D02*
X130866734Y-112333295D01*
X130866734Y-112333295D02*
X130866734Y-112557395D01*
X130866734Y-112557395D02*
X130810709Y-112669446D01*
X130810709Y-112669446D02*
X130754684Y-112725471D01*
X130754684Y-112725471D02*
X130642634Y-112781496D01*
X142674615Y-84423024D02*
X142674615Y-83246496D01*
X141442062Y-84310973D02*
X141498087Y-84366999D01*
X141498087Y-84366999D02*
X141666163Y-84423024D01*
X141666163Y-84423024D02*
X141778213Y-84423024D01*
X141778213Y-84423024D02*
X141946288Y-84366999D01*
X141946288Y-84366999D02*
X142058339Y-84254948D01*
X142058339Y-84254948D02*
X142114364Y-84142898D01*
X142114364Y-84142898D02*
X142170389Y-83918797D01*
X142170389Y-83918797D02*
X142170389Y-83750722D01*
X142170389Y-83750722D02*
X142114364Y-83526621D01*
X142114364Y-83526621D02*
X142058339Y-83414571D01*
X142058339Y-83414571D02*
X141946288Y-83302521D01*
X141946288Y-83302521D02*
X141778213Y-83246496D01*
X141778213Y-83246496D02*
X141666163Y-83246496D01*
X141666163Y-83246496D02*
X141498087Y-83302521D01*
X141498087Y-83302521D02*
X141442062Y-83358546D01*
X141049886Y-83246496D02*
X140321559Y-83246496D01*
X140321559Y-83246496D02*
X140713735Y-83694697D01*
X140713735Y-83694697D02*
X140545660Y-83694697D01*
X140545660Y-83694697D02*
X140433610Y-83750722D01*
X140433610Y-83750722D02*
X140377584Y-83806747D01*
X140377584Y-83806747D02*
X140321559Y-83918797D01*
X140321559Y-83918797D02*
X140321559Y-84198923D01*
X140321559Y-84198923D02*
X140377584Y-84310973D01*
X140377584Y-84310973D02*
X140433610Y-84366999D01*
X140433610Y-84366999D02*
X140545660Y-84423024D01*
X140545660Y-84423024D02*
X140881811Y-84423024D01*
X140881811Y-84423024D02*
X140993861Y-84366999D01*
X140993861Y-84366999D02*
X141049886Y-84310973D01*
X151840458Y-103069697D02*
X151784433Y-103125722D01*
X151784433Y-103125722D02*
X151728407Y-103293798D01*
X151728407Y-103293798D02*
X151728407Y-103405848D01*
X151728407Y-103405848D02*
X151784433Y-103573923D01*
X151784433Y-103573923D02*
X151896483Y-103685974D01*
X151896483Y-103685974D02*
X152008533Y-103741999D01*
X152008533Y-103741999D02*
X152232634Y-103798024D01*
X152232634Y-103798024D02*
X152400709Y-103798024D01*
X152400709Y-103798024D02*
X152624810Y-103741999D01*
X152624810Y-103741999D02*
X152736860Y-103685974D01*
X152736860Y-103685974D02*
X152848910Y-103573923D01*
X152848910Y-103573923D02*
X152904935Y-103405848D01*
X152904935Y-103405848D02*
X152904935Y-103293798D01*
X152904935Y-103293798D02*
X152848910Y-103125722D01*
X152848910Y-103125722D02*
X152792885Y-103069697D01*
X151728407Y-102509446D02*
X151728407Y-102285345D01*
X151728407Y-102285345D02*
X151784433Y-102173295D01*
X151784433Y-102173295D02*
X151840458Y-102117270D01*
X151840458Y-102117270D02*
X152008533Y-102005219D01*
X152008533Y-102005219D02*
X152232634Y-101949194D01*
X152232634Y-101949194D02*
X152680835Y-101949194D01*
X152680835Y-101949194D02*
X152792885Y-102005219D01*
X152792885Y-102005219D02*
X152848910Y-102061245D01*
X152848910Y-102061245D02*
X152904935Y-102173295D01*
X152904935Y-102173295D02*
X152904935Y-102397395D01*
X152904935Y-102397395D02*
X152848910Y-102509446D01*
X152848910Y-102509446D02*
X152792885Y-102565471D01*
X152792885Y-102565471D02*
X152680835Y-102621496D01*
X152680835Y-102621496D02*
X152400709Y-102621496D01*
X152400709Y-102621496D02*
X152288659Y-102565471D01*
X152288659Y-102565471D02*
X152232634Y-102509446D01*
X152232634Y-102509446D02*
X152176609Y-102397395D01*
X152176609Y-102397395D02*
X152176609Y-102173295D01*
X152176609Y-102173295D02*
X152232634Y-102061245D01*
X152232634Y-102061245D02*
X152288659Y-102005219D01*
X152288659Y-102005219D02*
X152400709Y-101949194D01*
X145592178Y-97592704D02*
X145648203Y-97648730D01*
X145648203Y-97648730D02*
X145816279Y-97704755D01*
X145816279Y-97704755D02*
X145928329Y-97704755D01*
X145928329Y-97704755D02*
X146096404Y-97648730D01*
X146096404Y-97648730D02*
X146208455Y-97536679D01*
X146208455Y-97536679D02*
X146264480Y-97424629D01*
X146264480Y-97424629D02*
X146320505Y-97200528D01*
X146320505Y-97200528D02*
X146320505Y-97032453D01*
X146320505Y-97032453D02*
X146264480Y-96808352D01*
X146264480Y-96808352D02*
X146208455Y-96696302D01*
X146208455Y-96696302D02*
X146096404Y-96584252D01*
X146096404Y-96584252D02*
X145928329Y-96528227D01*
X145928329Y-96528227D02*
X145816279Y-96528227D01*
X145816279Y-96528227D02*
X145648203Y-96584252D01*
X145648203Y-96584252D02*
X145592178Y-96640277D01*
X144471675Y-97704755D02*
X145143977Y-97704755D01*
X144807826Y-97704755D02*
X144807826Y-96528227D01*
X144807826Y-96528227D02*
X144919876Y-96696302D01*
X144919876Y-96696302D02*
X145031927Y-96808352D01*
X145031927Y-96808352D02*
X145143977Y-96864378D01*
X143911424Y-97704755D02*
X143687323Y-97704755D01*
X143687323Y-97704755D02*
X143575273Y-97648730D01*
X143575273Y-97648730D02*
X143519248Y-97592704D01*
X143519248Y-97592704D02*
X143407197Y-97424629D01*
X143407197Y-97424629D02*
X143351172Y-97200528D01*
X143351172Y-97200528D02*
X143351172Y-96752327D01*
X143351172Y-96752327D02*
X143407197Y-96640277D01*
X143407197Y-96640277D02*
X143463223Y-96584252D01*
X143463223Y-96584252D02*
X143575273Y-96528227D01*
X143575273Y-96528227D02*
X143799373Y-96528227D01*
X143799373Y-96528227D02*
X143911424Y-96584252D01*
X143911424Y-96584252D02*
X143967449Y-96640277D01*
X143967449Y-96640277D02*
X144023474Y-96752327D01*
X144023474Y-96752327D02*
X144023474Y-97032453D01*
X144023474Y-97032453D02*
X143967449Y-97144503D01*
X143967449Y-97144503D02*
X143911424Y-97200528D01*
X143911424Y-97200528D02*
X143799373Y-97256554D01*
X143799373Y-97256554D02*
X143575273Y-97256554D01*
X143575273Y-97256554D02*
X143463223Y-97200528D01*
X143463223Y-97200528D02*
X143407197Y-97144503D01*
X143407197Y-97144503D02*
X143351172Y-97032453D01*
X163372178Y-92512704D02*
X163428203Y-92568730D01*
X163428203Y-92568730D02*
X163596279Y-92624755D01*
X163596279Y-92624755D02*
X163708329Y-92624755D01*
X163708329Y-92624755D02*
X163876404Y-92568730D01*
X163876404Y-92568730D02*
X163988455Y-92456679D01*
X163988455Y-92456679D02*
X164044480Y-92344629D01*
X164044480Y-92344629D02*
X164100505Y-92120528D01*
X164100505Y-92120528D02*
X164100505Y-91952453D01*
X164100505Y-91952453D02*
X164044480Y-91728352D01*
X164044480Y-91728352D02*
X163988455Y-91616302D01*
X163988455Y-91616302D02*
X163876404Y-91504252D01*
X163876404Y-91504252D02*
X163708329Y-91448227D01*
X163708329Y-91448227D02*
X163596279Y-91448227D01*
X163596279Y-91448227D02*
X163428203Y-91504252D01*
X163428203Y-91504252D02*
X163372178Y-91560277D01*
X162980002Y-91448227D02*
X162195650Y-91448227D01*
X162195650Y-91448227D02*
X162699876Y-92624755D01*
X132790458Y-120700200D02*
X132734433Y-120756225D01*
X132734433Y-120756225D02*
X132678407Y-120924301D01*
X132678407Y-120924301D02*
X132678407Y-121036351D01*
X132678407Y-121036351D02*
X132734433Y-121204426D01*
X132734433Y-121204426D02*
X132846483Y-121316477D01*
X132846483Y-121316477D02*
X132958533Y-121372502D01*
X132958533Y-121372502D02*
X133182634Y-121428527D01*
X133182634Y-121428527D02*
X133350709Y-121428527D01*
X133350709Y-121428527D02*
X133574810Y-121372502D01*
X133574810Y-121372502D02*
X133686860Y-121316477D01*
X133686860Y-121316477D02*
X133798910Y-121204426D01*
X133798910Y-121204426D02*
X133854935Y-121036351D01*
X133854935Y-121036351D02*
X133854935Y-120924301D01*
X133854935Y-120924301D02*
X133798910Y-120756225D01*
X133798910Y-120756225D02*
X133742885Y-120700200D01*
X132678407Y-119579697D02*
X132678407Y-120251999D01*
X132678407Y-119915848D02*
X133854935Y-119915848D01*
X133854935Y-119915848D02*
X133686860Y-120027898D01*
X133686860Y-120027898D02*
X133574810Y-120139949D01*
X133574810Y-120139949D02*
X133518785Y-120251999D01*
X132678407Y-118459194D02*
X132678407Y-119131496D01*
X132678407Y-118795345D02*
X133854935Y-118795345D01*
X133854935Y-118795345D02*
X133686860Y-118907395D01*
X133686860Y-118907395D02*
X133574810Y-119019446D01*
X133574810Y-119019446D02*
X133518785Y-119131496D01*
X158190458Y-103069697D02*
X158134433Y-103125722D01*
X158134433Y-103125722D02*
X158078407Y-103293798D01*
X158078407Y-103293798D02*
X158078407Y-103405848D01*
X158078407Y-103405848D02*
X158134433Y-103573923D01*
X158134433Y-103573923D02*
X158246483Y-103685974D01*
X158246483Y-103685974D02*
X158358533Y-103741999D01*
X158358533Y-103741999D02*
X158582634Y-103798024D01*
X158582634Y-103798024D02*
X158750709Y-103798024D01*
X158750709Y-103798024D02*
X158974810Y-103741999D01*
X158974810Y-103741999D02*
X159086860Y-103685974D01*
X159086860Y-103685974D02*
X159198910Y-103573923D01*
X159198910Y-103573923D02*
X159254935Y-103405848D01*
X159254935Y-103405848D02*
X159254935Y-103293798D01*
X159254935Y-103293798D02*
X159198910Y-103125722D01*
X159198910Y-103125722D02*
X159142885Y-103069697D01*
X159254935Y-102005219D02*
X159254935Y-102565471D01*
X159254935Y-102565471D02*
X158694684Y-102621496D01*
X158694684Y-102621496D02*
X158750709Y-102565471D01*
X158750709Y-102565471D02*
X158806734Y-102453421D01*
X158806734Y-102453421D02*
X158806734Y-102173295D01*
X158806734Y-102173295D02*
X158750709Y-102061245D01*
X158750709Y-102061245D02*
X158694684Y-102005219D01*
X158694684Y-102005219D02*
X158582634Y-101949194D01*
X158582634Y-101949194D02*
X158302508Y-101949194D01*
X158302508Y-101949194D02*
X158190458Y-102005219D01*
X158190458Y-102005219D02*
X158134433Y-102061245D01*
X158134433Y-102061245D02*
X158078407Y-102173295D01*
X158078407Y-102173295D02*
X158078407Y-102453421D01*
X158078407Y-102453421D02*
X158134433Y-102565471D01*
X158134433Y-102565471D02*
X158190458Y-102621496D01*
X148030458Y-104190200D02*
X147974433Y-104246225D01*
X147974433Y-104246225D02*
X147918407Y-104414301D01*
X147918407Y-104414301D02*
X147918407Y-104526351D01*
X147918407Y-104526351D02*
X147974433Y-104694426D01*
X147974433Y-104694426D02*
X148086483Y-104806477D01*
X148086483Y-104806477D02*
X148198533Y-104862502D01*
X148198533Y-104862502D02*
X148422634Y-104918527D01*
X148422634Y-104918527D02*
X148590709Y-104918527D01*
X148590709Y-104918527D02*
X148814810Y-104862502D01*
X148814810Y-104862502D02*
X148926860Y-104806477D01*
X148926860Y-104806477D02*
X149038910Y-104694426D01*
X149038910Y-104694426D02*
X149094935Y-104526351D01*
X149094935Y-104526351D02*
X149094935Y-104414301D01*
X149094935Y-104414301D02*
X149038910Y-104246225D01*
X149038910Y-104246225D02*
X148982885Y-104190200D01*
X147918407Y-103069697D02*
X147918407Y-103741999D01*
X147918407Y-103405848D02*
X149094935Y-103405848D01*
X149094935Y-103405848D02*
X148926860Y-103517898D01*
X148926860Y-103517898D02*
X148814810Y-103629949D01*
X148814810Y-103629949D02*
X148758785Y-103741999D01*
X149094935Y-102341370D02*
X149094935Y-102229320D01*
X149094935Y-102229320D02*
X149038910Y-102117270D01*
X149038910Y-102117270D02*
X148982885Y-102061245D01*
X148982885Y-102061245D02*
X148870835Y-102005219D01*
X148870835Y-102005219D02*
X148646734Y-101949194D01*
X148646734Y-101949194D02*
X148366609Y-101949194D01*
X148366609Y-101949194D02*
X148142508Y-102005219D01*
X148142508Y-102005219D02*
X148030458Y-102061245D01*
X148030458Y-102061245D02*
X147974433Y-102117270D01*
X147974433Y-102117270D02*
X147918407Y-102229320D01*
X147918407Y-102229320D02*
X147918407Y-102341370D01*
X147918407Y-102341370D02*
X147974433Y-102453421D01*
X147974433Y-102453421D02*
X148030458Y-102509446D01*
X148030458Y-102509446D02*
X148142508Y-102565471D01*
X148142508Y-102565471D02*
X148366609Y-102621496D01*
X148366609Y-102621496D02*
X148646734Y-102621496D01*
X148646734Y-102621496D02*
X148870835Y-102565471D01*
X148870835Y-102565471D02*
X148982885Y-102509446D01*
X148982885Y-102509446D02*
X149038910Y-102453421D01*
X149038910Y-102453421D02*
X149094935Y-102341370D01*
X162000458Y-103069697D02*
X161944433Y-103125722D01*
X161944433Y-103125722D02*
X161888407Y-103293798D01*
X161888407Y-103293798D02*
X161888407Y-103405848D01*
X161888407Y-103405848D02*
X161944433Y-103573923D01*
X161944433Y-103573923D02*
X162056483Y-103685974D01*
X162056483Y-103685974D02*
X162168533Y-103741999D01*
X162168533Y-103741999D02*
X162392634Y-103798024D01*
X162392634Y-103798024D02*
X162560709Y-103798024D01*
X162560709Y-103798024D02*
X162784810Y-103741999D01*
X162784810Y-103741999D02*
X162896860Y-103685974D01*
X162896860Y-103685974D02*
X163008910Y-103573923D01*
X163008910Y-103573923D02*
X163064935Y-103405848D01*
X163064935Y-103405848D02*
X163064935Y-103293798D01*
X163064935Y-103293798D02*
X163008910Y-103125722D01*
X163008910Y-103125722D02*
X162952885Y-103069697D01*
X163064935Y-102061245D02*
X163064935Y-102285345D01*
X163064935Y-102285345D02*
X163008910Y-102397395D01*
X163008910Y-102397395D02*
X162952885Y-102453421D01*
X162952885Y-102453421D02*
X162784810Y-102565471D01*
X162784810Y-102565471D02*
X162560709Y-102621496D01*
X162560709Y-102621496D02*
X162112508Y-102621496D01*
X162112508Y-102621496D02*
X162000458Y-102565471D01*
X162000458Y-102565471D02*
X161944433Y-102509446D01*
X161944433Y-102509446D02*
X161888407Y-102397395D01*
X161888407Y-102397395D02*
X161888407Y-102173295D01*
X161888407Y-102173295D02*
X161944433Y-102061245D01*
X161944433Y-102061245D02*
X162000458Y-102005219D01*
X162000458Y-102005219D02*
X162112508Y-101949194D01*
X162112508Y-101949194D02*
X162392634Y-101949194D01*
X162392634Y-101949194D02*
X162504684Y-102005219D01*
X162504684Y-102005219D02*
X162560709Y-102061245D01*
X162560709Y-102061245D02*
X162616734Y-102173295D01*
X162616734Y-102173295D02*
X162616734Y-102397395D01*
X162616734Y-102397395D02*
X162560709Y-102509446D01*
X162560709Y-102509446D02*
X162504684Y-102565471D01*
X162504684Y-102565471D02*
X162392634Y-102621496D01*
X127177178Y-82464755D02*
X127569354Y-81904503D01*
X127849480Y-82464755D02*
X127849480Y-81288227D01*
X127849480Y-81288227D02*
X127401279Y-81288227D01*
X127401279Y-81288227D02*
X127289228Y-81344252D01*
X127289228Y-81344252D02*
X127233203Y-81400277D01*
X127233203Y-81400277D02*
X127177178Y-81512327D01*
X127177178Y-81512327D02*
X127177178Y-81680403D01*
X127177178Y-81680403D02*
X127233203Y-81792453D01*
X127233203Y-81792453D02*
X127289228Y-81848478D01*
X127289228Y-81848478D02*
X127401279Y-81904503D01*
X127401279Y-81904503D02*
X127849480Y-81904503D01*
X126056675Y-82464755D02*
X126728977Y-82464755D01*
X126392826Y-82464755D02*
X126392826Y-81288227D01*
X126392826Y-81288227D02*
X126504876Y-81456302D01*
X126504876Y-81456302D02*
X126616927Y-81568352D01*
X126616927Y-81568352D02*
X126728977Y-81624378D01*
X152345530Y-105799227D02*
X151561178Y-105799227D01*
X151561178Y-105799227D02*
X152345530Y-106975755D01*
X152345530Y-106975755D02*
X151561178Y-106975755D01*
X151112977Y-106359478D02*
X150720801Y-106359478D01*
X150552725Y-106975755D02*
X151112977Y-106975755D01*
X151112977Y-106975755D02*
X151112977Y-105799227D01*
X151112977Y-105799227D02*
X150552725Y-105799227D01*
X150048499Y-106975755D02*
X150048499Y-105799227D01*
X150048499Y-105799227D02*
X149376197Y-106975755D01*
X149376197Y-106975755D02*
X149376197Y-105799227D01*
X148815946Y-106359478D02*
X148423770Y-106359478D01*
X148255694Y-106975755D02*
X148815946Y-106975755D01*
X148815946Y-106975755D02*
X148815946Y-105799227D01*
X148815946Y-105799227D02*
X148255694Y-105799227D01*
X147079166Y-106975755D02*
X147471342Y-106415503D01*
X147751468Y-106975755D02*
X147751468Y-105799227D01*
X147751468Y-105799227D02*
X147303267Y-105799227D01*
X147303267Y-105799227D02*
X147191216Y-105855252D01*
X147191216Y-105855252D02*
X147135191Y-105911277D01*
X147135191Y-105911277D02*
X147079166Y-106023327D01*
X147079166Y-106023327D02*
X147079166Y-106191403D01*
X147079166Y-106191403D02*
X147135191Y-106303453D01*
X147135191Y-106303453D02*
X147191216Y-106359478D01*
X147191216Y-106359478D02*
X147303267Y-106415503D01*
X147303267Y-106415503D02*
X147751468Y-106415503D01*
X146350839Y-105799227D02*
X146238789Y-105799227D01*
X146238789Y-105799227D02*
X146126739Y-105855252D01*
X146126739Y-105855252D02*
X146070714Y-105911277D01*
X146070714Y-105911277D02*
X146014688Y-106023327D01*
X146014688Y-106023327D02*
X145958663Y-106247428D01*
X145958663Y-106247428D02*
X145958663Y-106527554D01*
X145958663Y-106527554D02*
X146014688Y-106751654D01*
X146014688Y-106751654D02*
X146070714Y-106863704D01*
X146070714Y-106863704D02*
X146126739Y-106919730D01*
X146126739Y-106919730D02*
X146238789Y-106975755D01*
X146238789Y-106975755D02*
X146350839Y-106975755D01*
X146350839Y-106975755D02*
X146462890Y-106919730D01*
X146462890Y-106919730D02*
X146518915Y-106863704D01*
X146518915Y-106863704D02*
X146574940Y-106751654D01*
X146574940Y-106751654D02*
X146630965Y-106527554D01*
X146630965Y-106527554D02*
X146630965Y-106247428D01*
X146630965Y-106247428D02*
X146574940Y-106023327D01*
X146574940Y-106023327D02*
X146518915Y-105911277D01*
X146518915Y-105911277D02*
X146462890Y-105855252D01*
X146462890Y-105855252D02*
X146350839Y-105799227D01*
X126440458Y-114350200D02*
X126384433Y-114406225D01*
X126384433Y-114406225D02*
X126328407Y-114574301D01*
X126328407Y-114574301D02*
X126328407Y-114686351D01*
X126328407Y-114686351D02*
X126384433Y-114854426D01*
X126384433Y-114854426D02*
X126496483Y-114966477D01*
X126496483Y-114966477D02*
X126608533Y-115022502D01*
X126608533Y-115022502D02*
X126832634Y-115078527D01*
X126832634Y-115078527D02*
X127000709Y-115078527D01*
X127000709Y-115078527D02*
X127224810Y-115022502D01*
X127224810Y-115022502D02*
X127336860Y-114966477D01*
X127336860Y-114966477D02*
X127448910Y-114854426D01*
X127448910Y-114854426D02*
X127504935Y-114686351D01*
X127504935Y-114686351D02*
X127504935Y-114574301D01*
X127504935Y-114574301D02*
X127448910Y-114406225D01*
X127448910Y-114406225D02*
X127392885Y-114350200D01*
X126328407Y-113229697D02*
X126328407Y-113901999D01*
X126328407Y-113565848D02*
X127504935Y-113565848D01*
X127504935Y-113565848D02*
X127336860Y-113677898D01*
X127336860Y-113677898D02*
X127224810Y-113789949D01*
X127224810Y-113789949D02*
X127168785Y-113901999D01*
X127504935Y-112837521D02*
X127504935Y-112053169D01*
X127504935Y-112053169D02*
X126328407Y-112557395D01*
X163372178Y-96322704D02*
X163428203Y-96378730D01*
X163428203Y-96378730D02*
X163596279Y-96434755D01*
X163596279Y-96434755D02*
X163708329Y-96434755D01*
X163708329Y-96434755D02*
X163876404Y-96378730D01*
X163876404Y-96378730D02*
X163988455Y-96266679D01*
X163988455Y-96266679D02*
X164044480Y-96154629D01*
X164044480Y-96154629D02*
X164100505Y-95930528D01*
X164100505Y-95930528D02*
X164100505Y-95762453D01*
X164100505Y-95762453D02*
X164044480Y-95538352D01*
X164044480Y-95538352D02*
X163988455Y-95426302D01*
X163988455Y-95426302D02*
X163876404Y-95314252D01*
X163876404Y-95314252D02*
X163708329Y-95258227D01*
X163708329Y-95258227D02*
X163596279Y-95258227D01*
X163596279Y-95258227D02*
X163428203Y-95314252D01*
X163428203Y-95314252D02*
X163372178Y-95370277D01*
X162699876Y-95762453D02*
X162811927Y-95706428D01*
X162811927Y-95706428D02*
X162867952Y-95650403D01*
X162867952Y-95650403D02*
X162923977Y-95538352D01*
X162923977Y-95538352D02*
X162923977Y-95482327D01*
X162923977Y-95482327D02*
X162867952Y-95370277D01*
X162867952Y-95370277D02*
X162811927Y-95314252D01*
X162811927Y-95314252D02*
X162699876Y-95258227D01*
X162699876Y-95258227D02*
X162475776Y-95258227D01*
X162475776Y-95258227D02*
X162363726Y-95314252D01*
X162363726Y-95314252D02*
X162307700Y-95370277D01*
X162307700Y-95370277D02*
X162251675Y-95482327D01*
X162251675Y-95482327D02*
X162251675Y-95538352D01*
X162251675Y-95538352D02*
X162307700Y-95650403D01*
X162307700Y-95650403D02*
X162363726Y-95706428D01*
X162363726Y-95706428D02*
X162475776Y-95762453D01*
X162475776Y-95762453D02*
X162699876Y-95762453D01*
X162699876Y-95762453D02*
X162811927Y-95818478D01*
X162811927Y-95818478D02*
X162867952Y-95874503D01*
X162867952Y-95874503D02*
X162923977Y-95986554D01*
X162923977Y-95986554D02*
X162923977Y-96210654D01*
X162923977Y-96210654D02*
X162867952Y-96322704D01*
X162867952Y-96322704D02*
X162811927Y-96378730D01*
X162811927Y-96378730D02*
X162699876Y-96434755D01*
X162699876Y-96434755D02*
X162475776Y-96434755D01*
X162475776Y-96434755D02*
X162363726Y-96378730D01*
X162363726Y-96378730D02*
X162307700Y-96322704D01*
X162307700Y-96322704D02*
X162251675Y-96210654D01*
X162251675Y-96210654D02*
X162251675Y-95986554D01*
X162251675Y-95986554D02*
X162307700Y-95874503D01*
X162307700Y-95874503D02*
X162363726Y-95818478D01*
X162363726Y-95818478D02*
X162475776Y-95762453D01*
X162102178Y-109022704D02*
X162158203Y-109078730D01*
X162158203Y-109078730D02*
X162326279Y-109134755D01*
X162326279Y-109134755D02*
X162438329Y-109134755D01*
X162438329Y-109134755D02*
X162606404Y-109078730D01*
X162606404Y-109078730D02*
X162718455Y-108966679D01*
X162718455Y-108966679D02*
X162774480Y-108854629D01*
X162774480Y-108854629D02*
X162830505Y-108630528D01*
X162830505Y-108630528D02*
X162830505Y-108462453D01*
X162830505Y-108462453D02*
X162774480Y-108238352D01*
X162774480Y-108238352D02*
X162718455Y-108126302D01*
X162718455Y-108126302D02*
X162606404Y-108014252D01*
X162606404Y-108014252D02*
X162438329Y-107958227D01*
X162438329Y-107958227D02*
X162326279Y-107958227D01*
X162326279Y-107958227D02*
X162158203Y-108014252D01*
X162158203Y-108014252D02*
X162102178Y-108070277D01*
X160981675Y-109134755D02*
X161653977Y-109134755D01*
X161317826Y-109134755D02*
X161317826Y-107958227D01*
X161317826Y-107958227D02*
X161429876Y-108126302D01*
X161429876Y-108126302D02*
X161541927Y-108238352D01*
X161541927Y-108238352D02*
X161653977Y-108294378D01*
X160589499Y-107958227D02*
X159861172Y-107958227D01*
X159861172Y-107958227D02*
X160253348Y-108406428D01*
X160253348Y-108406428D02*
X160085273Y-108406428D01*
X160085273Y-108406428D02*
X159973223Y-108462453D01*
X159973223Y-108462453D02*
X159917197Y-108518478D01*
X159917197Y-108518478D02*
X159861172Y-108630528D01*
X159861172Y-108630528D02*
X159861172Y-108910654D01*
X159861172Y-108910654D02*
X159917197Y-109022704D01*
X159917197Y-109022704D02*
X159973223Y-109078730D01*
X159973223Y-109078730D02*
X160085273Y-109134755D01*
X160085273Y-109134755D02*
X160421424Y-109134755D01*
X160421424Y-109134755D02*
X160533474Y-109078730D01*
X160533474Y-109078730D02*
X160589499Y-109022704D01*
X141680458Y-108149697D02*
X141624433Y-108205722D01*
X141624433Y-108205722D02*
X141568407Y-108373798D01*
X141568407Y-108373798D02*
X141568407Y-108485848D01*
X141568407Y-108485848D02*
X141624433Y-108653923D01*
X141624433Y-108653923D02*
X141736483Y-108765974D01*
X141736483Y-108765974D02*
X141848533Y-108821999D01*
X141848533Y-108821999D02*
X142072634Y-108878024D01*
X142072634Y-108878024D02*
X142240709Y-108878024D01*
X142240709Y-108878024D02*
X142464810Y-108821999D01*
X142464810Y-108821999D02*
X142576860Y-108765974D01*
X142576860Y-108765974D02*
X142688910Y-108653923D01*
X142688910Y-108653923D02*
X142744935Y-108485848D01*
X142744935Y-108485848D02*
X142744935Y-108373798D01*
X142744935Y-108373798D02*
X142688910Y-108205722D01*
X142688910Y-108205722D02*
X142632885Y-108149697D01*
X142744935Y-107757521D02*
X142744935Y-107029194D01*
X142744935Y-107029194D02*
X142296734Y-107421370D01*
X142296734Y-107421370D02*
X142296734Y-107253295D01*
X142296734Y-107253295D02*
X142240709Y-107141245D01*
X142240709Y-107141245D02*
X142184684Y-107085219D01*
X142184684Y-107085219D02*
X142072634Y-107029194D01*
X142072634Y-107029194D02*
X141792508Y-107029194D01*
X141792508Y-107029194D02*
X141680458Y-107085219D01*
X141680458Y-107085219D02*
X141624433Y-107141245D01*
X141624433Y-107141245D02*
X141568407Y-107253295D01*
X141568407Y-107253295D02*
X141568407Y-107589446D01*
X141568407Y-107589446D02*
X141624433Y-107701496D01*
X141624433Y-107701496D02*
X141680458Y-107757521D01*
D11*
%TO.C,MATE0*%
X166671100Y-111193600D02*
X168196100Y-111193600D01*
X166671100Y-127693600D02*
X166671100Y-111193600D01*
X168196100Y-127693600D02*
X166671100Y-127693600D01*
X171244100Y-111193600D02*
X181071100Y-111193600D01*
X181071100Y-111193600D02*
X181071100Y-127693600D01*
X181071100Y-127693600D02*
X171244100Y-127693600D01*
D12*
%TO.C,U2*%
X160664100Y-87365600D02*
X165568100Y-87365600D01*
X160664100Y-90561600D02*
X160664100Y-87365600D01*
X165568100Y-87365600D02*
X165568100Y-90561600D01*
X165568100Y-90561600D02*
X160664100Y-90561600D01*
X165696100Y-90911600D02*
X165696100Y-92438600D01*
%TO.C,IC3*%
X139926100Y-81473600D02*
X143126100Y-81473600D01*
X139926100Y-91373600D02*
X139926100Y-81473600D01*
X143126100Y-81473600D02*
X143126100Y-91373600D01*
X143126100Y-91373600D02*
X139926100Y-91373600D01*
X143476100Y-81303600D02*
X145001100Y-81303600D01*
D13*
%TO.C,ZENER0*%
X148155500Y-107378600D02*
X152676700Y-107378600D01*
X148155500Y-111188600D02*
X152676700Y-111188600D01*
D11*
X150223100Y-108283600D02*
X150223100Y-110283600D01*
X150223100Y-110283600D02*
X151246100Y-109283600D01*
X151246100Y-109283600D02*
X150223100Y-108283600D01*
%TD*%
M02*
